<svg xmlns="http://www.w3.org/2000/svg" xmlns:xlink="http://www.w3.org/1999/xlink" width="70" zoomAndPan="magnify" viewBox="0 0 52.5 52.499999" height="70" preserveAspectRatio="xMidYMid meet" version="1.0"><defs><clipPath id="722b74cff7"><path d="M 0 0 L 52 0 L 52 51.851562 L 0 51.851562 Z M 0 0 " clip-rule="nonzero"/></clipPath></defs><g clip-path="url(#722b74cff7)"><path fill="#779ff7" d="M 12.199219 33.199219 C 10.558594 34.882812 8.003906 32.390625 9.644531 30.707031 C 11.285156 29.023438 13.839844 31.519531 12.199219 33.199219 Z M 49.464844 30.914062 C 48.753906 34.25 47.332031 37.464844 45.191406 40.3125 C 46.625 41.972656 44.507812 44.347656 42.695312 43.144531 C 40.84375 44.941406 38.773438 46.382812 36.570312 47.464844 C 37.316406 50.539062 32.964844 52.054688 31.601562 49.246094 C 29.90625 49.65625 28.15625 49.890625 26.375 49.925781 C 25.457031 52.152344 22.160156 51.863281 21.621094 49.539062 C 19.246094 49.101562 16.84375 48.273438 14.742188 47.175781 C 12.695312 48.871094 9.703125 46.886719 10.515625 44.351562 C 7.902344 42.164062 5.804688 39.472656 4.320312 36.441406 C 1.632812 36.9375 0.246094 33.25 2.628906 31.867188 C 1.976562 29.339844 1.726562 26.6875 1.945312 24 C -0.84375 23.140625 -0.140625 18.820312 2.882812 18.996094 C 4.308594 14.207031 7.109375 10.1875 10.722656 7.246094 C 9.152344 4.179688 13.136719 1.128906 15.671875 3.601562 C 15.796875 3.71875 15.902344 3.847656 16.003906 3.980469 C 19.828125 2.246094 24.125 1.5 28.488281 1.976562 C 29.304688 -0.152344 32.511719 0.476562 32.464844 2.75 C 33.617188 3.070312 34.753906 3.484375 35.855469 3.984375 C 36.949219 2.824219 38.832031 3.878906 38.476562 5.375 C 39.101562 5.753906 39.71875 6.175781 40.320312 6.628906 C 41.75 7.691406 43.078125 8.9375 44.230469 10.285156 C 45.480469 9.804688 46.664062 11.308594 45.855469 12.410156 C 46.6875 13.636719 47.394531 14.925781 47.980469 16.257812 C 50.066406 15.949219 51.089844 18.820312 49.230469 19.878906 C 49.738281 21.863281 49.992188 23.902344 49.988281 25.941406 C 52.847656 26.597656 52.398438 30.871094 49.464844 30.914062 Z M 43.457031 12.164062 C 42.507812 12.28125 41.554688 12.449219 40.613281 12.644531 C 40.65625 13.082031 40.605469 13.527344 40.464844 13.945312 C 42.597656 14.777344 44.675781 15.828125 46.652344 17.09375 L 47.152344 16.59375 C 46.832031 15.863281 46.472656 15.144531 46.082031 14.453125 C 45.789062 13.933594 45.472656 13.421875 45.136719 12.925781 C 44.492188 13.117188 43.742188 12.796875 43.457031 12.164062 Z M 23.933594 22.890625 C 26.734375 23.902344 29.445312 25.28125 31.992188 27.03125 C 32.097656 26.9375 32.210938 26.859375 32.328125 26.796875 C 31.355469 24.121094 30.050781 21.539062 28.40625 19.128906 C 27.902344 19.347656 27.304688 19.296875 26.835938 18.972656 C 25.734375 19.8125 24.671875 20.726562 23.65625 21.714844 C 23.878906 22.074219 23.96875 22.488281 23.933594 22.890625 Z M 34.492188 12.203125 C 34.539062 11.988281 34.617188 11.773438 34.71875 11.570312 C 32.023438 9.851562 29.140625 8.542969 26.171875 7.644531 C 25.523438 8.511719 24.921875 9.402344 24.363281 10.308594 C 24.792969 10.605469 25.121094 11.042969 25.277344 11.585938 C 28.363281 11.394531 31.457031 11.601562 34.492188 12.203125 Z M 34.402344 13.070312 C 31.425781 12.464844 28.390625 12.261719 25.367188 12.449219 C 25.332031 12.851562 25.199219 13.246094 24.972656 13.601562 C 25.769531 14.410156 26.523438 15.246094 27.230469 16.109375 C 27.792969 15.917969 28.453125 16.035156 28.898438 16.488281 C 30.6875 15.359375 32.554688 14.40625 34.476562 13.625 C 34.433594 13.445312 34.414062 13.257812 34.402344 13.070312 Z M 20.652344 13.070312 C 15.0625 14.191406 9.699219 16.699219 5.113281 20.574219 C 5.222656 20.835938 5.289062 21.117188 5.300781 21.398438 C 10.28125 20.46875 15.40625 20.597656 20.359375 21.816406 C 20.441406 21.660156 20.546875 21.511719 20.675781 21.382812 C 21.3125 20.730469 22.3125 20.636719 23.050781 21.105469 C 24.085938 20.097656 25.164062 19.164062 26.285156 18.3125 C 26.035156 17.757812 26.109375 17.09375 26.519531 16.609375 C 25.847656 15.792969 25.132812 15 24.375 14.230469 C 23.085938 15.164062 21.175781 14.5625 20.652344 13.070312 Z M 33.152344 26.535156 C 33.457031 26.503906 33.761719 26.539062 34.054688 26.636719 C 35.621094 23.246094 36.617188 19.65625 37.03125 16.019531 C 36.117188 15.875 35.238281 15.269531 34.785156 14.433594 C 32.90625 15.195312 31.082031 16.128906 29.335938 17.234375 C 29.449219 17.691406 29.367188 18.183594 29.085938 18.582031 C 30.796875 21.085938 32.152344 23.757812 33.152344 26.535156 Z M 34.804688 27.078125 C 35.007812 27.265625 35.171875 27.484375 35.285156 27.71875 C 36.875 27.03125 38.417969 26.222656 39.90625 25.289062 C 39.726562 22.136719 39.125 19.011719 38.097656 16 C 38.03125 16.011719 37.96875 16.023438 37.902344 16.03125 C 37.476562 19.820312 36.441406 23.558594 34.804688 27.078125 Z M 35.285156 29.589844 C 36.636719 30.769531 37.875 32.035156 39.007812 33.363281 C 39.144531 33.300781 39.292969 33.269531 39.441406 33.261719 C 39.847656 30.949219 40.011719 28.609375 39.949219 26.28125 C 38.511719 27.15625 37.027344 27.917969 35.496094 28.570312 C 35.511719 28.917969 35.441406 29.269531 35.285156 29.589844 Z M 40.738281 24.757812 C 42.191406 23.789062 43.582031 22.703125 44.898438 21.496094 C 43.386719 19.257812 41.589844 17.152344 39.5625 15.292969 C 39.359375 15.46875 39.144531 15.613281 38.914062 15.730469 C 39.910156 18.660156 40.523438 21.691406 40.738281 24.757812 Z M 45.535156 20.894531 C 45.996094 20.453125 46.445312 19.996094 46.882812 19.523438 C 46.480469 19.105469 46.25 18.523438 46.339844 17.910156 C 44.417969 16.671875 42.40625 15.636719 40.328125 14.820312 C 42.300781 16.660156 44.050781 18.714844 45.535156 20.894531 Z M 37.675781 6.394531 C 37.859375 7.550781 37.988281 8.714844 38.054688 9.875 C 39.085938 10.054688 40.027344 10.816406 40.414062 11.804688 C 41.390625 11.597656 42.375 11.429688 43.363281 11.304688 C 43.394531 11.144531 43.457031 10.984375 43.550781 10.839844 C 41.984375 8.992188 40.117188 7.398438 38.050781 6.125 C 37.9375 6.238281 37.8125 6.328125 37.675781 6.394531 Z M 32.085938 3.898438 C 33.765625 5.824219 35.199219 7.882812 36.390625 10.039062 C 36.648438 9.941406 36.917969 9.875 37.191406 9.847656 C 37.121094 8.742188 37 7.644531 36.824219 6.542969 C 35.964844 6.453125 35.335938 5.605469 35.476562 4.761719 C 34.453125 4.296875 33.382812 3.90625 32.269531 3.589844 C 32.214844 3.695312 32.15625 3.800781 32.085938 3.898438 Z M 26.734375 6.914062 C 29.679688 7.835938 32.53125 9.148438 35.210938 10.855469 L 35.644531 10.460938 C 34.480469 8.355469 33.085938 6.351562 31.457031 4.480469 C 30.664062 4.945312 29.710938 4.78125 29.078125 4.238281 Z M 16.421875 4.757812 C 16.484375 4.933594 16.53125 5.109375 16.5625 5.296875 C 19.6875 5.335938 22.8125 5.785156 25.84375 6.648438 L 28.539062 3.542969 C 28.441406 3.328125 28.378906 3.09375 28.363281 2.839844 C 24.296875 2.417969 20.1875 3.0625 16.421875 4.757812 Z M 16.3125 7.164062 C 18.0625 8.09375 19.75 9.171875 21.359375 10.414062 C 22.003906 9.863281 22.839844 9.734375 23.578125 9.941406 C 24.105469 9.070312 24.671875 8.222656 25.285156 7.390625 C 22.4375 6.609375 19.515625 6.199219 16.589844 6.160156 C 16.558594 6.503906 16.460938 6.84375 16.3125 7.164062 Z M 3.753906 19.203125 L 4.644531 19.839844 C 9.335938 15.898438 14.8125 13.351562 20.515625 12.214844 C 20.523438 11.824219 20.625 11.433594 20.816406 11.082031 C 19.234375 9.863281 17.566406 8.796875 15.832031 7.890625 C 14.628906 9.253906 12.5 9.296875 11.242188 7.976562 C 7.699219 10.890625 5.019531 14.992188 3.753906 19.203125 Z M 20.511719 23.847656 C 20.246094 23.492188 20.125 23.070312 20.132812 22.648438 C 15.222656 21.445312 10.132812 21.339844 5.195312 22.292969 C 4.871094 23.390625 3.855469 24.066406 2.804688 24.109375 C 2.605469 26.660156 2.835938 29.175781 3.445312 31.574219 C 6.105469 31.113281 7.476562 34.734375 5.132812 36.132812 C 6.527344 38.96875 8.492188 41.492188 10.921875 43.5625 C 11.289062 43.058594 11.835938 42.683594 12.511719 42.546875 C 13.273438 35.851562 15.9375 29.328125 20.511719 23.847656 Z M 15.542969 44.25 C 22.21875 41.558594 28.191406 36.5625 32.058594 30.335938 C 31.257812 29.703125 31.027344 28.59375 31.457031 27.714844 C 28.992188 26.023438 26.367188 24.691406 23.652344 23.714844 C 23.132812 24.554688 22.019531 24.84375 21.167969 24.40625 C 16.738281 29.71875 14.148438 36.03125 13.378906 42.515625 C 14.339844 42.632812 15.21875 43.332031 15.542969 44.25 Z M 33.507812 30.78125 C 33.28125 30.792969 33.058594 30.773438 32.839844 30.714844 C 28.84375 37.1875 22.640625 42.359375 15.699219 45.117188 C 15.703125 45.636719 15.566406 46.105469 15.324219 46.5 C 17.238281 47.484375 19.417969 48.234375 21.570312 48.648438 C 21.972656 45.527344 26.667969 45.910156 26.554688 49.054688 C 28.1875 49.011719 29.796875 48.792969 31.355469 48.417969 C 31.207031 47.035156 32.179688 45.613281 33.726562 45.457031 C 34.695312 40.605469 34.617188 35.597656 33.507812 30.78125 Z M 34.757812 45.558594 C 36.640625 42.527344 38.007812 39.269531 38.875 35.910156 C 38.164062 35.53125 37.925781 34.59375 38.34375 33.921875 C 37.25 32.636719 36.058594 31.417969 34.753906 30.277344 C 34.625 30.390625 34.484375 30.480469 34.339844 30.558594 C 35.476562 35.46875 35.570312 40.578125 34.601562 45.523438 C 34.652344 45.527344 34.707031 45.542969 34.757812 45.558594 Z M 42.535156 40.09375 C 41.785156 38.6875 40.9375 37.316406 39.984375 36.007812 C 39.898438 36.035156 39.8125 36.058594 39.722656 36.066406 C 38.851562 39.503906 37.453125 42.839844 35.539062 45.945312 L 36.207031 46.652344 C 38.367188 45.582031 40.351562 44.179688 42.089844 42.496094 C 41.648438 41.714844 41.8125 40.683594 42.535156 40.09375 Z M 48.578125 30.765625 C 46.859375 30.148438 46.339844 27.816406 47.726562 26.542969 C 47.058594 25.074219 46.273438 23.625 45.378906 22.230469 C 43.933594 23.542969 42.398438 24.71875 40.792969 25.757812 C 40.902344 28.332031 40.734375 30.917969 40.285156 33.472656 C 40.976562 33.898438 41.160156 34.855469 40.683594 35.503906 C 41.664062 36.851562 42.539062 38.257812 43.308594 39.710938 C 43.6875 39.621094 44.09375 39.652344 44.460938 39.796875 C 46.394531 37.222656 47.863281 34.050781 48.578125 30.765625 Z M 49.101562 25.902344 C 49.101562 23.929688 48.851562 21.996094 48.375 20.128906 C 48.109375 20.144531 47.847656 20.101562 47.613281 20.011719 C 47.097656 20.570312 46.5625 21.109375 46.023438 21.628906 C 46.949219 23.066406 47.769531 24.554688 48.460938 26.074219 C 48.667969 25.988281 48.882812 25.929688 49.101562 25.902344 Z M 44.746094 32.441406 C 43.554688 32.113281 43.054688 33.925781 44.246094 34.257812 C 45.429688 34.589844 45.933594 32.773438 44.746094 32.441406 Z M 26.8125 31.347656 C 28.347656 31.59375 28.71875 29.253906 27.183594 29.011719 C 25.652344 28.765625 25.277344 31.105469 26.8125 31.347656 Z M 27.023438 41.207031 C 25.082031 40.671875 24.257812 43.632812 26.207031 44.171875 C 28.148438 44.710938 28.96875 41.746094 27.023438 41.207031 Z M 17.898438 16 C 16.265625 15.546875 15.570312 18.042969 17.210938 18.5 C 18.847656 18.949219 19.535156 16.449219 17.898438 16 Z M 17.898438 16 " fill-opacity="1" fill-rule="nonzero"/></g></svg>