<svg xmlns="http://www.w3.org/2000/svg" xmlns:xlink="http://www.w3.org/1999/xlink" width="200" zoomAndPan="magnify" viewBox="0 0 150 52.499999" height="70" preserveAspectRatio="xMidYMid meet" version="1.0"><defs><g/><clipPath id="2735f888e6"><path d="M 49 0 L 59 0 L 59 52.003906 L 49 52.003906 Z M 49 0 " clip-rule="nonzero"/></clipPath></defs><path fill="#ffffff" d="M 13.125 33.265625 C 11.472656 34.960938 8.894531 32.449219 10.550781 30.75 C 12.203125 29.054688 14.78125 31.570312 13.125 33.265625 Z M 50.707031 30.957031 C 49.992188 34.320312 48.554688 37.5625 46.398438 40.4375 C 47.84375 42.109375 45.707031 44.503906 43.878906 43.289062 C 42.015625 45.101562 39.925781 46.558594 37.703125 47.652344 C 38.457031 50.75 34.066406 52.277344 32.691406 49.445312 C 30.980469 49.859375 29.21875 50.097656 27.425781 50.128906 C 26.496094 52.375 23.171875 52.085938 22.628906 49.738281 C 20.234375 49.300781 17.808594 48.464844 15.691406 47.359375 C 13.625 49.066406 10.609375 47.066406 11.429688 44.507812 C 8.792969 42.304688 6.675781 39.589844 5.179688 36.53125 C 2.46875 37.03125 1.070312 33.316406 3.476562 31.921875 C 2.816406 29.371094 2.566406 26.695312 2.785156 23.984375 C -0.0273438 23.117188 0.683594 18.761719 3.730469 18.9375 C 5.171875 14.113281 7.992188 10.058594 11.640625 7.09375 C 10.054688 3.996094 14.070312 0.921875 16.628906 3.414062 C 16.753906 3.535156 16.859375 3.664062 16.960938 3.796875 C 20.820312 2.046875 25.152344 1.296875 29.554688 1.777344 C 30.375 -0.371094 33.609375 0.261719 33.5625 2.558594 C 34.726562 2.882812 35.871094 3.296875 36.980469 3.804688 C 38.085938 2.628906 39.984375 3.695312 39.628906 5.203125 C 40.257812 5.585938 40.878906 6.011719 41.484375 6.46875 C 42.925781 7.542969 44.265625 8.796875 45.429688 10.15625 C 46.6875 9.671875 47.882812 11.1875 47.070312 12.300781 C 47.90625 13.535156 48.621094 14.835938 49.207031 16.179688 C 51.3125 15.867188 52.34375 18.761719 50.46875 19.828125 C 50.984375 21.832031 51.238281 23.886719 51.234375 25.945312 C 54.121094 26.605469 53.664062 30.914062 50.707031 30.957031 Z M 44.648438 12.050781 C 43.691406 12.171875 42.730469 12.335938 41.78125 12.535156 C 41.824219 12.976562 41.773438 13.425781 41.628906 13.847656 C 43.785156 14.6875 45.878906 15.746094 47.871094 17.019531 L 48.375 16.515625 C 48.050781 15.78125 47.6875 15.058594 47.296875 14.355469 C 47 13.832031 46.679688 13.320312 46.339844 12.820312 C 45.691406 13.011719 44.9375 12.6875 44.648438 12.050781 Z M 24.960938 22.867188 C 27.785156 23.886719 30.519531 25.277344 33.085938 27.042969 C 33.191406 26.949219 33.308594 26.871094 33.425781 26.804688 C 32.445312 24.109375 31.128906 21.507812 29.472656 19.074219 C 28.960938 19.296875 28.359375 19.246094 27.886719 18.917969 C 26.777344 19.765625 25.707031 20.6875 24.679688 21.683594 C 24.902344 22.042969 24.996094 22.460938 24.960938 22.867188 Z M 35.605469 12.089844 C 35.65625 11.875 35.734375 11.65625 35.835938 11.453125 C 33.117188 9.71875 30.214844 8.398438 27.214844 7.492188 C 26.5625 8.367188 25.957031 9.265625 25.394531 10.179688 C 25.824219 10.480469 26.160156 10.917969 26.316406 11.464844 C 29.425781 11.277344 32.546875 11.484375 35.605469 12.089844 Z M 35.519531 12.960938 C 32.515625 12.355469 29.453125 12.148438 26.40625 12.335938 C 26.371094 12.746094 26.238281 13.144531 26.007812 13.5 C 26.8125 14.316406 27.574219 15.160156 28.285156 16.03125 C 28.851562 15.835938 29.519531 15.957031 29.96875 16.410156 C 31.769531 15.273438 33.65625 14.3125 35.59375 13.523438 C 35.550781 13.34375 35.527344 13.152344 35.519531 12.960938 Z M 21.652344 12.960938 C 16.011719 14.09375 10.605469 16.621094 5.980469 20.53125 C 6.09375 20.796875 6.160156 21.078125 6.171875 21.363281 C 11.195312 20.425781 16.359375 20.554688 21.355469 21.785156 C 21.4375 21.625 21.542969 21.476562 21.675781 21.347656 C 22.320312 20.691406 23.324219 20.59375 24.070312 21.066406 C 25.113281 20.050781 26.199219 19.109375 27.332031 18.25 C 27.082031 17.691406 27.15625 17.019531 27.566406 16.535156 C 26.890625 15.710938 26.167969 14.910156 25.402344 14.132812 C 24.105469 15.074219 22.179688 14.46875 21.652344 12.960938 Z M 34.257812 26.542969 C 34.5625 26.507812 34.871094 26.546875 35.167969 26.644531 C 36.746094 23.226562 37.75 19.605469 38.167969 15.9375 C 37.246094 15.792969 36.363281 15.183594 35.902344 14.339844 C 34.007812 15.109375 32.167969 16.046875 30.40625 17.164062 C 30.523438 17.625 30.441406 18.121094 30.15625 18.523438 C 31.882812 21.046875 33.246094 23.742188 34.257812 26.542969 Z M 35.921875 27.089844 C 36.128906 27.277344 36.292969 27.5 36.40625 27.738281 C 38.011719 27.042969 39.566406 26.226562 41.070312 25.285156 C 40.886719 22.109375 40.28125 18.957031 39.242188 15.917969 C 39.179688 15.933594 39.113281 15.941406 39.046875 15.949219 C 38.617188 19.773438 37.574219 23.539062 35.921875 27.089844 Z M 36.40625 29.625 C 37.769531 30.8125 39.019531 32.089844 40.160156 33.425781 C 40.300781 33.367188 40.449219 33.335938 40.601562 33.324219 C 41.007812 30.996094 41.175781 28.636719 41.109375 26.289062 C 39.660156 27.167969 38.164062 27.9375 36.621094 28.59375 C 36.632812 28.945312 36.566406 29.296875 36.40625 29.625 Z M 41.90625 24.75 C 43.371094 23.773438 44.773438 22.679688 46.101562 21.460938 C 44.574219 19.203125 42.765625 17.082031 40.722656 15.203125 C 40.515625 15.382812 40.300781 15.527344 40.066406 15.644531 C 41.074219 18.601562 41.6875 21.660156 41.90625 24.75 Z M 46.742188 20.851562 C 47.207031 20.40625 47.660156 19.949219 48.101562 19.472656 C 47.699219 19.050781 47.46875 18.460938 47.554688 17.847656 C 45.617188 16.59375 43.589844 15.550781 41.496094 14.726562 C 43.480469 16.585938 45.246094 18.65625 46.742188 20.851562 Z M 38.816406 6.230469 C 39.003906 7.398438 39.132812 8.570312 39.203125 9.742188 C 40.238281 9.921875 41.1875 10.691406 41.578125 11.6875 C 42.566406 11.480469 43.554688 11.308594 44.550781 11.183594 C 44.585938 11.019531 44.648438 10.859375 44.742188 10.714844 C 43.164062 8.851562 41.28125 7.246094 39.195312 5.960938 C 39.082031 6.074219 38.957031 6.164062 38.816406 6.230469 Z M 33.183594 3.714844 C 34.875 5.65625 36.320312 7.730469 37.523438 9.910156 C 37.785156 9.808594 38.050781 9.742188 38.332031 9.714844 C 38.261719 8.597656 38.136719 7.492188 37.960938 6.382812 C 37.09375 6.289062 36.457031 5.4375 36.601562 4.585938 C 35.570312 4.117188 34.488281 3.722656 33.367188 3.40625 C 33.3125 3.511719 33.253906 3.617188 33.183594 3.714844 Z M 27.785156 6.753906 C 30.753906 7.683594 33.632812 9.011719 36.332031 10.730469 L 36.769531 10.332031 C 35.597656 8.210938 34.1875 6.1875 32.546875 4.304688 C 31.746094 4.769531 30.789062 4.605469 30.148438 4.058594 Z M 17.382812 4.582031 C 17.449219 4.757812 17.496094 4.9375 17.527344 5.125 C 20.679688 5.164062 23.828125 5.617188 26.886719 6.488281 L 29.605469 3.359375 C 29.503906 3.140625 29.445312 2.902344 29.425781 2.648438 C 25.324219 2.222656 21.183594 2.871094 17.382812 4.582031 Z M 17.273438 7.007812 C 19.039062 7.945312 20.742188 9.035156 22.363281 10.285156 C 23.011719 9.730469 23.855469 9.597656 24.601562 9.808594 C 25.136719 8.933594 25.707031 8.074219 26.320312 7.234375 C 23.453125 6.449219 20.507812 6.035156 17.554688 5.996094 C 17.523438 6.34375 17.425781 6.683594 17.273438 7.007812 Z M 4.609375 19.148438 L 5.507812 19.792969 C 10.238281 15.816406 15.761719 13.25 21.511719 12.101562 C 21.523438 11.707031 21.625 11.3125 21.816406 10.960938 C 20.21875 9.730469 18.539062 8.652344 16.792969 7.742188 C 15.578125 9.117188 13.433594 9.160156 12.164062 7.828125 C 8.589844 10.765625 5.886719 14.902344 4.609375 19.148438 Z M 21.507812 23.832031 C 21.242188 23.476562 21.117188 23.046875 21.128906 22.621094 C 16.175781 21.410156 11.042969 21.300781 6.066406 22.265625 C 5.738281 23.375 4.710938 24.054688 3.652344 24.097656 C 3.453125 26.667969 3.683594 29.207031 4.300781 31.625 C 6.984375 31.160156 8.363281 34.8125 6 36.21875 C 7.410156 39.078125 9.386719 41.628906 11.839844 43.710938 C 12.210938 43.207031 12.761719 42.828125 13.441406 42.6875 C 14.210938 35.9375 16.898438 29.359375 21.507812 23.832031 Z M 16.5 44.40625 C 23.230469 41.691406 29.253906 36.65625 33.15625 30.375 C 32.34375 29.738281 32.113281 28.617188 32.546875 27.734375 C 30.058594 26.027344 27.414062 24.683594 24.675781 23.699219 C 24.152344 24.546875 23.03125 24.835938 22.171875 24.398438 C 17.703125 29.753906 15.089844 36.117188 14.316406 42.65625 C 15.285156 42.777344 16.171875 43.480469 16.5 44.40625 Z M 34.613281 30.824219 C 34.386719 30.835938 34.160156 30.820312 33.941406 30.757812 C 29.910156 37.285156 23.65625 42.5 16.65625 45.28125 C 16.660156 45.804688 16.523438 46.277344 16.277344 46.675781 C 18.207031 47.667969 20.40625 48.425781 22.578125 48.839844 C 22.980469 45.695312 27.714844 46.078125 27.605469 49.253906 C 29.25 49.207031 30.871094 48.988281 32.445312 48.609375 C 32.292969 47.214844 33.277344 45.785156 34.835938 45.625 C 35.816406 40.734375 35.734375 35.683594 34.613281 30.824219 Z M 35.875 45.726562 C 37.773438 42.667969 39.15625 39.386719 40.027344 36 C 39.3125 35.613281 39.070312 34.667969 39.492188 33.992188 C 38.390625 32.695312 37.1875 31.46875 35.871094 30.316406 C 35.742188 30.429688 35.601562 30.523438 35.453125 30.601562 C 36.601562 35.554688 36.695312 40.707031 35.71875 45.691406 C 35.769531 45.695312 35.824219 45.710938 35.875 45.726562 Z M 43.71875 40.214844 C 42.964844 38.796875 42.105469 37.414062 41.148438 36.09375 C 41.058594 36.125 40.972656 36.148438 40.882812 36.15625 C 40.003906 39.621094 38.59375 42.984375 36.664062 46.117188 L 37.339844 46.832031 C 39.515625 45.75 41.519531 44.335938 43.269531 42.636719 C 42.824219 41.851562 42.992188 40.8125 43.71875 40.214844 Z M 49.8125 30.808594 C 48.078125 30.1875 47.554688 27.835938 48.953125 26.550781 C 48.28125 25.070312 47.488281 23.609375 46.585938 22.199219 C 45.128906 23.527344 43.578125 24.710938 41.960938 25.757812 C 42.074219 28.355469 41.902344 30.960938 41.449219 33.539062 C 42.148438 33.96875 42.332031 34.933594 41.851562 35.585938 C 42.839844 36.949219 43.722656 38.367188 44.496094 39.828125 C 44.882812 39.738281 45.289062 39.769531 45.660156 39.917969 C 47.609375 37.320312 49.09375 34.121094 49.8125 30.808594 Z M 50.339844 25.902344 C 50.339844 23.914062 50.089844 21.964844 49.605469 20.082031 C 49.339844 20.097656 49.074219 20.054688 48.839844 19.964844 C 48.320312 20.527344 47.78125 21.070312 47.234375 21.59375 C 48.171875 23.042969 48.996094 24.546875 49.695312 26.078125 C 49.902344 25.992188 50.121094 25.929688 50.339844 25.902344 Z M 45.945312 32.5 C 44.746094 32.167969 44.242188 33.996094 45.441406 34.332031 C 46.636719 34.664062 47.148438 32.832031 45.945312 32.5 Z M 27.863281 31.398438 C 29.410156 31.644531 29.785156 29.285156 28.238281 29.039062 C 26.691406 28.792969 26.316406 31.152344 27.863281 31.398438 Z M 28.078125 41.339844 C 26.117188 40.796875 25.289062 43.785156 27.253906 44.328125 C 29.210938 44.871094 30.039062 41.882812 28.078125 41.339844 Z M 18.875 15.917969 C 17.226562 15.460938 16.527344 17.980469 18.179688 18.4375 C 19.832031 18.894531 20.527344 16.371094 18.875 15.917969 Z M 18.875 15.917969 " fill-opacity="1" fill-rule="nonzero"/><g clip-path="url(#2735f888e6)"><path stroke-linecap="butt" transform="matrix(-0.00574359, -0.742902, 0.742902, -0.00574359, 54.133359, 50.027671)" fill="none" stroke-linejoin="miter" d="M 0.0018427 0.498797 L 64.676391 0.499296 " stroke="#ffffff" stroke-width="1" stroke-opacity="1" stroke-miterlimit="4"/></g><g fill="#ffffff" fill-opacity="1"><g transform="translate(56.756406, 25.092083)"><g><path d="M 10.265625 0 L 8.578125 0 L 7.8125 -5 L 5.53125 -0.015625 L 5.125 -0.015625 L 2.84375 -5 L 2.09375 0 L 0.390625 0 L 1.59375 -7.65625 L 3.265625 -7.65625 L 5.328125 -2.96875 L 7.40625 -7.65625 L 9.0625 -7.65625 Z M 10.265625 0 "/></g></g></g><g fill="#ffffff" fill-opacity="1"><g transform="translate(67.426279, 25.092083)"><g><path d="M 2.859375 0.15625 C 2.367188 0.15625 1.9375 0.0703125 1.5625 -0.09375 C 1.1875 -0.269531 0.894531 -0.515625 0.6875 -0.828125 C 0.476562 -1.148438 0.375 -1.523438 0.375 -1.953125 L 1.9375 -1.953125 C 1.945312 -1.679688 2.039062 -1.476562 2.21875 -1.34375 C 2.40625 -1.21875 2.640625 -1.15625 2.921875 -1.15625 C 3.148438 -1.15625 3.347656 -1.203125 3.515625 -1.296875 C 3.679688 -1.398438 3.765625 -1.550781 3.765625 -1.75 C 3.765625 -1.957031 3.648438 -2.101562 3.421875 -2.1875 C 3.203125 -2.269531 2.9375 -2.335938 2.625 -2.390625 C 2.394531 -2.421875 2.148438 -2.46875 1.890625 -2.53125 C 1.640625 -2.601562 1.410156 -2.695312 1.203125 -2.8125 C 0.992188 -2.9375 0.820312 -3.109375 0.6875 -3.328125 C 0.550781 -3.546875 0.484375 -3.832031 0.484375 -4.1875 C 0.484375 -4.5625 0.582031 -4.890625 0.78125 -5.171875 C 0.976562 -5.453125 1.253906 -5.671875 1.609375 -5.828125 C 1.960938 -5.984375 2.378906 -6.0625 2.859375 -6.0625 C 3.335938 -6.0625 3.753906 -5.976562 4.109375 -5.8125 C 4.460938 -5.65625 4.738281 -5.425781 4.9375 -5.125 C 5.132812 -4.832031 5.234375 -4.488281 5.234375 -4.09375 L 3.703125 -4.09375 C 3.703125 -4.332031 3.625 -4.507812 3.46875 -4.625 C 3.3125 -4.738281 3.097656 -4.796875 2.828125 -4.796875 C 2.578125 -4.796875 2.378906 -4.742188 2.234375 -4.640625 C 2.097656 -4.535156 2.03125 -4.398438 2.03125 -4.234375 C 2.03125 -4.035156 2.140625 -3.898438 2.359375 -3.828125 C 2.578125 -3.753906 2.84375 -3.691406 3.15625 -3.640625 C 3.394531 -3.597656 3.640625 -3.546875 3.890625 -3.484375 C 4.148438 -3.421875 4.390625 -3.328125 4.609375 -3.203125 C 4.828125 -3.078125 5.003906 -2.90625 5.140625 -2.6875 C 5.273438 -2.46875 5.34375 -2.179688 5.34375 -1.828125 C 5.34375 -1.421875 5.238281 -1.066406 5.03125 -0.765625 C 4.820312 -0.472656 4.53125 -0.242188 4.15625 -0.078125 C 3.789062 0.078125 3.359375 0.15625 2.859375 0.15625 Z M 2.859375 0.15625 "/></g></g></g><g fill="#ffffff" fill-opacity="1"><g transform="translate(73.171596, 25.092083)"><g><path d="M 0.65625 0 L 0.65625 -1.703125 L 2.34375 -1.703125 L 2.34375 0 Z M 0.65625 0 "/></g></g></g><g fill="#ffffff" fill-opacity="1"><g transform="translate(76.170104, 25.092083)"><g><path d="M 7.25 -7.65625 L 4.5625 -3.09375 L 4.5625 0 L 2.859375 0 L 2.859375 -3.109375 L 0.1875 -7.65625 L 1.953125 -7.65625 L 3.71875 -4.59375 L 5.484375 -7.65625 Z M 7.25 -7.65625 "/></g></g></g><g fill="#ffffff" fill-opacity="1"><g transform="translate(83.600708, 25.092083)"><g><path d="M 3.578125 0.15625 C 2.960938 0.15625 2.414062 0.0195312 1.9375 -0.25 C 1.457031 -0.519531 1.078125 -0.890625 0.796875 -1.359375 C 0.515625 -1.828125 0.375 -2.359375 0.375 -2.953125 C 0.375 -3.546875 0.515625 -4.078125 0.796875 -4.546875 C 1.078125 -5.023438 1.457031 -5.394531 1.9375 -5.65625 C 2.414062 -5.925781 2.960938 -6.0625 3.578125 -6.0625 C 4.179688 -6.0625 4.722656 -5.925781 5.203125 -5.65625 C 5.679688 -5.394531 6.0625 -5.023438 6.34375 -4.546875 C 6.625 -4.078125 6.765625 -3.546875 6.765625 -2.953125 C 6.765625 -2.359375 6.625 -1.828125 6.34375 -1.359375 C 6.0625 -0.890625 5.679688 -0.519531 5.203125 -0.25 C 4.722656 0.0195312 4.179688 0.15625 3.578125 0.15625 Z M 3.578125 -1.328125 C 4.035156 -1.328125 4.410156 -1.476562 4.703125 -1.78125 C 4.992188 -2.082031 5.140625 -2.472656 5.140625 -2.953125 C 5.140625 -3.429688 4.992188 -3.820312 4.703125 -4.125 C 4.410156 -4.425781 4.035156 -4.578125 3.578125 -4.578125 C 3.109375 -4.578125 2.726562 -4.425781 2.4375 -4.125 C 2.144531 -3.820312 2 -3.429688 2 -2.953125 C 2 -2.472656 2.144531 -2.082031 2.4375 -1.78125 C 2.726562 -1.476562 3.109375 -1.328125 3.578125 -1.328125 Z M 3.578125 -1.328125 "/></g></g></g><g fill="#ffffff" fill-opacity="1"><g transform="translate(90.746788, 25.092083)"><g><path d="M 3.578125 0.15625 C 2.960938 0.15625 2.414062 0.0195312 1.9375 -0.25 C 1.457031 -0.519531 1.078125 -0.890625 0.796875 -1.359375 C 0.515625 -1.828125 0.375 -2.359375 0.375 -2.953125 C 0.375 -3.546875 0.515625 -4.078125 0.796875 -4.546875 C 1.078125 -5.023438 1.457031 -5.394531 1.9375 -5.65625 C 2.414062 -5.925781 2.960938 -6.0625 3.578125 -6.0625 C 4.179688 -6.0625 4.722656 -5.925781 5.203125 -5.65625 C 5.679688 -5.394531 6.0625 -5.023438 6.34375 -4.546875 C 6.625 -4.078125 6.765625 -3.546875 6.765625 -2.953125 C 6.765625 -2.359375 6.625 -1.828125 6.34375 -1.359375 C 6.0625 -0.890625 5.679688 -0.519531 5.203125 -0.25 C 4.722656 0.0195312 4.179688 0.15625 3.578125 0.15625 Z M 3.578125 -1.328125 C 4.035156 -1.328125 4.410156 -1.476562 4.703125 -1.78125 C 4.992188 -2.082031 5.140625 -2.472656 5.140625 -2.953125 C 5.140625 -3.429688 4.992188 -3.820312 4.703125 -4.125 C 4.410156 -4.425781 4.035156 -4.578125 3.578125 -4.578125 C 3.109375 -4.578125 2.726562 -4.425781 2.4375 -4.125 C 2.144531 -3.820312 2 -3.429688 2 -2.953125 C 2 -2.472656 2.144531 -2.082031 2.4375 -1.78125 C 2.726562 -1.476562 3.109375 -1.328125 3.578125 -1.328125 Z M 3.578125 -1.328125 "/></g></g></g><g fill="#ffffff" fill-opacity="1"><g transform="translate(97.892867, 25.092083)"><g><path d="M 4.140625 -6.046875 C 4.804688 -6.046875 5.332031 -5.820312 5.71875 -5.375 C 6.113281 -4.925781 6.3125 -4.328125 6.3125 -3.578125 L 6.3125 0 L 4.71875 0 L 4.71875 -3.328125 C 4.71875 -4.203125 4.375 -4.640625 3.6875 -4.640625 C 3.28125 -4.640625 2.957031 -4.5 2.71875 -4.21875 C 2.476562 -3.945312 2.359375 -3.578125 2.359375 -3.109375 L 2.359375 0 L 0.765625 0 L 0.765625 -5.90625 L 1.859375 -5.90625 L 2.171875 -5.171875 C 2.390625 -5.441406 2.671875 -5.65625 3.015625 -5.8125 C 3.359375 -5.96875 3.734375 -6.046875 4.140625 -6.046875 Z M 4.140625 -6.046875 "/></g></g></g><g fill="#ffffff" fill-opacity="1"><g transform="translate(104.907615, 25.092083)"><g/></g></g><g fill="#ffffff" fill-opacity="1"><g transform="translate(107.523106, 25.092083)"><g><path d="M 10.265625 0 L 8.578125 0 L 7.8125 -5 L 5.53125 -0.015625 L 5.125 -0.015625 L 2.84375 -5 L 2.09375 0 L 0.390625 0 L 1.59375 -7.65625 L 3.265625 -7.65625 L 5.328125 -2.96875 L 7.40625 -7.65625 L 9.0625 -7.65625 Z M 10.265625 0 "/></g></g></g><g fill="#ffffff" fill-opacity="1"><g transform="translate(118.192979, 25.092083)"><g><path d="M 6.5 -2.96875 C 6.5 -2.820312 6.488281 -2.664062 6.46875 -2.5 L 2 -2.5 C 2.0625 -2.101562 2.21875 -1.796875 2.46875 -1.578125 C 2.726562 -1.359375 3.050781 -1.25 3.4375 -1.25 C 3.71875 -1.25 3.96875 -1.3125 4.1875 -1.4375 C 4.40625 -1.5625 4.570312 -1.726562 4.6875 -1.9375 L 6.375 -1.9375 C 6.15625 -1.289062 5.78125 -0.78125 5.25 -0.40625 C 4.726562 -0.03125 4.125 0.15625 3.4375 0.15625 C 2.851562 0.15625 2.332031 0.0195312 1.875 -0.25 C 1.414062 -0.519531 1.050781 -0.890625 0.78125 -1.359375 C 0.507812 -1.828125 0.375 -2.359375 0.375 -2.953125 C 0.375 -3.546875 0.507812 -4.078125 0.78125 -4.546875 C 1.050781 -5.015625 1.414062 -5.382812 1.875 -5.65625 C 2.332031 -5.925781 2.851562 -6.0625 3.4375 -6.0625 C 4.050781 -6.0625 4.585938 -5.921875 5.046875 -5.640625 C 5.503906 -5.367188 5.859375 -5 6.109375 -4.53125 C 6.367188 -4.0625 6.5 -3.539062 6.5 -2.96875 Z M 3.4375 -4.71875 C 3.082031 -4.71875 2.78125 -4.617188 2.53125 -4.421875 C 2.289062 -4.222656 2.128906 -3.945312 2.046875 -3.59375 L 4.90625 -3.59375 C 4.664062 -4.34375 4.175781 -4.71875 3.4375 -4.71875 Z M 3.4375 -4.71875 "/></g></g></g><g fill="#ffffff" fill-opacity="1"><g transform="translate(125.065471, 25.092083)"><g/></g></g><g fill="#ffffff" fill-opacity="1"><g transform="translate(127.680963, 25.092083)"><g><path d="M 10.265625 0 L 8.578125 0 L 7.8125 -5 L 5.53125 -0.015625 L 5.125 -0.015625 L 2.84375 -5 L 2.09375 0 L 0.390625 0 L 1.59375 -7.65625 L 3.265625 -7.65625 L 5.328125 -2.96875 L 7.40625 -7.65625 L 9.0625 -7.65625 Z M 10.265625 0 "/></g></g></g><g fill="#ffffff" fill-opacity="1"><g transform="translate(138.350836, 25.092083)"><g><path d="M 6.5 -2.96875 C 6.5 -2.820312 6.488281 -2.664062 6.46875 -2.5 L 2 -2.5 C 2.0625 -2.101562 2.21875 -1.796875 2.46875 -1.578125 C 2.726562 -1.359375 3.050781 -1.25 3.4375 -1.25 C 3.71875 -1.25 3.96875 -1.3125 4.1875 -1.4375 C 4.40625 -1.5625 4.570312 -1.726562 4.6875 -1.9375 L 6.375 -1.9375 C 6.15625 -1.289062 5.78125 -0.78125 5.25 -0.40625 C 4.726562 -0.03125 4.125 0.15625 3.4375 0.15625 C 2.851562 0.15625 2.332031 0.0195312 1.875 -0.25 C 1.414062 -0.519531 1.050781 -0.890625 0.78125 -1.359375 C 0.507812 -1.828125 0.375 -2.359375 0.375 -2.953125 C 0.375 -3.546875 0.507812 -4.078125 0.78125 -4.546875 C 1.050781 -5.015625 1.414062 -5.382812 1.875 -5.65625 C 2.332031 -5.925781 2.851562 -6.0625 3.4375 -6.0625 C 4.050781 -6.0625 4.585938 -5.921875 5.046875 -5.640625 C 5.503906 -5.367188 5.859375 -5 6.109375 -4.53125 C 6.367188 -4.0625 6.5 -3.539062 6.5 -2.96875 Z M 3.4375 -4.71875 C 3.082031 -4.71875 2.78125 -4.617188 2.53125 -4.421875 C 2.289062 -4.222656 2.128906 -3.945312 2.046875 -3.59375 L 4.90625 -3.59375 C 4.664062 -4.34375 4.175781 -4.71875 3.4375 -4.71875 Z M 3.4375 -4.71875 "/></g></g></g><g fill="#ffffff" fill-opacity="1"><g transform="translate(56.756406, 32.612608)"><g><path d="M 2.671875 -3.25 L 3.609375 -3.25 L 2.1875 -0.046875 C 2.0625 0.242188 1.929688 0.476562 1.796875 0.65625 C 1.660156 0.84375 1.507812 0.972656 1.34375 1.046875 C 1.175781 1.128906 0.96875 1.171875 0.71875 1.171875 L 0.359375 1.171875 L 0.359375 0.375 L 0.671875 0.375 C 0.804688 0.375 0.914062 0.359375 1 0.328125 C 1.082031 0.296875 1.148438 0.238281 1.203125 0.15625 C 1.265625 0.0703125 1.332031 -0.0507812 1.40625 -0.21875 L 1.421875 -0.25 L 0.03125 -3.25 L 1 -3.25 L 1.859375 -1.25 Z M 2.671875 -3.25 "/></g></g></g><g fill="#ffffff" fill-opacity="1"><g transform="translate(60.391157, 32.612608)"><g><path d="M 1.96875 0.09375 C 1.632812 0.09375 1.332031 0.0195312 1.0625 -0.125 C 0.800781 -0.28125 0.59375 -0.488281 0.4375 -0.75 C 0.289062 -1.007812 0.21875 -1.300781 0.21875 -1.625 C 0.21875 -1.957031 0.289062 -2.253906 0.4375 -2.515625 C 0.59375 -2.773438 0.800781 -2.976562 1.0625 -3.125 C 1.332031 -3.269531 1.632812 -3.34375 1.96875 -3.34375 C 2.300781 -3.34375 2.597656 -3.269531 2.859375 -3.125 C 3.128906 -2.976562 3.34375 -2.773438 3.5 -2.515625 C 3.65625 -2.253906 3.734375 -1.957031 3.734375 -1.625 C 3.734375 -1.300781 3.65625 -1.007812 3.5 -0.75 C 3.34375 -0.488281 3.128906 -0.28125 2.859375 -0.125 C 2.597656 0.0195312 2.300781 0.09375 1.96875 0.09375 Z M 1.96875 -0.734375 C 2.226562 -0.734375 2.4375 -0.816406 2.59375 -0.984375 C 2.75 -1.148438 2.828125 -1.363281 2.828125 -1.625 C 2.828125 -1.894531 2.75 -2.109375 2.59375 -2.265625 C 2.4375 -2.429688 2.226562 -2.515625 1.96875 -2.515625 C 1.71875 -2.515625 1.507812 -2.429688 1.34375 -2.265625 C 1.1875 -2.109375 1.109375 -1.894531 1.109375 -1.625 C 1.109375 -1.363281 1.1875 -1.148438 1.34375 -0.984375 C 1.507812 -0.816406 1.71875 -0.734375 1.96875 -0.734375 Z M 1.96875 -0.734375 "/></g></g></g><g fill="#ffffff" fill-opacity="1"><g transform="translate(64.333841, 32.612608)"><g><path d="M 1.96875 0.09375 C 1.632812 0.09375 1.332031 0.0195312 1.0625 -0.125 C 0.800781 -0.28125 0.59375 -0.488281 0.4375 -0.75 C 0.289062 -1.007812 0.21875 -1.300781 0.21875 -1.625 C 0.21875 -1.957031 0.289062 -2.253906 0.4375 -2.515625 C 0.59375 -2.773438 0.800781 -2.976562 1.0625 -3.125 C 1.332031 -3.269531 1.632812 -3.34375 1.96875 -3.34375 C 2.300781 -3.34375 2.597656 -3.269531 2.859375 -3.125 C 3.128906 -2.976562 3.34375 -2.773438 3.5 -2.515625 C 3.65625 -2.253906 3.734375 -1.957031 3.734375 -1.625 C 3.734375 -1.300781 3.65625 -1.007812 3.5 -0.75 C 3.34375 -0.488281 3.128906 -0.28125 2.859375 -0.125 C 2.597656 0.0195312 2.300781 0.09375 1.96875 0.09375 Z M 1.96875 -0.734375 C 2.226562 -0.734375 2.4375 -0.816406 2.59375 -0.984375 C 2.75 -1.148438 2.828125 -1.363281 2.828125 -1.625 C 2.828125 -1.894531 2.75 -2.109375 2.59375 -2.265625 C 2.4375 -2.429688 2.226562 -2.515625 1.96875 -2.515625 C 1.71875 -2.515625 1.507812 -2.429688 1.34375 -2.265625 C 1.1875 -2.109375 1.109375 -1.894531 1.109375 -1.625 C 1.109375 -1.363281 1.1875 -1.148438 1.34375 -0.984375 C 1.507812 -0.816406 1.71875 -0.734375 1.96875 -0.734375 Z M 1.96875 -0.734375 "/></g></g></g><g fill="#ffffff" fill-opacity="1"><g transform="translate(68.276526, 32.612608)"><g><path d="M 2.28125 -3.328125 C 2.644531 -3.328125 2.9375 -3.203125 3.15625 -2.953125 C 3.375 -2.710938 3.484375 -2.382812 3.484375 -1.96875 L 3.484375 0 L 2.59375 0 L 2.59375 -1.828125 C 2.59375 -2.316406 2.40625 -2.5625 2.03125 -2.5625 C 1.800781 -2.5625 1.617188 -2.484375 1.484375 -2.328125 C 1.359375 -2.179688 1.296875 -1.976562 1.296875 -1.71875 L 1.296875 0 L 0.421875 0 L 0.421875 -3.25 L 1.03125 -3.25 L 1.203125 -2.859375 C 1.316406 -3.003906 1.46875 -3.117188 1.65625 -3.203125 C 1.851562 -3.285156 2.0625 -3.328125 2.28125 -3.328125 Z M 2.28125 -3.328125 "/></g></g></g><g fill="#ffffff" fill-opacity="1"><g transform="translate(72.14675, 32.612608)"><g><path d="M 4.125 -3.328125 C 4.351562 -3.328125 4.550781 -3.269531 4.71875 -3.15625 C 4.894531 -3.050781 5.03125 -2.898438 5.125 -2.703125 C 5.226562 -2.515625 5.28125 -2.296875 5.28125 -2.046875 L 5.28125 0 L 4.390625 0 L 4.390625 -1.90625 C 4.390625 -2.34375 4.226562 -2.5625 3.90625 -2.5625 C 3.707031 -2.5625 3.550781 -2.488281 3.4375 -2.34375 C 3.332031 -2.207031 3.28125 -2.015625 3.28125 -1.765625 L 3.28125 0 L 2.421875 0 L 2.421875 -1.90625 C 2.421875 -2.34375 2.257812 -2.5625 1.9375 -2.5625 C 1.738281 -2.5625 1.582031 -2.488281 1.46875 -2.34375 C 1.351562 -2.207031 1.296875 -2.015625 1.296875 -1.765625 L 1.296875 0 L 0.421875 0 L 0.421875 -3.25 L 1.03125 -3.25 L 1.203125 -2.859375 C 1.316406 -2.992188 1.457031 -3.101562 1.625 -3.1875 C 1.800781 -3.28125 1.984375 -3.328125 2.171875 -3.328125 C 2.378906 -3.328125 2.566406 -3.28125 2.734375 -3.1875 C 2.898438 -3.101562 3.03125 -2.976562 3.125 -2.8125 C 3.226562 -2.96875 3.367188 -3.09375 3.546875 -3.1875 C 3.722656 -3.28125 3.914062 -3.328125 4.125 -3.328125 Z M 4.125 -3.328125 "/></g></g></g><g fill="#ffffff" fill-opacity="1"><g transform="translate(77.810202, 32.612608)"><g><path d="M 3.578125 -1.640625 C 3.578125 -1.554688 3.570312 -1.46875 3.5625 -1.375 L 1.109375 -1.375 C 1.140625 -1.15625 1.222656 -0.984375 1.359375 -0.859375 C 1.503906 -0.742188 1.6875 -0.6875 1.90625 -0.6875 C 2.050781 -0.6875 2.179688 -0.71875 2.296875 -0.78125 C 2.421875 -0.851562 2.519531 -0.945312 2.59375 -1.0625 L 3.515625 -1.0625 C 3.390625 -0.707031 3.179688 -0.425781 2.890625 -0.21875 C 2.609375 -0.0078125 2.28125 0.09375 1.90625 0.09375 C 1.582031 0.09375 1.289062 0.0195312 1.03125 -0.125 C 0.78125 -0.28125 0.582031 -0.488281 0.4375 -0.75 C 0.289062 -1.007812 0.21875 -1.300781 0.21875 -1.625 C 0.21875 -1.945312 0.289062 -2.238281 0.4375 -2.5 C 0.582031 -2.757812 0.78125 -2.960938 1.03125 -3.109375 C 1.289062 -3.265625 1.582031 -3.34375 1.90625 -3.34375 C 2.238281 -3.34375 2.53125 -3.265625 2.78125 -3.109375 C 3.03125 -2.960938 3.222656 -2.757812 3.359375 -2.5 C 3.503906 -2.238281 3.578125 -1.953125 3.578125 -1.640625 Z M 1.90625 -2.59375 C 1.707031 -2.59375 1.539062 -2.539062 1.40625 -2.4375 C 1.269531 -2.332031 1.175781 -2.179688 1.125 -1.984375 L 2.703125 -1.984375 C 2.578125 -2.390625 2.3125 -2.59375 1.90625 -2.59375 Z M 1.90625 -2.59375 "/></g></g></g><g fill="#ffffff" fill-opacity="1"><g transform="translate(81.601941, 32.612608)"><g><path d="M 4.125 -3.328125 C 4.351562 -3.328125 4.550781 -3.269531 4.71875 -3.15625 C 4.894531 -3.050781 5.03125 -2.898438 5.125 -2.703125 C 5.226562 -2.515625 5.28125 -2.296875 5.28125 -2.046875 L 5.28125 0 L 4.390625 0 L 4.390625 -1.90625 C 4.390625 -2.34375 4.226562 -2.5625 3.90625 -2.5625 C 3.707031 -2.5625 3.550781 -2.488281 3.4375 -2.34375 C 3.332031 -2.207031 3.28125 -2.015625 3.28125 -1.765625 L 3.28125 0 L 2.421875 0 L 2.421875 -1.90625 C 2.421875 -2.34375 2.257812 -2.5625 1.9375 -2.5625 C 1.738281 -2.5625 1.582031 -2.488281 1.46875 -2.34375 C 1.351562 -2.207031 1.296875 -2.015625 1.296875 -1.765625 L 1.296875 0 L 0.421875 0 L 0.421875 -3.25 L 1.03125 -3.25 L 1.203125 -2.859375 C 1.316406 -2.992188 1.457031 -3.101562 1.625 -3.1875 C 1.800781 -3.28125 1.984375 -3.328125 2.171875 -3.328125 C 2.378906 -3.328125 2.566406 -3.28125 2.734375 -3.1875 C 2.898438 -3.101562 3.03125 -2.976562 3.125 -2.8125 C 3.226562 -2.96875 3.367188 -3.09375 3.546875 -3.1875 C 3.722656 -3.28125 3.914062 -3.328125 4.125 -3.328125 Z M 4.125 -3.328125 "/></g></g></g><g fill="#ffffff" fill-opacity="1"><g transform="translate(87.265392, 32.612608)"><g><path d="M 3.578125 -1.640625 C 3.578125 -1.554688 3.570312 -1.46875 3.5625 -1.375 L 1.109375 -1.375 C 1.140625 -1.15625 1.222656 -0.984375 1.359375 -0.859375 C 1.503906 -0.742188 1.6875 -0.6875 1.90625 -0.6875 C 2.050781 -0.6875 2.179688 -0.71875 2.296875 -0.78125 C 2.421875 -0.851562 2.519531 -0.945312 2.59375 -1.0625 L 3.515625 -1.0625 C 3.390625 -0.707031 3.179688 -0.425781 2.890625 -0.21875 C 2.609375 -0.0078125 2.28125 0.09375 1.90625 0.09375 C 1.582031 0.09375 1.289062 0.0195312 1.03125 -0.125 C 0.78125 -0.28125 0.582031 -0.488281 0.4375 -0.75 C 0.289062 -1.007812 0.21875 -1.300781 0.21875 -1.625 C 0.21875 -1.945312 0.289062 -2.238281 0.4375 -2.5 C 0.582031 -2.757812 0.78125 -2.960938 1.03125 -3.109375 C 1.289062 -3.265625 1.582031 -3.34375 1.90625 -3.34375 C 2.238281 -3.34375 2.53125 -3.265625 2.78125 -3.109375 C 3.03125 -2.960938 3.222656 -2.757812 3.359375 -2.5 C 3.503906 -2.238281 3.578125 -1.953125 3.578125 -1.640625 Z M 1.90625 -2.59375 C 1.707031 -2.59375 1.539062 -2.539062 1.40625 -2.4375 C 1.269531 -2.332031 1.175781 -2.179688 1.125 -1.984375 L 2.703125 -1.984375 C 2.578125 -2.390625 2.3125 -2.59375 1.90625 -2.59375 Z M 1.90625 -2.59375 "/></g></g></g><g fill="#ffffff" fill-opacity="1"><g transform="translate(91.057131, 32.612608)"><g><path d="M 0.359375 0 L 0.359375 -0.9375 L 1.296875 -0.9375 L 1.296875 0 Z M 0.359375 0 "/></g></g></g><g fill="#ffffff" fill-opacity="1"><g transform="translate(92.711488, 32.612608)"><g><path d="M 3.578125 -1.640625 C 3.578125 -1.554688 3.570312 -1.46875 3.5625 -1.375 L 1.109375 -1.375 C 1.140625 -1.15625 1.222656 -0.984375 1.359375 -0.859375 C 1.503906 -0.742188 1.6875 -0.6875 1.90625 -0.6875 C 2.050781 -0.6875 2.179688 -0.71875 2.296875 -0.78125 C 2.421875 -0.851562 2.519531 -0.945312 2.59375 -1.0625 L 3.515625 -1.0625 C 3.390625 -0.707031 3.179688 -0.425781 2.890625 -0.21875 C 2.609375 -0.0078125 2.28125 0.09375 1.90625 0.09375 C 1.582031 0.09375 1.289062 0.0195312 1.03125 -0.125 C 0.78125 -0.28125 0.582031 -0.488281 0.4375 -0.75 C 0.289062 -1.007812 0.21875 -1.300781 0.21875 -1.625 C 0.21875 -1.945312 0.289062 -2.238281 0.4375 -2.5 C 0.582031 -2.757812 0.78125 -2.960938 1.03125 -3.109375 C 1.289062 -3.265625 1.582031 -3.34375 1.90625 -3.34375 C 2.238281 -3.34375 2.53125 -3.265625 2.78125 -3.109375 C 3.03125 -2.960938 3.222656 -2.757812 3.359375 -2.5 C 3.503906 -2.238281 3.578125 -1.953125 3.578125 -1.640625 Z M 1.90625 -2.59375 C 1.707031 -2.59375 1.539062 -2.539062 1.40625 -2.4375 C 1.269531 -2.332031 1.175781 -2.179688 1.125 -1.984375 L 2.703125 -1.984375 C 2.578125 -2.390625 2.3125 -2.59375 1.90625 -2.59375 Z M 1.90625 -2.59375 "/></g></g></g><g fill="#ffffff" fill-opacity="1"><g transform="translate(96.503227, 32.612608)"><g><path d="M 2.28125 -3.328125 C 2.644531 -3.328125 2.9375 -3.203125 3.15625 -2.953125 C 3.375 -2.710938 3.484375 -2.382812 3.484375 -1.96875 L 3.484375 0 L 2.59375 0 L 2.59375 -1.828125 C 2.59375 -2.316406 2.40625 -2.5625 2.03125 -2.5625 C 1.800781 -2.5625 1.617188 -2.484375 1.484375 -2.328125 C 1.359375 -2.179688 1.296875 -1.976562 1.296875 -1.71875 L 1.296875 0 L 0.421875 0 L 0.421875 -3.25 L 1.03125 -3.25 L 1.203125 -2.859375 C 1.316406 -3.003906 1.46875 -3.117188 1.65625 -3.203125 C 1.851562 -3.285156 2.0625 -3.328125 2.28125 -3.328125 Z M 2.28125 -3.328125 "/></g></g></g><g fill="#ffffff" fill-opacity="1"><g transform="translate(100.373452, 32.612608)"><g><path d="M 3.046875 -3.25 L 3.625 -3.25 L 3.625 -0.375 C 3.625 -0.0390625 3.554688 0.25 3.421875 0.5 C 3.285156 0.75 3.09375 0.9375 2.84375 1.0625 C 2.59375 1.195312 2.296875 1.265625 1.953125 1.265625 C 1.515625 1.265625 1.144531 1.15625 0.84375 0.9375 C 0.550781 0.726562 0.367188 0.441406 0.296875 0.078125 L 1.171875 0.078125 C 1.222656 0.222656 1.320312 0.332031 1.46875 0.40625 C 1.625 0.476562 1.78125 0.515625 1.9375 0.515625 C 2.164062 0.515625 2.359375 0.445312 2.515625 0.3125 C 2.671875 0.175781 2.75 -0.0078125 2.75 -0.25 L 2.75 -0.375 C 2.625 -0.28125 2.484375 -0.207031 2.328125 -0.15625 C 2.171875 -0.101562 2.003906 -0.078125 1.828125 -0.078125 C 1.523438 -0.078125 1.25 -0.148438 1 -0.296875 C 0.757812 -0.441406 0.566406 -0.632812 0.421875 -0.875 C 0.285156 -1.125 0.21875 -1.40625 0.21875 -1.71875 C 0.21875 -2.019531 0.285156 -2.289062 0.421875 -2.53125 C 0.566406 -2.78125 0.757812 -2.976562 1 -3.125 C 1.25 -3.269531 1.523438 -3.34375 1.828125 -3.34375 C 2.035156 -3.34375 2.234375 -3.304688 2.421875 -3.234375 C 2.609375 -3.160156 2.769531 -3.0625 2.90625 -2.9375 Z M 1.9375 -0.875 C 2.175781 -0.875 2.375 -0.953125 2.53125 -1.109375 C 2.6875 -1.265625 2.765625 -1.46875 2.765625 -1.71875 C 2.765625 -1.957031 2.6875 -2.15625 2.53125 -2.3125 C 2.375 -2.46875 2.175781 -2.546875 1.9375 -2.546875 C 1.695312 -2.546875 1.5 -2.46875 1.34375 -2.3125 C 1.1875 -2.15625 1.109375 -1.957031 1.109375 -1.71875 C 1.109375 -1.46875 1.179688 -1.265625 1.328125 -1.109375 C 1.484375 -0.953125 1.6875 -0.875 1.9375 -0.875 Z M 1.9375 -0.875 "/></g></g></g><g fill="#ffffff" fill-opacity="1"><g transform="translate(104.424817, 32.612608)"><g><path d="M 2.09375 -3.28125 L 2.375 -3.28125 L 2.375 -2.4375 L 2 -2.4375 C 1.75 -2.4375 1.566406 -2.378906 1.453125 -2.265625 C 1.347656 -2.148438 1.296875 -1.957031 1.296875 -1.6875 L 1.296875 0 L 0.421875 0 L 0.421875 -3.25 L 0.984375 -3.25 L 1.140625 -2.859375 C 1.367188 -3.140625 1.6875 -3.28125 2.09375 -3.28125 Z M 2.09375 -3.28125 "/></g></g></g><g fill="#ffffff" fill-opacity="1"><g transform="translate(106.8822, 32.612608)"><g><path d="M 3.015625 -3.953125 C 3.367188 -3.953125 3.710938 -3.894531 4.046875 -3.78125 C 4.378906 -3.675781 4.671875 -3.515625 4.921875 -3.296875 C 5.179688 -3.085938 5.382812 -2.828125 5.53125 -2.515625 C 5.6875 -2.203125 5.765625 -1.835938 5.765625 -1.421875 C 5.765625 -1.109375 5.707031 -0.847656 5.59375 -0.640625 C 5.476562 -0.441406 5.328125 -0.289062 5.140625 -0.1875 C 4.960938 -0.09375 4.773438 -0.046875 4.578125 -0.046875 C 4.210938 -0.046875 3.953125 -0.160156 3.796875 -0.390625 C 3.679688 -0.265625 3.539062 -0.164062 3.375 -0.09375 C 3.21875 -0.03125 3.050781 0 2.875 0 C 2.613281 0 2.378906 -0.0546875 2.171875 -0.171875 C 1.972656 -0.285156 1.8125 -0.445312 1.6875 -0.65625 C 1.570312 -0.863281 1.515625 -1.097656 1.515625 -1.359375 C 1.515625 -1.617188 1.570312 -1.847656 1.6875 -2.046875 C 1.8125 -2.253906 1.972656 -2.414062 2.171875 -2.53125 C 2.378906 -2.65625 2.613281 -2.71875 2.875 -2.71875 C 3.039062 -2.71875 3.195312 -2.6875 3.34375 -2.625 C 3.5 -2.5625 3.632812 -2.476562 3.75 -2.375 L 3.828125 -2.5625 L 4.25 -2.5625 L 4.25 -1.078125 C 4.25 -0.960938 4.28125 -0.867188 4.34375 -0.796875 C 4.414062 -0.722656 4.5 -0.6875 4.59375 -0.6875 C 4.71875 -0.6875 4.828125 -0.75 4.921875 -0.875 C 5.023438 -1 5.078125 -1.179688 5.078125 -1.421875 C 5.078125 -1.785156 4.988281 -2.109375 4.8125 -2.390625 C 4.632812 -2.671875 4.390625 -2.890625 4.078125 -3.046875 C 3.773438 -3.203125 3.425781 -3.28125 3.03125 -3.28125 C 2.625 -3.28125 2.257812 -3.195312 1.9375 -3.03125 C 1.625 -2.863281 1.375 -2.632812 1.1875 -2.34375 C 1.007812 -2.0625 0.921875 -1.734375 0.921875 -1.359375 C 0.921875 -0.992188 1.003906 -0.671875 1.171875 -0.390625 C 1.335938 -0.117188 1.566406 0.09375 1.859375 0.25 C 2.148438 0.40625 2.488281 0.484375 2.875 0.484375 C 3.226562 0.484375 3.550781 0.421875 3.84375 0.296875 L 3.84375 0.953125 C 3.46875 1.085938 3.113281 1.15625 2.78125 1.15625 C 2.414062 1.15625 2.078125 1.09375 1.765625 0.96875 C 1.453125 0.84375 1.179688 0.664062 0.953125 0.4375 C 0.722656 0.21875 0.546875 -0.0390625 0.421875 -0.34375 C 0.296875 -0.65625 0.234375 -0.992188 0.234375 -1.359375 C 0.234375 -1.785156 0.304688 -2.160156 0.453125 -2.484375 C 0.609375 -2.804688 0.816406 -3.078125 1.078125 -3.296875 C 1.347656 -3.515625 1.644531 -3.675781 1.96875 -3.78125 C 2.300781 -3.894531 2.648438 -3.953125 3.015625 -3.953125 Z M 2.9375 -0.734375 C 3.113281 -0.734375 3.257812 -0.789062 3.375 -0.90625 C 3.5 -1.019531 3.5625 -1.171875 3.5625 -1.359375 C 3.5625 -1.546875 3.5 -1.695312 3.375 -1.8125 C 3.257812 -1.925781 3.113281 -1.984375 2.9375 -1.984375 C 2.75 -1.984375 2.59375 -1.925781 2.46875 -1.8125 C 2.351562 -1.695312 2.296875 -1.546875 2.296875 -1.359375 C 2.296875 -1.179688 2.351562 -1.03125 2.46875 -0.90625 C 2.59375 -0.789062 2.75 -0.734375 2.9375 -0.734375 Z M 2.9375 -0.734375 "/></g></g></g><g fill="#ffffff" fill-opacity="1"><g transform="translate(112.907925, 32.612608)"><g><path d="M 3.046875 -3.25 L 3.625 -3.25 L 3.625 -0.375 C 3.625 -0.0390625 3.554688 0.25 3.421875 0.5 C 3.285156 0.75 3.09375 0.9375 2.84375 1.0625 C 2.59375 1.195312 2.296875 1.265625 1.953125 1.265625 C 1.515625 1.265625 1.144531 1.15625 0.84375 0.9375 C 0.550781 0.726562 0.367188 0.441406 0.296875 0.078125 L 1.171875 0.078125 C 1.222656 0.222656 1.320312 0.332031 1.46875 0.40625 C 1.625 0.476562 1.78125 0.515625 1.9375 0.515625 C 2.164062 0.515625 2.359375 0.445312 2.515625 0.3125 C 2.671875 0.175781 2.75 -0.0078125 2.75 -0.25 L 2.75 -0.375 C 2.625 -0.28125 2.484375 -0.207031 2.328125 -0.15625 C 2.171875 -0.101562 2.003906 -0.078125 1.828125 -0.078125 C 1.523438 -0.078125 1.25 -0.148438 1 -0.296875 C 0.757812 -0.441406 0.566406 -0.632812 0.421875 -0.875 C 0.285156 -1.125 0.21875 -1.40625 0.21875 -1.71875 C 0.21875 -2.019531 0.285156 -2.289062 0.421875 -2.53125 C 0.566406 -2.78125 0.757812 -2.976562 1 -3.125 C 1.25 -3.269531 1.523438 -3.34375 1.828125 -3.34375 C 2.035156 -3.34375 2.234375 -3.304688 2.421875 -3.234375 C 2.609375 -3.160156 2.769531 -3.0625 2.90625 -2.9375 Z M 1.9375 -0.875 C 2.175781 -0.875 2.375 -0.953125 2.53125 -1.109375 C 2.6875 -1.265625 2.765625 -1.46875 2.765625 -1.71875 C 2.765625 -1.957031 2.6875 -2.15625 2.53125 -2.3125 C 2.375 -2.46875 2.175781 -2.546875 1.9375 -2.546875 C 1.695312 -2.546875 1.5 -2.46875 1.34375 -2.3125 C 1.1875 -2.15625 1.109375 -1.957031 1.109375 -1.71875 C 1.109375 -1.46875 1.179688 -1.265625 1.328125 -1.109375 C 1.484375 -0.953125 1.6875 -0.875 1.9375 -0.875 Z M 1.9375 -0.875 "/></g></g></g><g fill="#ffffff" fill-opacity="1"><g transform="translate(116.959291, 32.612608)"><g><path d="M 4.125 -3.328125 C 4.351562 -3.328125 4.550781 -3.269531 4.71875 -3.15625 C 4.894531 -3.050781 5.03125 -2.898438 5.125 -2.703125 C 5.226562 -2.515625 5.28125 -2.296875 5.28125 -2.046875 L 5.28125 0 L 4.390625 0 L 4.390625 -1.90625 C 4.390625 -2.34375 4.226562 -2.5625 3.90625 -2.5625 C 3.707031 -2.5625 3.550781 -2.488281 3.4375 -2.34375 C 3.332031 -2.207031 3.28125 -2.015625 3.28125 -1.765625 L 3.28125 0 L 2.421875 0 L 2.421875 -1.90625 C 2.421875 -2.34375 2.257812 -2.5625 1.9375 -2.5625 C 1.738281 -2.5625 1.582031 -2.488281 1.46875 -2.34375 C 1.351562 -2.207031 1.296875 -2.015625 1.296875 -1.765625 L 1.296875 0 L 0.421875 0 L 0.421875 -3.25 L 1.03125 -3.25 L 1.203125 -2.859375 C 1.316406 -2.992188 1.457031 -3.101562 1.625 -3.1875 C 1.800781 -3.28125 1.984375 -3.328125 2.171875 -3.328125 C 2.378906 -3.328125 2.566406 -3.28125 2.734375 -3.1875 C 2.898438 -3.101562 3.03125 -2.976562 3.125 -2.8125 C 3.226562 -2.96875 3.367188 -3.09375 3.546875 -3.1875 C 3.722656 -3.28125 3.914062 -3.328125 4.125 -3.328125 Z M 4.125 -3.328125 "/></g></g></g><g fill="#ffffff" fill-opacity="1"><g transform="translate(122.622742, 32.612608)"><g><path d="M 3.078125 -3.265625 L 3.734375 -3.265625 L 3.734375 0 L 3.046875 0 L 2.96875 -0.296875 C 2.832031 -0.171875 2.671875 -0.0703125 2.484375 0 C 2.304688 0.0625 2.117188 0.09375 1.921875 0.09375 C 1.585938 0.09375 1.289062 0.0195312 1.03125 -0.125 C 0.78125 -0.28125 0.582031 -0.488281 0.4375 -0.75 C 0.289062 -1.007812 0.21875 -1.304688 0.21875 -1.640625 C 0.21875 -1.960938 0.289062 -2.253906 0.4375 -2.515625 C 0.582031 -2.773438 0.78125 -2.976562 1.03125 -3.125 C 1.289062 -3.269531 1.585938 -3.34375 1.921875 -3.34375 C 2.128906 -3.34375 2.320312 -3.304688 2.5 -3.234375 C 2.6875 -3.171875 2.847656 -3.078125 2.984375 -2.953125 Z M 1.984375 -0.734375 C 2.160156 -0.734375 2.3125 -0.769531 2.4375 -0.84375 C 2.570312 -0.925781 2.675781 -1.035156 2.75 -1.171875 C 2.832031 -1.304688 2.875 -1.460938 2.875 -1.640625 C 2.875 -1.804688 2.832031 -1.957031 2.75 -2.09375 C 2.675781 -2.226562 2.570312 -2.332031 2.4375 -2.40625 C 2.3125 -2.488281 2.160156 -2.53125 1.984375 -2.53125 C 1.816406 -2.53125 1.664062 -2.488281 1.53125 -2.40625 C 1.394531 -2.332031 1.289062 -2.226562 1.21875 -2.09375 C 1.144531 -1.957031 1.109375 -1.804688 1.109375 -1.640625 C 1.109375 -1.460938 1.144531 -1.304688 1.21875 -1.171875 C 1.289062 -1.046875 1.394531 -0.941406 1.53125 -0.859375 C 1.664062 -0.773438 1.816406 -0.734375 1.984375 -0.734375 Z M 1.984375 -0.734375 "/></g></g></g><g fill="#ffffff" fill-opacity="1"><g transform="translate(126.788823, 32.612608)"><g><path d="M 0.421875 -3.6875 L 0.421875 -4.515625 L 1.296875 -4.515625 L 1.296875 -3.6875 Z M 0.421875 0 L 0.421875 -3.25 L 1.296875 -3.25 L 1.296875 0 Z M 0.421875 0 "/></g></g></g><g fill="#ffffff" fill-opacity="1"><g transform="translate(128.515633, 32.612608)"><g><path d="M 0.421875 0 L 0.421875 -4.4375 L 1.296875 -4.4375 L 1.296875 0 Z M 0.421875 0 "/></g></g></g><g fill="#ffffff" fill-opacity="1"><g transform="translate(130.242442, 32.612608)"><g><path d="M 0.359375 0 L 0.359375 -0.9375 L 1.296875 -0.9375 L 1.296875 0 Z M 0.359375 0 "/></g></g></g><g fill="#ffffff" fill-opacity="1"><g transform="translate(131.896799, 32.612608)"><g><path d="M 1.9375 0.09375 C 1.613281 0.09375 1.316406 0.015625 1.046875 -0.140625 C 0.785156 -0.296875 0.582031 -0.503906 0.4375 -0.765625 C 0.289062 -1.023438 0.21875 -1.316406 0.21875 -1.640625 C 0.21875 -1.960938 0.289062 -2.253906 0.4375 -2.515625 C 0.582031 -2.773438 0.785156 -2.976562 1.046875 -3.125 C 1.316406 -3.269531 1.613281 -3.34375 1.9375 -3.34375 C 2.21875 -3.34375 2.472656 -3.285156 2.703125 -3.171875 C 2.941406 -3.066406 3.132812 -2.910156 3.28125 -2.703125 C 3.4375 -2.503906 3.539062 -2.273438 3.59375 -2.015625 L 2.71875 -2.015625 C 2.65625 -2.171875 2.550781 -2.289062 2.40625 -2.375 C 2.269531 -2.46875 2.113281 -2.515625 1.9375 -2.515625 C 1.78125 -2.515625 1.640625 -2.472656 1.515625 -2.390625 C 1.390625 -2.316406 1.289062 -2.210938 1.21875 -2.078125 C 1.144531 -1.953125 1.109375 -1.804688 1.109375 -1.640625 C 1.109375 -1.460938 1.144531 -1.304688 1.21875 -1.171875 C 1.289062 -1.046875 1.390625 -0.941406 1.515625 -0.859375 C 1.640625 -0.773438 1.78125 -0.734375 1.9375 -0.734375 C 2.113281 -0.734375 2.269531 -0.78125 2.40625 -0.875 C 2.539062 -0.96875 2.644531 -1.101562 2.71875 -1.28125 L 3.609375 -1.28125 C 3.554688 -1.007812 3.453125 -0.769531 3.296875 -0.5625 C 3.140625 -0.351562 2.941406 -0.191406 2.703125 -0.078125 C 2.472656 0.0351562 2.21875 0.09375 1.9375 0.09375 Z M 1.9375 0.09375 "/></g></g></g><g fill="#ffffff" fill-opacity="1"><g transform="translate(135.670419, 32.612608)"><g><path d="M 1.96875 0.09375 C 1.632812 0.09375 1.332031 0.0195312 1.0625 -0.125 C 0.800781 -0.28125 0.59375 -0.488281 0.4375 -0.75 C 0.289062 -1.007812 0.21875 -1.300781 0.21875 -1.625 C 0.21875 -1.957031 0.289062 -2.253906 0.4375 -2.515625 C 0.59375 -2.773438 0.800781 -2.976562 1.0625 -3.125 C 1.332031 -3.269531 1.632812 -3.34375 1.96875 -3.34375 C 2.300781 -3.34375 2.597656 -3.269531 2.859375 -3.125 C 3.128906 -2.976562 3.34375 -2.773438 3.5 -2.515625 C 3.65625 -2.253906 3.734375 -1.957031 3.734375 -1.625 C 3.734375 -1.300781 3.65625 -1.007812 3.5 -0.75 C 3.34375 -0.488281 3.128906 -0.28125 2.859375 -0.125 C 2.597656 0.0195312 2.300781 0.09375 1.96875 0.09375 Z M 1.96875 -0.734375 C 2.226562 -0.734375 2.4375 -0.816406 2.59375 -0.984375 C 2.75 -1.148438 2.828125 -1.363281 2.828125 -1.625 C 2.828125 -1.894531 2.75 -2.109375 2.59375 -2.265625 C 2.4375 -2.429688 2.226562 -2.515625 1.96875 -2.515625 C 1.71875 -2.515625 1.507812 -2.429688 1.34375 -2.265625 C 1.1875 -2.109375 1.109375 -1.894531 1.109375 -1.625 C 1.109375 -1.363281 1.1875 -1.148438 1.34375 -0.984375 C 1.507812 -0.816406 1.71875 -0.734375 1.96875 -0.734375 Z M 1.96875 -0.734375 "/></g></g></g><g fill="#ffffff" fill-opacity="1"><g transform="translate(139.613104, 32.612608)"><g><path d="M 4.125 -3.328125 C 4.351562 -3.328125 4.550781 -3.269531 4.71875 -3.15625 C 4.894531 -3.050781 5.03125 -2.898438 5.125 -2.703125 C 5.226562 -2.515625 5.28125 -2.296875 5.28125 -2.046875 L 5.28125 0 L 4.390625 0 L 4.390625 -1.90625 C 4.390625 -2.34375 4.226562 -2.5625 3.90625 -2.5625 C 3.707031 -2.5625 3.550781 -2.488281 3.4375 -2.34375 C 3.332031 -2.207031 3.28125 -2.015625 3.28125 -1.765625 L 3.28125 0 L 2.421875 0 L 2.421875 -1.90625 C 2.421875 -2.34375 2.257812 -2.5625 1.9375 -2.5625 C 1.738281 -2.5625 1.582031 -2.488281 1.46875 -2.34375 C 1.351562 -2.207031 1.296875 -2.015625 1.296875 -1.765625 L 1.296875 0 L 0.421875 0 L 0.421875 -3.25 L 1.03125 -3.25 L 1.203125 -2.859375 C 1.316406 -2.992188 1.457031 -3.101562 1.625 -3.1875 C 1.800781 -3.28125 1.984375 -3.328125 2.171875 -3.328125 C 2.378906 -3.328125 2.566406 -3.28125 2.734375 -3.1875 C 2.898438 -3.101562 3.03125 -2.976562 3.125 -2.8125 C 3.226562 -2.96875 3.367188 -3.09375 3.546875 -3.1875 C 3.722656 -3.28125 3.914062 -3.328125 4.125 -3.328125 Z M 4.125 -3.328125 "/></g></g></g></svg>