<svg xmlns="http://www.w3.org/2000/svg" xmlns:xlink="http://www.w3.org/1999/xlink" width="200" zoomAndPan="magnify" viewBox="0 0 150 52.499999" height="70" preserveAspectRatio="xMidYMid meet" version="1.0"><defs><g/><clipPath id="79e488a66f"><path d="M 0.707031 0 L 52.710938 0 L 52.710938 52 L 0.707031 52 Z M 0.707031 0 " clip-rule="nonzero"/></clipPath></defs><g clip-path="url(#79e488a66f)"><path fill="#779ff7" d="M 12.78125 33.28125 C 11.128906 35.007812 8.558594 32.460938 10.214844 30.734375 C 11.867188 29.007812 14.425781 31.597656 12.78125 33.28125 Z M 50.226562 30.941406 C 49.5 34.460938 48.078125 37.667969 45.953125 40.5625 C 46.101562 40.738281 46.21875 40.9375 46.296875 41.152344 C 46.378906 41.371094 46.417969 41.597656 46.417969 41.828125 C 46.417969 42.058594 46.375 42.285156 46.292969 42.5 C 46.210938 42.71875 46.097656 42.914062 45.945312 43.089844 C 45.792969 43.265625 45.613281 43.40625 45.410156 43.519531 C 45.207031 43.628906 44.992188 43.703125 44.761719 43.738281 C 44.53125 43.769531 44.304688 43.761719 44.078125 43.714844 C 43.851562 43.664062 43.640625 43.578125 43.445312 43.457031 C 41.628906 45.257812 39.574219 46.734375 37.289062 47.886719 C 37.371094 48.207031 37.394531 48.535156 37.359375 48.867188 C 37.320312 49.199219 37.226562 49.511719 37.070312 49.804688 C 36.917969 50.101562 36.714844 50.359375 36.460938 50.578125 C 36.210938 50.796875 35.929688 50.964844 35.617188 51.078125 C 35.304688 51.191406 34.980469 51.246094 34.648438 51.238281 C 34.3125 51.230469 33.992188 51.164062 33.683594 51.039062 C 33.375 50.910156 33.101562 50.734375 32.859375 50.503906 C 32.617188 50.273438 32.425781 50.007812 32.285156 49.707031 C 30.5625 50.140625 28.808594 50.371094 27.03125 50.402344 C 26.820312 50.90625 26.484375 51.300781 26.015625 51.585938 C 25.550781 51.867188 25.046875 51.988281 24.5 51.941406 C 23.957031 51.898438 23.476562 51.695312 23.066406 51.339844 C 22.652344 50.984375 22.382812 50.539062 22.257812 50.007812 C 19.828125 49.550781 17.523438 48.742188 15.339844 47.585938 C 15.117188 47.761719 14.875 47.902344 14.605469 48.003906 C 14.339844 48.105469 14.0625 48.160156 13.777344 48.171875 C 13.492188 48.183594 13.210938 48.152344 12.9375 48.074219 C 12.660156 47.996094 12.40625 47.875 12.167969 47.714844 C 11.933594 47.558594 11.726562 47.363281 11.550781 47.136719 C 11.378906 46.910156 11.242188 46.664062 11.144531 46.394531 C 11.050781 46.125 11 45.847656 10.992188 45.5625 C 10.988281 45.277344 11.023438 44.996094 11.109375 44.722656 C 8.457031 42.460938 6.378906 39.761719 4.867188 36.621094 C 4.578125 36.664062 4.289062 36.660156 4 36.605469 C 3.710938 36.546875 3.441406 36.445312 3.191406 36.292969 C 2.9375 36.144531 2.71875 35.957031 2.53125 35.730469 C 2.34375 35.503906 2.199219 35.253906 2.101562 34.976562 C 2 34.699219 1.949219 34.417969 1.949219 34.121094 C 1.945312 33.828125 1.996094 33.542969 2.09375 33.265625 C 2.191406 32.992188 2.332031 32.738281 2.519531 32.511719 C 2.703125 32.28125 2.921875 32.09375 3.171875 31.941406 C 2.5 29.304688 2.269531 26.632812 2.476562 23.921875 C -0.332031 23.039062 0.394531 18.617188 3.410156 18.792969 C 4.09375 16.4375 5.105469 14.230469 6.449219 12.175781 C 7.792969 10.121094 9.40625 8.308594 11.296875 6.738281 C 9.714844 3.621094 13.71875 0.5 16.277344 2.996094 C 16.398438 3.121094 16.507812 3.25 16.609375 3.390625 C 18.566406 2.476562 20.613281 1.84375 22.746094 1.488281 C 24.875 1.136719 27.015625 1.078125 29.164062 1.308594 C 29.257812 1.089844 29.386719 0.894531 29.546875 0.71875 C 29.707031 0.542969 29.894531 0.398438 30.105469 0.285156 C 30.316406 0.175781 30.539062 0.101562 30.777344 0.0664062 C 31.011719 0.03125 31.25 0.0390625 31.480469 0.0859375 C 31.714844 0.132812 31.9375 0.214844 32.140625 0.335938 C 32.347656 0.460938 32.527344 0.613281 32.679688 0.796875 C 32.832031 0.980469 32.949219 1.183594 33.03125 1.40625 C 33.113281 1.632812 33.15625 1.863281 33.160156 2.101562 C 34.328125 2.429688 35.464844 2.851562 36.570312 3.359375 C 36.8125 3.105469 37.109375 2.953125 37.457031 2.898438 C 37.804688 2.847656 38.132812 2.90625 38.441406 3.074219 C 38.75 3.246094 38.972656 3.496094 39.113281 3.816406 C 39.253906 4.140625 39.277344 4.472656 39.191406 4.816406 C 39.832031 5.214844 40.449219 5.644531 41.042969 6.105469 C 42.492188 7.207031 43.804688 8.453125 44.972656 9.851562 C 45.265625 9.746094 45.5625 9.738281 45.859375 9.828125 C 46.160156 9.917969 46.402344 10.089844 46.589844 10.335938 C 46.773438 10.585938 46.871094 10.867188 46.875 11.175781 C 46.878906 11.488281 46.789062 11.769531 46.605469 12.023438 C 47.441406 13.273438 48.152344 14.585938 48.75 15.964844 C 48.976562 15.9375 49.203125 15.949219 49.425781 16 C 49.648438 16.050781 49.855469 16.140625 50.050781 16.261719 C 50.242188 16.382812 50.410156 16.535156 50.550781 16.714844 C 50.695312 16.894531 50.800781 17.09375 50.875 17.3125 C 50.949219 17.527344 50.980469 17.75 50.980469 17.980469 C 50.976562 18.207031 50.933594 18.429688 50.855469 18.644531 C 50.773438 18.859375 50.660156 19.054688 50.511719 19.230469 C 50.367188 19.40625 50.195312 19.550781 49.996094 19.667969 C 50.515625 21.714844 50.773438 23.796875 50.765625 25.910156 C 51.058594 25.996094 51.324219 26.125 51.566406 26.304688 C 51.8125 26.484375 52.015625 26.699219 52.1875 26.949219 C 52.355469 27.199219 52.476562 27.472656 52.546875 27.765625 C 52.621094 28.058594 52.640625 28.355469 52.609375 28.65625 C 52.582031 28.957031 52.5 29.246094 52.367188 29.515625 C 52.238281 29.789062 52.0625 30.03125 51.847656 30.242188 C 51.632812 30.453125 51.386719 30.621094 51.113281 30.75 C 50.835938 30.875 50.546875 30.949219 50.246094 30.972656 Z M 44.195312 11.742188 C 43.238281 11.855469 42.28125 12.035156 41.332031 12.230469 C 41.375 12.6875 41.324219 13.128906 41.175781 13.5625 C 43.363281 14.429688 45.445312 15.503906 47.417969 16.789062 L 47.929688 16.277344 C 47.617188 15.527344 47.273438 14.796875 46.886719 14.082031 C 46.597656 13.550781 46.273438 13.042969 45.941406 12.523438 C 45.777344 12.578125 45.609375 12.601562 45.433594 12.59375 C 45.261719 12.585938 45.09375 12.546875 44.933594 12.476562 C 44.777344 12.40625 44.632812 12.3125 44.511719 12.191406 C 44.386719 12.070312 44.289062 11.929688 44.214844 11.773438 Z M 24.628906 22.757812 C 27.5 23.835938 30.183594 25.265625 32.679688 27.042969 C 32.78125 26.949219 32.894531 26.871094 33.011719 26.804688 C 32.035156 24.019531 30.722656 21.402344 29.082031 18.949219 C 28.816406 19.050781 28.542969 19.082031 28.261719 19.042969 C 27.980469 19 27.726562 18.894531 27.5 18.722656 C 26.378906 19.597656 25.308594 20.53125 24.296875 21.53125 C 24.550781 21.898438 24.660156 22.308594 24.628906 22.757812 Z M 35.195312 11.816406 C 35.25 11.589844 35.324219 11.371094 35.425781 11.160156 C 32.746094 9.421875 29.878906 8.082031 26.824219 7.144531 C 26.179688 8.03125 25.578125 8.945312 25.015625 9.871094 C 25.476562 10.199219 25.78125 10.632812 25.929688 11.179688 C 29.046875 10.984375 32.136719 11.195312 35.195312 11.816406 Z M 35.101562 12.699219 C 32.105469 12.082031 29.078125 11.871094 26.023438 12.066406 C 26.007812 12.488281 25.890625 12.878906 25.667969 13.242188 C 26.480469 14.074219 27.242188 14.925781 27.949219 15.808594 C 28.242188 15.707031 28.539062 15.6875 28.839844 15.757812 C 29.144531 15.828125 29.402344 15.972656 29.621094 16.195312 C 31.40625 15.054688 33.273438 14.082031 35.226562 13.273438 C 35.171875 13.085938 35.128906 12.894531 35.101562 12.699219 Z M 21.28125 12.699219 C 18.394531 13.289062 15.628906 14.234375 12.984375 15.539062 C 10.339844 16.839844 7.90625 18.457031 5.679688 20.386719 C 5.792969 20.65625 5.855469 20.9375 5.867188 21.226562 C 10.945312 20.261719 15.992188 20.402344 21.011719 21.65625 C 21.09375 21.492188 21.195312 21.347656 21.320312 21.21875 C 21.472656 21.058594 21.648438 20.929688 21.84375 20.832031 C 22.039062 20.730469 22.246094 20.667969 22.464844 20.640625 C 22.683594 20.617188 22.902344 20.628906 23.113281 20.675781 C 23.328125 20.726562 23.527344 20.808594 23.714844 20.925781 C 24.738281 19.910156 25.820312 18.957031 26.960938 18.066406 C 26.832031 17.777344 26.789062 17.476562 26.832031 17.164062 C 26.875 16.851562 27 16.574219 27.199219 16.328125 C 26.523438 15.488281 25.804688 14.675781 25.046875 13.886719 C 24.890625 13.996094 24.722656 14.089844 24.546875 14.164062 C 24.371094 14.234375 24.1875 14.289062 23.996094 14.316406 C 23.808594 14.347656 23.617188 14.355469 23.425781 14.34375 C 23.234375 14.328125 23.050781 14.292969 22.867188 14.234375 C 22.683594 14.175781 22.511719 14.101562 22.34375 14 C 22.179688 13.902344 22.03125 13.789062 21.890625 13.65625 C 21.753906 13.519531 21.632812 13.375 21.53125 13.210938 C 21.425781 13.050781 21.34375 12.878906 21.28125 12.699219 Z M 33.84375 26.492188 C 34.15625 26.457031 34.457031 26.492188 34.75 26.59375 C 36.328125 23.128906 37.324219 19.5 37.746094 15.714844 C 37.265625 15.632812 36.828125 15.449219 36.429688 15.164062 C 36.035156 14.878906 35.722656 14.523438 35.488281 14.09375 C 33.574219 14.882812 31.746094 15.839844 30.007812 16.964844 C 30.128906 17.460938 30.046875 17.921875 29.757812 18.347656 C 31.46875 20.886719 32.832031 23.601562 33.84375 26.492188 Z M 35.507812 27.042969 C 35.714844 27.230469 35.871094 27.453125 35.988281 27.707031 C 37.601562 26.996094 39.152344 26.164062 40.636719 25.210938 C 40.460938 21.957031 39.855469 18.785156 38.816406 15.695312 L 38.628906 15.695312 C 38.195312 19.644531 37.152344 23.425781 35.507812 27.042969 Z M 35.988281 29.621094 C 37.332031 30.8125 38.582031 32.097656 39.730469 33.480469 C 39.871094 33.421875 40.015625 33.386719 40.167969 33.375 C 40.574219 31.011719 40.742188 28.628906 40.679688 26.230469 C 39.246094 27.121094 37.753906 27.902344 36.207031 28.570312 C 36.222656 28.941406 36.148438 29.289062 35.988281 29.621094 Z M 41.480469 24.671875 C 42.949219 23.664062 44.335938 22.550781 45.640625 21.332031 C 44.097656 19.003906 42.308594 16.886719 40.273438 14.976562 C 40.070312 15.152344 39.851562 15.300781 39.617188 15.425781 C 40.632812 18.425781 41.253906 21.507812 41.480469 24.671875 Z M 46.292969 20.707031 C 46.761719 20.261719 47.210938 19.792969 47.648438 19.304688 C 47.222656 18.84375 47.042969 18.304688 47.105469 17.679688 C 45.195312 16.425781 43.183594 15.367188 41.0625 14.507812 C 43.035156 16.382812 44.777344 18.449219 46.292969 20.707031 Z M 38.390625 5.867188 C 38.582031 7.046875 38.707031 8.230469 38.773438 9.421875 C 39.316406 9.535156 39.800781 9.769531 40.21875 10.125 C 40.640625 10.484375 40.949219 10.921875 41.144531 11.441406 C 42.132812 11.234375 43.121094 11.054688 44.109375 10.929688 C 44.148438 10.761719 44.210938 10.601562 44.296875 10.453125 C 42.714844 8.539062 40.871094 6.917969 38.773438 5.585938 C 38.664062 5.699219 38.535156 5.792969 38.390625 5.867188 Z M 32.773438 3.308594 C 34.441406 5.253906 35.886719 7.351562 37.109375 9.601562 C 37.363281 9.476562 37.632812 9.398438 37.910156 9.359375 C 37.839844 8.226562 37.714844 7.105469 37.539062 5.96875 C 37.328125 5.941406 37.132812 5.871094 36.949219 5.765625 C 36.765625 5.65625 36.609375 5.515625 36.484375 5.347656 C 36.359375 5.175781 36.269531 4.988281 36.214844 4.785156 C 36.164062 4.578125 36.152344 4.371094 36.183594 4.160156 C 35.136719 3.6875 34.058594 3.300781 32.949219 2.996094 C 32.898438 3.105469 32.839844 3.207031 32.773438 3.308594 Z M 27.394531 6.429688 C 30.414062 7.371094 33.253906 8.695312 35.914062 10.402344 L 36.351562 9.996094 C 35.179688 7.808594 33.792969 5.765625 32.191406 3.871094 C 31.804688 4.089844 31.390625 4.175781 30.949219 4.128906 C 30.507812 4.082031 30.121094 3.914062 29.789062 3.621094 Z M 17.027344 4.160156 C 17.089844 4.339844 17.136719 4.523438 17.171875 4.710938 C 20.355469 4.753906 23.476562 5.21875 26.53125 6.105469 L 29.246094 2.921875 C 29.140625 2.695312 29.078125 2.457031 29.058594 2.203125 C 27.003906 1.984375 24.953125 2.039062 22.910156 2.371094 C 20.871094 2.703125 18.90625 3.300781 17.027344 4.160156 Z M 16.914062 6.625 C 18.699219 7.59375 20.390625 8.703125 21.988281 9.953125 C 22.296875 9.6875 22.648438 9.511719 23.042969 9.425781 C 23.441406 9.34375 23.835938 9.359375 24.222656 9.476562 C 24.753906 8.582031 25.328125 7.71875 25.941406 6.863281 C 23.078125 6.074219 20.164062 5.660156 17.191406 5.617188 C 17.160156 5.976562 17.070312 6.320312 16.914062 6.644531 Z M 4.285156 18.980469 L 5.191406 19.636719 C 7.472656 17.675781 9.96875 16.035156 12.667969 14.714844 C 15.371094 13.390625 18.195312 12.425781 21.144531 11.824219 C 21.152344 11.414062 21.253906 11.023438 21.445312 10.660156 C 19.875 9.421875 18.203125 8.335938 16.433594 7.394531 C 16.289062 7.558594 16.132812 7.707031 15.957031 7.835938 C 15.785156 7.96875 15.601562 8.078125 15.402344 8.171875 C 15.207031 8.261719 15 8.332031 14.789062 8.382812 C 14.578125 8.433594 14.363281 8.460938 14.144531 8.464844 C 13.929688 8.46875 13.710938 8.449219 13.5 8.410156 C 13.285156 8.367188 13.078125 8.304688 12.878906 8.222656 C 12.675781 8.136719 12.488281 8.035156 12.308594 7.910156 C 12.128906 7.789062 11.964844 7.648438 11.816406 7.488281 C 10.035156 9.003906 8.503906 10.738281 7.222656 12.691406 C 5.941406 14.648438 4.960938 16.746094 4.285156 18.980469 Z M 21.136719 23.734375 C 20.871094 23.367188 20.75 22.957031 20.761719 22.507812 C 15.78125 21.269531 10.773438 21.148438 5.742188 22.144531 C 5.582031 22.679688 5.277344 23.117188 4.835938 23.457031 C 4.394531 23.800781 3.898438 23.984375 3.339844 24.003906 C 3.136719 26.589844 3.351562 29.136719 3.984375 31.648438 C 4.273438 31.609375 4.558594 31.617188 4.84375 31.675781 C 5.128906 31.730469 5.398438 31.835938 5.648438 31.984375 C 5.898438 32.136719 6.117188 32.324219 6.300781 32.546875 C 6.488281 32.773438 6.628906 33.023438 6.730469 33.296875 C 6.828125 33.570312 6.878906 33.851562 6.882812 34.144531 C 6.882812 34.4375 6.835938 34.71875 6.742188 34.996094 C 6.644531 35.269531 6.507812 35.519531 6.324219 35.75 C 6.140625 35.976562 5.925781 36.167969 5.679688 36.320312 C 7.09375 39.253906 9.03125 41.789062 11.492188 43.921875 C 11.894531 43.371094 12.429688 43.027344 13.09375 42.882812 C 13.484375 39.371094 14.359375 35.984375 15.730469 32.726562 C 17.097656 29.46875 18.898438 26.472656 21.136719 23.734375 Z M 16.140625 44.628906 C 19.59375 43.1875 22.742188 41.246094 25.582031 38.8125 C 28.425781 36.378906 30.824219 33.570312 32.785156 30.382812 C 32.589844 30.222656 32.425781 30.039062 32.296875 29.828125 C 32.164062 29.617188 32.070312 29.386719 32.015625 29.144531 C 31.960938 28.902344 31.949219 28.65625 31.976562 28.40625 C 32.003906 28.160156 32.074219 27.921875 32.179688 27.699219 C 29.738281 25.996094 27.121094 24.628906 24.328125 23.601562 C 24.203125 23.804688 24.042969 23.980469 23.851562 24.125 C 23.660156 24.269531 23.449219 24.375 23.21875 24.441406 C 22.988281 24.507812 22.75 24.527344 22.511719 24.503906 C 22.273438 24.480469 22.046875 24.414062 21.832031 24.308594 C 19.660156 26.957031 17.90625 29.859375 16.566406 33.015625 C 15.230469 36.167969 14.363281 39.449219 13.96875 42.851562 C 14.46875 42.925781 14.910156 43.121094 15.300781 43.441406 C 15.691406 43.761719 15.972656 44.15625 16.140625 44.628906 Z M 34.210938 30.839844 C 33.980469 30.847656 33.753906 30.828125 33.53125 30.777344 C 31.515625 34.085938 29.035156 37 26.09375 39.519531 C 23.152344 42.039062 19.890625 44.042969 16.308594 45.523438 C 16.320312 46.03125 16.195312 46.503906 15.933594 46.941406 C 17.910156 47.964844 19.992188 48.695312 22.175781 49.132812 C 22.214844 48.8125 22.3125 48.507812 22.46875 48.222656 C 22.625 47.9375 22.832031 47.691406 23.082031 47.484375 C 23.335938 47.28125 23.617188 47.128906 23.929688 47.03125 C 24.238281 46.9375 24.558594 46.902344 24.882812 46.929688 C 25.207031 46.953125 25.515625 47.042969 25.804688 47.1875 C 26.097656 47.335938 26.347656 47.53125 26.5625 47.773438 C 26.777344 48.019531 26.941406 48.292969 27.046875 48.601562 C 27.15625 48.910156 27.203125 49.226562 27.1875 49.550781 C 28.832031 49.503906 30.449219 49.28125 32.046875 48.882812 C 32.003906 48.523438 32.03125 48.171875 32.128906 47.824219 C 32.226562 47.476562 32.386719 47.160156 32.609375 46.875 C 32.832031 46.589844 33.101562 46.359375 33.417969 46.179688 C 33.730469 46.003906 34.070312 45.890625 34.425781 45.847656 C 35.410156 40.828125 35.335938 35.828125 34.210938 30.839844 Z M 35.457031 45.972656 C 37.351562 42.890625 38.738281 39.597656 39.617188 36.089844 C 39.441406 35.992188 39.292969 35.859375 39.167969 35.699219 C 39.046875 35.539062 38.957031 35.359375 38.910156 35.164062 C 38.859375 34.96875 38.847656 34.769531 38.878906 34.570312 C 38.910156 34.371094 38.980469 34.183594 39.085938 34.011719 C 37.976562 32.679688 36.773438 31.4375 35.476562 30.289062 C 35.347656 30.394531 35.207031 30.488281 35.0625 30.570312 C 36.222656 35.660156 36.308594 40.769531 35.320312 45.898438 C 35.371094 45.914062 35.417969 45.9375 35.457031 45.972656 Z M 43.277344 40.375 C 42.523438 38.929688 41.671875 37.542969 40.71875 36.214844 L 40.460938 36.277344 C 39.578125 39.855469 38.191406 43.226562 36.300781 46.386719 L 36.976562 47.117188 C 39.164062 46 41.136719 44.578125 42.882812 42.851562 C 42.769531 42.652344 42.691406 42.441406 42.652344 42.21875 C 42.609375 41.996094 42.609375 41.769531 42.644531 41.542969 C 42.679688 41.320312 42.753906 41.105469 42.863281 40.90625 C 42.96875 40.707031 43.109375 40.527344 43.277344 40.375 Z M 49.351562 30.816406 C 49.152344 30.734375 48.964844 30.628906 48.789062 30.496094 C 48.613281 30.367188 48.460938 30.214844 48.320312 30.046875 C 48.183594 29.875 48.070312 29.691406 47.980469 29.496094 C 47.890625 29.296875 47.824219 29.089844 47.785156 28.875 C 47.742188 28.664062 47.730469 28.445312 47.746094 28.230469 C 47.757812 28.011719 47.800781 27.800781 47.867188 27.589844 C 47.933594 27.382812 48.027344 27.1875 48.140625 27.003906 C 48.257812 26.820312 48.394531 26.652344 48.550781 26.5 C 47.875 24.96875 47.089844 23.496094 46.191406 22.082031 C 44.753906 23.410156 43.21875 24.613281 41.582031 25.691406 C 41.695312 28.34375 41.523438 30.976562 41.074219 33.59375 C 41.242188 33.703125 41.378906 33.839844 41.492188 34.007812 C 41.601562 34.171875 41.675781 34.355469 41.714844 34.550781 C 41.753906 34.746094 41.75 34.941406 41.707031 35.136719 C 41.664062 35.332031 41.585938 35.511719 41.46875 35.675781 C 42.453125 37.046875 43.332031 38.484375 44.109375 39.980469 C 44.507812 39.882812 44.890625 39.914062 45.265625 40.074219 C 47.28125 37.277344 48.644531 34.191406 49.351562 30.816406 Z M 49.882812 25.835938 C 49.882812 23.835938 49.640625 21.867188 49.15625 19.929688 C 48.890625 19.945312 48.632812 19.902344 48.386719 19.804688 C 47.867188 20.386719 47.34375 20.9375 46.785156 21.46875 C 47.714844 22.917969 48.53125 24.429688 49.238281 26.003906 C 49.445312 25.917969 49.660156 25.863281 49.882812 25.835938 Z M 45.503906 32.542969 C 45.25 32.476562 45.007812 32.507812 44.777344 32.640625 C 44.546875 32.773438 44.398438 32.964844 44.332031 33.222656 C 44.261719 33.476562 44.292969 33.71875 44.425781 33.949219 C 44.554688 34.175781 44.75 34.328125 45.003906 34.394531 C 45.261719 34.464844 45.503906 34.433594 45.730469 34.300781 C 45.960938 34.167969 46.109375 33.976562 46.179688 33.71875 C 46.246094 33.464844 46.214844 33.222656 46.085938 32.992188 C 45.953125 32.761719 45.757812 32.613281 45.503906 32.542969 Z M 27.480469 31.421875 C 27.636719 31.445312 27.796875 31.4375 27.949219 31.398438 C 28.105469 31.363281 28.25 31.292969 28.378906 31.199219 C 28.507812 31.105469 28.613281 30.988281 28.695312 30.851562 C 28.78125 30.714844 28.832031 30.566406 28.859375 30.40625 C 28.882812 30.25 28.875 30.089844 28.835938 29.9375 C 28.796875 29.78125 28.730469 29.636719 28.636719 29.507812 C 28.539062 29.378906 28.425781 29.273438 28.289062 29.191406 C 28.148438 29.105469 28.003906 29.054688 27.84375 29.027344 C 27.683594 29.003906 27.527344 29.011719 27.371094 29.050781 C 27.214844 29.089844 27.074219 29.15625 26.945312 29.25 C 26.816406 29.347656 26.710938 29.460938 26.625 29.597656 C 26.542969 29.738281 26.488281 29.882812 26.464844 30.042969 C 26.441406 30.203125 26.449219 30.359375 26.488281 30.515625 C 26.523438 30.671875 26.59375 30.8125 26.6875 30.941406 C 26.78125 31.070312 26.898438 31.175781 27.035156 31.261719 C 27.171875 31.34375 27.320312 31.398438 27.480469 31.421875 Z M 27.6875 41.519531 C 27.484375 41.464844 27.28125 41.453125 27.074219 41.480469 C 26.867188 41.503906 26.675781 41.570312 26.492188 41.675781 C 26.3125 41.777344 26.160156 41.914062 26.03125 42.078125 C 25.902344 42.242188 25.8125 42.425781 25.757812 42.628906 C 25.703125 42.828125 25.691406 43.035156 25.714844 43.242188 C 25.742188 43.449219 25.808594 43.640625 25.914062 43.824219 C 26.015625 44.003906 26.152344 44.15625 26.316406 44.285156 C 26.480469 44.414062 26.664062 44.503906 26.867188 44.558594 C 27.066406 44.613281 27.269531 44.625 27.476562 44.597656 C 27.683594 44.574219 27.878906 44.507812 28.058594 44.402344 C 28.242188 44.300781 28.394531 44.164062 28.523438 44 C 28.648438 43.835938 28.742188 43.652344 28.796875 43.449219 C 28.851562 43.25 28.863281 43.042969 28.835938 42.835938 C 28.808594 42.628906 28.746094 42.4375 28.640625 42.253906 C 28.539062 42.074219 28.402344 41.921875 28.238281 41.792969 C 28.070312 41.664062 27.890625 41.574219 27.6875 41.519531 Z M 18.515625 15.695312 C 18.34375 15.652344 18.175781 15.644531 18.003906 15.671875 C 17.832031 15.695312 17.671875 15.753906 17.519531 15.839844 C 17.371094 15.929688 17.242188 16.042969 17.136719 16.179688 C 17.03125 16.320312 16.957031 16.472656 16.910156 16.640625 C 16.867188 16.808594 16.855469 16.976562 16.875 17.148438 C 16.894531 17.320312 16.949219 17.484375 17.035156 17.636719 C 17.117188 17.789062 17.226562 17.917969 17.363281 18.027344 C 17.5 18.136719 17.652344 18.214844 17.816406 18.265625 C 17.984375 18.304688 18.15625 18.3125 18.328125 18.289062 C 18.5 18.261719 18.660156 18.207031 18.8125 18.117188 C 18.960938 18.03125 19.085938 17.917969 19.191406 17.777344 C 19.296875 17.640625 19.375 17.488281 19.417969 17.320312 C 19.464844 17.152344 19.476562 16.980469 19.457031 16.808594 C 19.433594 16.636719 19.382812 16.476562 19.296875 16.324219 C 19.210938 16.171875 19.101562 16.039062 18.96875 15.933594 C 18.832031 15.824219 18.679688 15.746094 18.515625 15.695312 Z M 18.515625 15.695312 " fill-opacity="1" fill-rule="nonzero"/></g><path stroke-linecap="butt" transform="matrix(0, -1.040094, 1.040094, 0, 54.106362, 50.29831)" fill="none" stroke-linejoin="miter" d="M 0.0013795 0.498645 L 46.733171 0.498645 " stroke="#779ff7" stroke-width="1" stroke-opacity="1" stroke-miterlimit="4"/><g fill="#779ff7" fill-opacity="1"><g transform="translate(57.144921, 25.043371)"><g><path d="M 10.375 0 L 8.671875 0 L 7.90625 -5.0625 L 5.59375 -0.015625 L 5.1875 -0.015625 L 2.875 -5.0625 L 2.109375 0 L 0.390625 0 L 1.609375 -7.75 L 3.296875 -7.75 L 5.390625 -3 L 7.484375 -7.75 L 9.171875 -7.75 Z M 10.375 0 "/></g></g></g><g fill="#779ff7" fill-opacity="1"><g transform="translate(67.930997, 25.043371)"><g><path d="M 2.890625 0.171875 C 2.390625 0.171875 1.953125 0.0820312 1.578125 -0.09375 C 1.203125 -0.269531 0.910156 -0.519531 0.703125 -0.84375 C 0.492188 -1.164062 0.390625 -1.539062 0.390625 -1.96875 L 1.953125 -1.96875 C 1.960938 -1.707031 2.054688 -1.507812 2.234375 -1.375 C 2.421875 -1.238281 2.660156 -1.171875 2.953125 -1.171875 C 3.179688 -1.171875 3.378906 -1.21875 3.546875 -1.3125 C 3.722656 -1.414062 3.8125 -1.566406 3.8125 -1.765625 C 3.8125 -1.972656 3.695312 -2.117188 3.46875 -2.203125 C 3.238281 -2.285156 2.96875 -2.351562 2.65625 -2.40625 C 2.414062 -2.445312 2.164062 -2.5 1.90625 -2.5625 C 1.65625 -2.632812 1.421875 -2.734375 1.203125 -2.859375 C 0.992188 -2.984375 0.820312 -3.15625 0.6875 -3.375 C 0.550781 -3.59375 0.484375 -3.878906 0.484375 -4.234375 C 0.484375 -4.609375 0.582031 -4.9375 0.78125 -5.21875 C 0.988281 -5.507812 1.269531 -5.734375 1.625 -5.890625 C 1.988281 -6.054688 2.410156 -6.140625 2.890625 -6.140625 C 3.378906 -6.140625 3.800781 -6.054688 4.15625 -5.890625 C 4.507812 -5.722656 4.785156 -5.488281 4.984375 -5.1875 C 5.179688 -4.894531 5.28125 -4.546875 5.28125 -4.140625 L 3.75 -4.140625 C 3.75 -4.378906 3.671875 -4.554688 3.515625 -4.671875 C 3.359375 -4.796875 3.140625 -4.859375 2.859375 -4.859375 C 2.609375 -4.859375 2.410156 -4.800781 2.265625 -4.6875 C 2.128906 -4.582031 2.0625 -4.445312 2.0625 -4.28125 C 2.0625 -4.082031 2.171875 -3.945312 2.390625 -3.875 C 2.609375 -3.800781 2.875 -3.738281 3.1875 -3.6875 C 3.425781 -3.644531 3.675781 -3.585938 3.9375 -3.515625 C 4.195312 -3.453125 4.4375 -3.359375 4.65625 -3.234375 C 4.875 -3.109375 5.050781 -2.9375 5.1875 -2.71875 C 5.332031 -2.5 5.40625 -2.207031 5.40625 -1.84375 C 5.40625 -1.4375 5.300781 -1.082031 5.09375 -0.78125 C 4.882812 -0.476562 4.59375 -0.242188 4.21875 -0.078125 C 3.84375 0.0859375 3.398438 0.171875 2.890625 0.171875 Z M 2.890625 0.171875 "/></g></g></g><g fill="#779ff7" fill-opacity="1"><g transform="translate(73.738881, 25.043371)"><g><path d="M 0.65625 0 L 0.65625 -1.71875 L 2.375 -1.71875 L 2.375 0 Z M 0.65625 0 "/></g></g></g><g fill="#779ff7" fill-opacity="1"><g transform="translate(76.770048, 25.043371)"><g><path d="M 7.328125 -7.75 L 4.609375 -3.125 L 4.609375 0 L 2.890625 0 L 2.890625 -3.140625 L 0.1875 -7.75 L 1.96875 -7.75 L 3.765625 -4.640625 L 5.546875 -7.75 Z M 7.328125 -7.75 "/></g></g></g><g fill="#779ff7" fill-opacity="1"><g transform="translate(84.281582, 25.043371)"><g><path d="M 3.625 0.171875 C 3 0.171875 2.441406 0.0351562 1.953125 -0.234375 C 1.472656 -0.515625 1.09375 -0.894531 0.8125 -1.375 C 0.53125 -1.851562 0.390625 -2.390625 0.390625 -2.984375 C 0.390625 -3.585938 0.53125 -4.128906 0.8125 -4.609375 C 1.09375 -5.085938 1.472656 -5.460938 1.953125 -5.734375 C 2.441406 -6.003906 3 -6.140625 3.625 -6.140625 C 4.226562 -6.140625 4.773438 -6.003906 5.265625 -5.734375 C 5.753906 -5.460938 6.140625 -5.085938 6.421875 -4.609375 C 6.703125 -4.128906 6.84375 -3.585938 6.84375 -2.984375 C 6.84375 -2.390625 6.703125 -1.851562 6.421875 -1.375 C 6.140625 -0.894531 5.753906 -0.515625 5.265625 -0.234375 C 4.773438 0.0351562 4.226562 0.171875 3.625 0.171875 Z M 3.625 -1.34375 C 4.082031 -1.34375 4.457031 -1.492188 4.75 -1.796875 C 5.050781 -2.097656 5.203125 -2.492188 5.203125 -2.984375 C 5.203125 -3.472656 5.050781 -3.867188 4.75 -4.171875 C 4.457031 -4.472656 4.082031 -4.625 3.625 -4.625 C 3.144531 -4.625 2.757812 -4.472656 2.46875 -4.171875 C 2.175781 -3.867188 2.03125 -3.472656 2.03125 -2.984375 C 2.03125 -2.492188 2.175781 -2.097656 2.46875 -1.796875 C 2.757812 -1.492188 3.144531 -1.34375 3.625 -1.34375 Z M 3.625 -1.34375 "/></g></g></g><g fill="#779ff7" fill-opacity="1"><g transform="translate(91.505484, 25.043371)"><g><path d="M 3.625 0.171875 C 3 0.171875 2.441406 0.0351562 1.953125 -0.234375 C 1.472656 -0.515625 1.09375 -0.894531 0.8125 -1.375 C 0.53125 -1.851562 0.390625 -2.390625 0.390625 -2.984375 C 0.390625 -3.585938 0.53125 -4.128906 0.8125 -4.609375 C 1.09375 -5.085938 1.472656 -5.460938 1.953125 -5.734375 C 2.441406 -6.003906 3 -6.140625 3.625 -6.140625 C 4.226562 -6.140625 4.773438 -6.003906 5.265625 -5.734375 C 5.753906 -5.460938 6.140625 -5.085938 6.421875 -4.609375 C 6.703125 -4.128906 6.84375 -3.585938 6.84375 -2.984375 C 6.84375 -2.390625 6.703125 -1.851562 6.421875 -1.375 C 6.140625 -0.894531 5.753906 -0.515625 5.265625 -0.234375 C 4.773438 0.0351562 4.226562 0.171875 3.625 0.171875 Z M 3.625 -1.34375 C 4.082031 -1.34375 4.457031 -1.492188 4.75 -1.796875 C 5.050781 -2.097656 5.203125 -2.492188 5.203125 -2.984375 C 5.203125 -3.472656 5.050781 -3.867188 4.75 -4.171875 C 4.457031 -4.472656 4.082031 -4.625 3.625 -4.625 C 3.144531 -4.625 2.757812 -4.472656 2.46875 -4.171875 C 2.175781 -3.867188 2.03125 -3.472656 2.03125 -2.984375 C 2.03125 -2.492188 2.175781 -2.097656 2.46875 -1.796875 C 2.757812 -1.492188 3.144531 -1.34375 3.625 -1.34375 Z M 3.625 -1.34375 "/></g></g></g><g fill="#779ff7" fill-opacity="1"><g transform="translate(98.729386, 25.043371)"><g><path d="M 4.1875 -6.125 C 4.863281 -6.125 5.398438 -5.894531 5.796875 -5.4375 C 6.191406 -4.976562 6.390625 -4.375 6.390625 -3.625 L 6.390625 0 L 4.765625 0 L 4.765625 -3.359375 C 4.765625 -4.253906 4.421875 -4.703125 3.734375 -4.703125 C 3.316406 -4.703125 2.988281 -4.5625 2.75 -4.28125 C 2.507812 -4 2.390625 -3.617188 2.390625 -3.140625 L 2.390625 0 L 0.78125 0 L 0.78125 -5.96875 L 1.875 -5.96875 L 2.203125 -5.234375 C 2.421875 -5.503906 2.703125 -5.71875 3.046875 -5.875 C 3.398438 -6.039062 3.78125 -6.125 4.1875 -6.125 Z M 4.1875 -6.125 "/></g></g></g><g fill="#779ff7" fill-opacity="1"><g transform="translate(105.820542, 25.043371)"><g/></g></g><g fill="#779ff7" fill-opacity="1"><g transform="translate(108.464513, 25.043371)"><g><path d="M 10.375 0 L 8.671875 0 L 7.90625 -5.0625 L 5.59375 -0.015625 L 5.1875 -0.015625 L 2.875 -5.0625 L 2.109375 0 L 0.390625 0 L 1.609375 -7.75 L 3.296875 -7.75 L 5.390625 -3 L 7.484375 -7.75 L 9.171875 -7.75 Z M 10.375 0 "/></g></g></g><g fill="#779ff7" fill-opacity="1"><g transform="translate(119.250589, 25.043371)"><g><path d="M 6.578125 -3.015625 C 6.578125 -2.859375 6.5625 -2.695312 6.53125 -2.53125 L 2.03125 -2.53125 C 2.09375 -2.125 2.25 -1.8125 2.5 -1.59375 C 2.757812 -1.375 3.085938 -1.265625 3.484375 -1.265625 C 3.765625 -1.265625 4.015625 -1.328125 4.234375 -1.453125 C 4.453125 -1.578125 4.625 -1.742188 4.75 -1.953125 L 6.453125 -1.953125 C 6.234375 -1.304688 5.859375 -0.789062 5.328125 -0.40625 C 4.796875 -0.0195312 4.179688 0.171875 3.484375 0.171875 C 2.890625 0.171875 2.359375 0.0351562 1.890625 -0.234375 C 1.421875 -0.515625 1.050781 -0.894531 0.78125 -1.375 C 0.519531 -1.851562 0.390625 -2.390625 0.390625 -2.984375 C 0.390625 -3.585938 0.519531 -4.125 0.78125 -4.59375 C 1.050781 -5.070312 1.421875 -5.445312 1.890625 -5.71875 C 2.359375 -6 2.890625 -6.140625 3.484375 -6.140625 C 4.097656 -6.140625 4.632812 -5.992188 5.09375 -5.703125 C 5.5625 -5.421875 5.925781 -5.046875 6.1875 -4.578125 C 6.445312 -4.109375 6.578125 -3.585938 6.578125 -3.015625 Z M 3.484375 -4.765625 C 3.117188 -4.765625 2.8125 -4.664062 2.5625 -4.46875 C 2.320312 -4.269531 2.15625 -3.992188 2.0625 -3.640625 L 4.953125 -3.640625 C 4.722656 -4.390625 4.234375 -4.765625 3.484375 -4.765625 Z M 3.484375 -4.765625 "/></g></g></g><g fill="#779ff7" fill-opacity="1"><g transform="translate(126.197935, 25.043371)"><g/></g></g><g fill="#779ff7" fill-opacity="1"><g transform="translate(128.841905, 25.043371)"><g><path d="M 10.375 0 L 8.671875 0 L 7.90625 -5.0625 L 5.59375 -0.015625 L 5.1875 -0.015625 L 2.875 -5.0625 L 2.109375 0 L 0.390625 0 L 1.609375 -7.75 L 3.296875 -7.75 L 5.390625 -3 L 7.484375 -7.75 L 9.171875 -7.75 Z M 10.375 0 "/></g></g></g><g fill="#779ff7" fill-opacity="1"><g transform="translate(139.627982, 25.043371)"><g><path d="M 6.578125 -3.015625 C 6.578125 -2.859375 6.5625 -2.695312 6.53125 -2.53125 L 2.03125 -2.53125 C 2.09375 -2.125 2.25 -1.8125 2.5 -1.59375 C 2.757812 -1.375 3.085938 -1.265625 3.484375 -1.265625 C 3.765625 -1.265625 4.015625 -1.328125 4.234375 -1.453125 C 4.453125 -1.578125 4.625 -1.742188 4.75 -1.953125 L 6.453125 -1.953125 C 6.234375 -1.304688 5.859375 -0.789062 5.328125 -0.40625 C 4.796875 -0.0195312 4.179688 0.171875 3.484375 0.171875 C 2.890625 0.171875 2.359375 0.0351562 1.890625 -0.234375 C 1.421875 -0.515625 1.050781 -0.894531 0.78125 -1.375 C 0.519531 -1.851562 0.390625 -2.390625 0.390625 -2.984375 C 0.390625 -3.585938 0.519531 -4.125 0.78125 -4.59375 C 1.050781 -5.070312 1.421875 -5.445312 1.890625 -5.71875 C 2.359375 -6 2.890625 -6.140625 3.484375 -6.140625 C 4.097656 -6.140625 4.632812 -5.992188 5.09375 -5.703125 C 5.5625 -5.421875 5.925781 -5.046875 6.1875 -4.578125 C 6.445312 -4.109375 6.578125 -3.585938 6.578125 -3.015625 Z M 3.484375 -4.765625 C 3.117188 -4.765625 2.8125 -4.664062 2.5625 -4.46875 C 2.320312 -4.269531 2.15625 -3.992188 2.0625 -3.640625 L 4.953125 -3.640625 C 4.722656 -4.390625 4.234375 -4.765625 3.484375 -4.765625 Z M 3.484375 -4.765625 "/></g></g></g><g fill="#779ff7" fill-opacity="1"><g transform="translate(57.144921, 32.902981)"><g><path d="M 2.71875 -3.3125 L 3.671875 -3.3125 L 2.234375 -0.046875 C 2.097656 0.253906 1.960938 0.492188 1.828125 0.671875 C 1.691406 0.859375 1.535156 0.992188 1.359375 1.078125 C 1.191406 1.160156 0.984375 1.203125 0.734375 1.203125 L 0.375 1.203125 L 0.375 0.390625 L 0.6875 0.390625 C 0.820312 0.390625 0.929688 0.367188 1.015625 0.328125 C 1.097656 0.296875 1.171875 0.238281 1.234375 0.15625 C 1.296875 0.0703125 1.363281 -0.0546875 1.4375 -0.234375 L 1.4375 -0.25 L 0.03125 -3.3125 L 1.015625 -3.3125 L 1.890625 -1.28125 Z M 2.71875 -3.3125 "/></g></g></g><g fill="#779ff7" fill-opacity="1"><g transform="translate(60.842146, 32.902981)"><g><path d="M 2.015625 0.09375 C 1.671875 0.09375 1.363281 0.015625 1.09375 -0.140625 C 0.820312 -0.296875 0.609375 -0.503906 0.453125 -0.765625 C 0.296875 -1.023438 0.21875 -1.320312 0.21875 -1.65625 C 0.21875 -1.988281 0.296875 -2.285156 0.453125 -2.546875 C 0.609375 -2.816406 0.820312 -3.023438 1.09375 -3.171875 C 1.363281 -3.328125 1.671875 -3.40625 2.015625 -3.40625 C 2.347656 -3.40625 2.648438 -3.328125 2.921875 -3.171875 C 3.191406 -3.023438 3.40625 -2.816406 3.5625 -2.546875 C 3.71875 -2.285156 3.796875 -1.988281 3.796875 -1.65625 C 3.796875 -1.320312 3.71875 -1.023438 3.5625 -0.765625 C 3.40625 -0.503906 3.191406 -0.296875 2.921875 -0.140625 C 2.648438 0.015625 2.347656 0.09375 2.015625 0.09375 Z M 2.015625 -0.75 C 2.265625 -0.75 2.472656 -0.832031 2.640625 -1 C 2.804688 -1.164062 2.890625 -1.382812 2.890625 -1.65625 C 2.890625 -1.925781 2.804688 -2.144531 2.640625 -2.3125 C 2.472656 -2.476562 2.265625 -2.5625 2.015625 -2.5625 C 1.742188 -2.5625 1.523438 -2.476562 1.359375 -2.3125 C 1.203125 -2.144531 1.125 -1.925781 1.125 -1.65625 C 1.125 -1.382812 1.203125 -1.164062 1.359375 -1 C 1.523438 -0.832031 1.742188 -0.75 2.015625 -0.75 Z M 2.015625 -0.75 "/></g></g></g><g fill="#779ff7" fill-opacity="1"><g transform="translate(64.852597, 32.902981)"><g><path d="M 2.015625 0.09375 C 1.671875 0.09375 1.363281 0.015625 1.09375 -0.140625 C 0.820312 -0.296875 0.609375 -0.503906 0.453125 -0.765625 C 0.296875 -1.023438 0.21875 -1.320312 0.21875 -1.65625 C 0.21875 -1.988281 0.296875 -2.285156 0.453125 -2.546875 C 0.609375 -2.816406 0.820312 -3.023438 1.09375 -3.171875 C 1.363281 -3.328125 1.671875 -3.40625 2.015625 -3.40625 C 2.347656 -3.40625 2.648438 -3.328125 2.921875 -3.171875 C 3.191406 -3.023438 3.40625 -2.816406 3.5625 -2.546875 C 3.71875 -2.285156 3.796875 -1.988281 3.796875 -1.65625 C 3.796875 -1.320312 3.71875 -1.023438 3.5625 -0.765625 C 3.40625 -0.503906 3.191406 -0.296875 2.921875 -0.140625 C 2.648438 0.015625 2.347656 0.09375 2.015625 0.09375 Z M 2.015625 -0.75 C 2.265625 -0.75 2.472656 -0.832031 2.640625 -1 C 2.804688 -1.164062 2.890625 -1.382812 2.890625 -1.65625 C 2.890625 -1.925781 2.804688 -2.144531 2.640625 -2.3125 C 2.472656 -2.476562 2.265625 -2.5625 2.015625 -2.5625 C 1.742188 -2.5625 1.523438 -2.476562 1.359375 -2.3125 C 1.203125 -2.144531 1.125 -1.925781 1.125 -1.65625 C 1.125 -1.382812 1.203125 -1.164062 1.359375 -1 C 1.523438 -0.832031 1.742188 -0.75 2.015625 -0.75 Z M 2.015625 -0.75 "/></g></g></g><g fill="#779ff7" fill-opacity="1"><g transform="translate(68.863048, 32.902981)"><g><path d="M 2.328125 -3.390625 C 2.703125 -3.390625 3 -3.265625 3.21875 -3.015625 C 3.4375 -2.765625 3.546875 -2.429688 3.546875 -2.015625 L 3.546875 0 L 2.640625 0 L 2.640625 -1.859375 C 2.640625 -2.359375 2.445312 -2.609375 2.0625 -2.609375 C 1.832031 -2.609375 1.648438 -2.53125 1.515625 -2.375 C 1.390625 -2.21875 1.328125 -2.007812 1.328125 -1.75 L 1.328125 0 L 0.4375 0 L 0.4375 -3.3125 L 1.046875 -3.3125 L 1.21875 -2.90625 C 1.34375 -3.050781 1.5 -3.164062 1.6875 -3.25 C 1.882812 -3.34375 2.097656 -3.390625 2.328125 -3.390625 Z M 2.328125 -3.390625 "/></g></g></g><g fill="#779ff7" fill-opacity="1"><g transform="translate(72.799794, 32.902981)"><g><path d="M 4.203125 -3.390625 C 4.429688 -3.390625 4.632812 -3.332031 4.8125 -3.21875 C 4.988281 -3.113281 5.125 -2.960938 5.21875 -2.765625 C 5.320312 -2.566406 5.375 -2.335938 5.375 -2.078125 L 5.375 0 L 4.484375 0 L 4.484375 -1.9375 C 4.484375 -2.382812 4.3125 -2.609375 3.96875 -2.609375 C 3.769531 -2.609375 3.613281 -2.535156 3.5 -2.390625 C 3.394531 -2.253906 3.34375 -2.054688 3.34375 -1.796875 L 3.34375 0 L 2.46875 0 L 2.46875 -1.9375 C 2.46875 -2.382812 2.304688 -2.609375 1.984375 -2.609375 C 1.773438 -2.609375 1.613281 -2.535156 1.5 -2.390625 C 1.382812 -2.253906 1.328125 -2.054688 1.328125 -1.796875 L 1.328125 0 L 0.4375 0 L 0.4375 -3.3125 L 1.0625 -3.3125 L 1.21875 -2.90625 C 1.34375 -3.050781 1.488281 -3.164062 1.65625 -3.25 C 1.832031 -3.34375 2.019531 -3.390625 2.21875 -3.390625 C 2.425781 -3.390625 2.613281 -3.34375 2.78125 -3.25 C 2.945312 -3.15625 3.078125 -3.023438 3.171875 -2.859375 C 3.285156 -3.023438 3.429688 -3.15625 3.609375 -3.25 C 3.796875 -3.34375 3.992188 -3.390625 4.203125 -3.390625 Z M 4.203125 -3.390625 "/></g></g></g><g fill="#779ff7" fill-opacity="1"><g transform="translate(78.560588, 32.902981)"><g><path d="M 3.640625 -1.671875 C 3.640625 -1.585938 3.632812 -1.5 3.625 -1.40625 L 1.125 -1.40625 C 1.15625 -1.175781 1.242188 -1 1.390625 -0.875 C 1.535156 -0.757812 1.71875 -0.703125 1.9375 -0.703125 C 2.09375 -0.703125 2.226562 -0.734375 2.34375 -0.796875 C 2.46875 -0.867188 2.566406 -0.96875 2.640625 -1.09375 L 3.578125 -1.09375 C 3.453125 -0.726562 3.242188 -0.4375 2.953125 -0.21875 C 2.660156 -0.0078125 2.320312 0.09375 1.9375 0.09375 C 1.601562 0.09375 1.304688 0.015625 1.046875 -0.140625 C 0.785156 -0.296875 0.582031 -0.503906 0.4375 -0.765625 C 0.289062 -1.023438 0.21875 -1.320312 0.21875 -1.65625 C 0.21875 -1.988281 0.289062 -2.285156 0.4375 -2.546875 C 0.582031 -2.816406 0.785156 -3.023438 1.046875 -3.171875 C 1.304688 -3.328125 1.601562 -3.40625 1.9375 -3.40625 C 2.269531 -3.40625 2.566406 -3.328125 2.828125 -3.171875 C 3.085938 -3.015625 3.285156 -2.804688 3.421875 -2.546875 C 3.566406 -2.285156 3.640625 -1.992188 3.640625 -1.671875 Z M 1.9375 -2.640625 C 1.738281 -2.640625 1.566406 -2.582031 1.421875 -2.46875 C 1.285156 -2.363281 1.191406 -2.210938 1.140625 -2.015625 L 2.75 -2.015625 C 2.613281 -2.429688 2.34375 -2.640625 1.9375 -2.640625 Z M 1.9375 -2.640625 "/></g></g></g><g fill="#779ff7" fill-opacity="1"><g transform="translate(82.417499, 32.902981)"><g><path d="M 4.203125 -3.390625 C 4.429688 -3.390625 4.632812 -3.332031 4.8125 -3.21875 C 4.988281 -3.113281 5.125 -2.960938 5.21875 -2.765625 C 5.320312 -2.566406 5.375 -2.335938 5.375 -2.078125 L 5.375 0 L 4.484375 0 L 4.484375 -1.9375 C 4.484375 -2.382812 4.3125 -2.609375 3.96875 -2.609375 C 3.769531 -2.609375 3.613281 -2.535156 3.5 -2.390625 C 3.394531 -2.253906 3.34375 -2.054688 3.34375 -1.796875 L 3.34375 0 L 2.46875 0 L 2.46875 -1.9375 C 2.46875 -2.382812 2.304688 -2.609375 1.984375 -2.609375 C 1.773438 -2.609375 1.613281 -2.535156 1.5 -2.390625 C 1.382812 -2.253906 1.328125 -2.054688 1.328125 -1.796875 L 1.328125 0 L 0.4375 0 L 0.4375 -3.3125 L 1.0625 -3.3125 L 1.21875 -2.90625 C 1.34375 -3.050781 1.488281 -3.164062 1.65625 -3.25 C 1.832031 -3.34375 2.019531 -3.390625 2.21875 -3.390625 C 2.425781 -3.390625 2.613281 -3.34375 2.78125 -3.25 C 2.945312 -3.15625 3.078125 -3.023438 3.171875 -2.859375 C 3.285156 -3.023438 3.429688 -3.15625 3.609375 -3.25 C 3.796875 -3.34375 3.992188 -3.390625 4.203125 -3.390625 Z M 4.203125 -3.390625 "/></g></g></g><g fill="#779ff7" fill-opacity="1"><g transform="translate(88.178293, 32.902981)"><g><path d="M 3.640625 -1.671875 C 3.640625 -1.585938 3.632812 -1.5 3.625 -1.40625 L 1.125 -1.40625 C 1.15625 -1.175781 1.242188 -1 1.390625 -0.875 C 1.535156 -0.757812 1.71875 -0.703125 1.9375 -0.703125 C 2.09375 -0.703125 2.226562 -0.734375 2.34375 -0.796875 C 2.46875 -0.867188 2.566406 -0.96875 2.640625 -1.09375 L 3.578125 -1.09375 C 3.453125 -0.726562 3.242188 -0.4375 2.953125 -0.21875 C 2.660156 -0.0078125 2.320312 0.09375 1.9375 0.09375 C 1.601562 0.09375 1.304688 0.015625 1.046875 -0.140625 C 0.785156 -0.296875 0.582031 -0.503906 0.4375 -0.765625 C 0.289062 -1.023438 0.21875 -1.320312 0.21875 -1.65625 C 0.21875 -1.988281 0.289062 -2.285156 0.4375 -2.546875 C 0.582031 -2.816406 0.785156 -3.023438 1.046875 -3.171875 C 1.304688 -3.328125 1.601562 -3.40625 1.9375 -3.40625 C 2.269531 -3.40625 2.566406 -3.328125 2.828125 -3.171875 C 3.085938 -3.015625 3.285156 -2.804688 3.421875 -2.546875 C 3.566406 -2.285156 3.640625 -1.992188 3.640625 -1.671875 Z M 1.9375 -2.640625 C 1.738281 -2.640625 1.566406 -2.582031 1.421875 -2.46875 C 1.285156 -2.363281 1.191406 -2.210938 1.140625 -2.015625 L 2.75 -2.015625 C 2.613281 -2.429688 2.34375 -2.640625 1.9375 -2.640625 Z M 1.9375 -2.640625 "/></g></g></g><g fill="#779ff7" fill-opacity="1"><g transform="translate(92.035204, 32.902981)"><g><path d="M 0.375 0 L 0.375 -0.953125 L 1.3125 -0.953125 L 1.3125 0 Z M 0.375 0 "/></g></g></g><g fill="#779ff7" fill-opacity="1"><g transform="translate(93.717997, 32.902981)"><g><path d="M 3.640625 -1.671875 C 3.640625 -1.585938 3.632812 -1.5 3.625 -1.40625 L 1.125 -1.40625 C 1.15625 -1.175781 1.242188 -1 1.390625 -0.875 C 1.535156 -0.757812 1.71875 -0.703125 1.9375 -0.703125 C 2.09375 -0.703125 2.226562 -0.734375 2.34375 -0.796875 C 2.46875 -0.867188 2.566406 -0.96875 2.640625 -1.09375 L 3.578125 -1.09375 C 3.453125 -0.726562 3.242188 -0.4375 2.953125 -0.21875 C 2.660156 -0.0078125 2.320312 0.09375 1.9375 0.09375 C 1.601562 0.09375 1.304688 0.015625 1.046875 -0.140625 C 0.785156 -0.296875 0.582031 -0.503906 0.4375 -0.765625 C 0.289062 -1.023438 0.21875 -1.320312 0.21875 -1.65625 C 0.21875 -1.988281 0.289062 -2.285156 0.4375 -2.546875 C 0.582031 -2.816406 0.785156 -3.023438 1.046875 -3.171875 C 1.304688 -3.328125 1.601562 -3.40625 1.9375 -3.40625 C 2.269531 -3.40625 2.566406 -3.328125 2.828125 -3.171875 C 3.085938 -3.015625 3.285156 -2.804688 3.421875 -2.546875 C 3.566406 -2.285156 3.640625 -1.992188 3.640625 -1.671875 Z M 1.9375 -2.640625 C 1.738281 -2.640625 1.566406 -2.582031 1.421875 -2.46875 C 1.285156 -2.363281 1.191406 -2.210938 1.140625 -2.015625 L 2.75 -2.015625 C 2.613281 -2.429688 2.34375 -2.640625 1.9375 -2.640625 Z M 1.9375 -2.640625 "/></g></g></g><g fill="#779ff7" fill-opacity="1"><g transform="translate(97.574908, 32.902981)"><g><path d="M 2.328125 -3.390625 C 2.703125 -3.390625 3 -3.265625 3.21875 -3.015625 C 3.4375 -2.765625 3.546875 -2.429688 3.546875 -2.015625 L 3.546875 0 L 2.640625 0 L 2.640625 -1.859375 C 2.640625 -2.359375 2.445312 -2.609375 2.0625 -2.609375 C 1.832031 -2.609375 1.648438 -2.53125 1.515625 -2.375 C 1.390625 -2.21875 1.328125 -2.007812 1.328125 -1.75 L 1.328125 0 L 0.4375 0 L 0.4375 -3.3125 L 1.046875 -3.3125 L 1.21875 -2.90625 C 1.34375 -3.050781 1.5 -3.164062 1.6875 -3.25 C 1.882812 -3.34375 2.097656 -3.390625 2.328125 -3.390625 Z M 2.328125 -3.390625 "/></g></g></g><g fill="#779ff7" fill-opacity="1"><g transform="translate(101.511654, 32.902981)"><g><path d="M 3.109375 -3.3125 L 3.6875 -3.3125 L 3.6875 -0.390625 C 3.6875 -0.0351562 3.617188 0.265625 3.484375 0.515625 C 3.347656 0.765625 3.148438 0.957031 2.890625 1.09375 C 2.640625 1.226562 2.34375 1.296875 2 1.296875 C 1.539062 1.296875 1.160156 1.1875 0.859375 0.96875 C 0.566406 0.75 0.382812 0.453125 0.3125 0.078125 L 1.203125 0.078125 C 1.242188 0.222656 1.34375 0.332031 1.5 0.40625 C 1.65625 0.476562 1.816406 0.515625 1.984375 0.515625 C 2.210938 0.515625 2.40625 0.445312 2.5625 0.3125 C 2.726562 0.175781 2.8125 -0.015625 2.8125 -0.265625 L 2.8125 -0.375 C 2.675781 -0.28125 2.523438 -0.207031 2.359375 -0.15625 C 2.203125 -0.113281 2.035156 -0.09375 1.859375 -0.09375 C 1.554688 -0.09375 1.28125 -0.164062 1.03125 -0.3125 C 0.78125 -0.457031 0.582031 -0.65625 0.4375 -0.90625 C 0.289062 -1.15625 0.21875 -1.4375 0.21875 -1.75 C 0.21875 -2.050781 0.289062 -2.328125 0.4375 -2.578125 C 0.582031 -2.835938 0.78125 -3.039062 1.03125 -3.1875 C 1.28125 -3.332031 1.554688 -3.40625 1.859375 -3.40625 C 2.078125 -3.40625 2.28125 -3.367188 2.46875 -3.296875 C 2.65625 -3.222656 2.820312 -3.117188 2.96875 -2.984375 Z M 1.96875 -0.890625 C 2.207031 -0.890625 2.40625 -0.96875 2.5625 -1.125 C 2.726562 -1.289062 2.8125 -1.5 2.8125 -1.75 C 2.8125 -1.988281 2.734375 -2.1875 2.578125 -2.34375 C 2.421875 -2.507812 2.21875 -2.59375 1.96875 -2.59375 C 1.726562 -2.59375 1.523438 -2.507812 1.359375 -2.34375 C 1.203125 -2.1875 1.125 -1.988281 1.125 -1.75 C 1.125 -1.5 1.203125 -1.289062 1.359375 -1.125 C 1.515625 -0.96875 1.71875 -0.890625 1.96875 -0.890625 Z M 1.96875 -0.890625 "/></g></g></g><g fill="#779ff7" fill-opacity="1"><g transform="translate(105.632654, 32.902981)"><g><path d="M 2.125 -3.328125 L 2.421875 -3.328125 L 2.421875 -2.484375 L 2.03125 -2.484375 C 1.78125 -2.484375 1.597656 -2.421875 1.484375 -2.296875 C 1.378906 -2.179688 1.328125 -1.988281 1.328125 -1.71875 L 1.328125 0 L 0.4375 0 L 0.4375 -3.3125 L 1 -3.3125 L 1.171875 -2.90625 C 1.390625 -3.1875 1.707031 -3.328125 2.125 -3.328125 Z M 2.125 -3.328125 "/></g></g></g><g fill="#779ff7" fill-opacity="1"><g transform="translate(108.132274, 32.902981)"><g><path d="M 3.0625 -4.03125 C 3.425781 -4.03125 3.773438 -3.972656 4.109375 -3.859375 C 4.453125 -3.753906 4.753906 -3.59375 5.015625 -3.375 C 5.285156 -3.15625 5.492188 -2.882812 5.640625 -2.5625 C 5.796875 -2.238281 5.875 -1.867188 5.875 -1.453125 C 5.875 -1.128906 5.8125 -0.863281 5.6875 -0.65625 C 5.570312 -0.445312 5.421875 -0.289062 5.234375 -0.1875 C 5.046875 -0.09375 4.851562 -0.046875 4.65625 -0.046875 C 4.289062 -0.046875 4.023438 -0.164062 3.859375 -0.40625 C 3.742188 -0.269531 3.601562 -0.164062 3.4375 -0.09375 C 3.28125 -0.03125 3.109375 0 2.921875 0 C 2.660156 0 2.425781 -0.0546875 2.21875 -0.171875 C 2.007812 -0.296875 1.84375 -0.460938 1.71875 -0.671875 C 1.601562 -0.878906 1.546875 -1.113281 1.546875 -1.375 C 1.546875 -1.644531 1.601562 -1.882812 1.71875 -2.09375 C 1.84375 -2.300781 2.007812 -2.460938 2.21875 -2.578125 C 2.425781 -2.703125 2.660156 -2.765625 2.921875 -2.765625 C 3.097656 -2.765625 3.257812 -2.734375 3.40625 -2.671875 C 3.5625 -2.609375 3.695312 -2.519531 3.8125 -2.40625 L 3.90625 -2.609375 L 4.328125 -2.609375 L 4.328125 -1.109375 C 4.328125 -0.984375 4.359375 -0.882812 4.421875 -0.8125 C 4.492188 -0.738281 4.578125 -0.703125 4.671875 -0.703125 C 4.796875 -0.703125 4.910156 -0.765625 5.015625 -0.890625 C 5.117188 -1.015625 5.171875 -1.203125 5.171875 -1.453125 C 5.171875 -1.828125 5.082031 -2.15625 4.90625 -2.4375 C 4.726562 -2.71875 4.484375 -2.9375 4.171875 -3.09375 C 3.859375 -3.257812 3.492188 -3.34375 3.078125 -3.34375 C 2.671875 -3.34375 2.304688 -3.257812 1.984375 -3.09375 C 1.660156 -2.925781 1.40625 -2.691406 1.21875 -2.390625 C 1.039062 -2.097656 0.953125 -1.765625 0.953125 -1.390625 C 0.953125 -1.015625 1.035156 -0.6875 1.203125 -0.40625 C 1.367188 -0.125 1.597656 0.09375 1.890625 0.25 C 2.191406 0.40625 2.535156 0.484375 2.921875 0.484375 C 3.285156 0.484375 3.613281 0.421875 3.90625 0.296875 L 3.90625 0.96875 C 3.53125 1.101562 3.171875 1.171875 2.828125 1.171875 C 2.453125 1.171875 2.101562 1.109375 1.78125 0.984375 C 1.46875 0.859375 1.195312 0.679688 0.96875 0.453125 C 0.738281 0.222656 0.554688 -0.046875 0.421875 -0.359375 C 0.296875 -0.671875 0.234375 -1.015625 0.234375 -1.390625 C 0.234375 -1.816406 0.3125 -2.191406 0.46875 -2.515625 C 0.625 -2.847656 0.832031 -3.125 1.09375 -3.34375 C 1.363281 -3.570312 1.664062 -3.742188 2 -3.859375 C 2.34375 -3.972656 2.695312 -4.03125 3.0625 -4.03125 Z M 2.984375 -0.75 C 3.171875 -0.75 3.320312 -0.804688 3.4375 -0.921875 C 3.5625 -1.046875 3.625 -1.203125 3.625 -1.390625 C 3.625 -1.578125 3.5625 -1.726562 3.4375 -1.84375 C 3.320312 -1.957031 3.171875 -2.015625 2.984375 -2.015625 C 2.796875 -2.015625 2.640625 -1.957031 2.515625 -1.84375 C 2.398438 -1.726562 2.34375 -1.578125 2.34375 -1.390625 C 2.34375 -1.203125 2.398438 -1.046875 2.515625 -0.921875 C 2.640625 -0.804688 2.796875 -0.75 2.984375 -0.75 Z M 2.984375 -0.75 "/></g></g></g><g fill="#779ff7" fill-opacity="1"><g transform="translate(114.261569, 32.902981)"><g><path d="M 3.109375 -3.3125 L 3.6875 -3.3125 L 3.6875 -0.390625 C 3.6875 -0.0351562 3.617188 0.265625 3.484375 0.515625 C 3.347656 0.765625 3.148438 0.957031 2.890625 1.09375 C 2.640625 1.226562 2.34375 1.296875 2 1.296875 C 1.539062 1.296875 1.160156 1.1875 0.859375 0.96875 C 0.566406 0.75 0.382812 0.453125 0.3125 0.078125 L 1.203125 0.078125 C 1.242188 0.222656 1.34375 0.332031 1.5 0.40625 C 1.65625 0.476562 1.816406 0.515625 1.984375 0.515625 C 2.210938 0.515625 2.40625 0.445312 2.5625 0.3125 C 2.726562 0.175781 2.8125 -0.015625 2.8125 -0.265625 L 2.8125 -0.375 C 2.675781 -0.28125 2.523438 -0.207031 2.359375 -0.15625 C 2.203125 -0.113281 2.035156 -0.09375 1.859375 -0.09375 C 1.554688 -0.09375 1.28125 -0.164062 1.03125 -0.3125 C 0.78125 -0.457031 0.582031 -0.65625 0.4375 -0.90625 C 0.289062 -1.15625 0.21875 -1.4375 0.21875 -1.75 C 0.21875 -2.050781 0.289062 -2.328125 0.4375 -2.578125 C 0.582031 -2.835938 0.78125 -3.039062 1.03125 -3.1875 C 1.28125 -3.332031 1.554688 -3.40625 1.859375 -3.40625 C 2.078125 -3.40625 2.28125 -3.367188 2.46875 -3.296875 C 2.65625 -3.222656 2.820312 -3.117188 2.96875 -2.984375 Z M 1.96875 -0.890625 C 2.207031 -0.890625 2.40625 -0.96875 2.5625 -1.125 C 2.726562 -1.289062 2.8125 -1.5 2.8125 -1.75 C 2.8125 -1.988281 2.734375 -2.1875 2.578125 -2.34375 C 2.421875 -2.507812 2.21875 -2.59375 1.96875 -2.59375 C 1.726562 -2.59375 1.523438 -2.507812 1.359375 -2.34375 C 1.203125 -2.1875 1.125 -1.988281 1.125 -1.75 C 1.125 -1.5 1.203125 -1.289062 1.359375 -1.125 C 1.515625 -0.96875 1.71875 -0.890625 1.96875 -0.890625 Z M 1.96875 -0.890625 "/></g></g></g><g fill="#779ff7" fill-opacity="1"><g transform="translate(118.382569, 32.902981)"><g><path d="M 4.203125 -3.390625 C 4.429688 -3.390625 4.632812 -3.332031 4.8125 -3.21875 C 4.988281 -3.113281 5.125 -2.960938 5.21875 -2.765625 C 5.320312 -2.566406 5.375 -2.335938 5.375 -2.078125 L 5.375 0 L 4.484375 0 L 4.484375 -1.9375 C 4.484375 -2.382812 4.3125 -2.609375 3.96875 -2.609375 C 3.769531 -2.609375 3.613281 -2.535156 3.5 -2.390625 C 3.394531 -2.253906 3.34375 -2.054688 3.34375 -1.796875 L 3.34375 0 L 2.46875 0 L 2.46875 -1.9375 C 2.46875 -2.382812 2.304688 -2.609375 1.984375 -2.609375 C 1.773438 -2.609375 1.613281 -2.535156 1.5 -2.390625 C 1.382812 -2.253906 1.328125 -2.054688 1.328125 -1.796875 L 1.328125 0 L 0.4375 0 L 0.4375 -3.3125 L 1.0625 -3.3125 L 1.21875 -2.90625 C 1.34375 -3.050781 1.488281 -3.164062 1.65625 -3.25 C 1.832031 -3.34375 2.019531 -3.390625 2.21875 -3.390625 C 2.425781 -3.390625 2.613281 -3.34375 2.78125 -3.25 C 2.945312 -3.15625 3.078125 -3.023438 3.171875 -2.859375 C 3.285156 -3.023438 3.429688 -3.15625 3.609375 -3.25 C 3.796875 -3.34375 3.992188 -3.390625 4.203125 -3.390625 Z M 4.203125 -3.390625 "/></g></g></g><g fill="#779ff7" fill-opacity="1"><g transform="translate(124.143363, 32.902981)"><g><path d="M 3.140625 -3.328125 L 3.8125 -3.328125 L 3.8125 0 L 3.09375 0 L 3.03125 -0.296875 C 2.882812 -0.171875 2.71875 -0.0703125 2.53125 0 C 2.351562 0.0625 2.160156 0.09375 1.953125 0.09375 C 1.617188 0.09375 1.320312 0.015625 1.0625 -0.140625 C 0.800781 -0.296875 0.59375 -0.503906 0.4375 -0.765625 C 0.289062 -1.023438 0.21875 -1.328125 0.21875 -1.671875 C 0.21875 -1.992188 0.289062 -2.285156 0.4375 -2.546875 C 0.59375 -2.816406 0.800781 -3.023438 1.0625 -3.171875 C 1.320312 -3.328125 1.617188 -3.40625 1.953125 -3.40625 C 2.160156 -3.40625 2.359375 -3.367188 2.546875 -3.296875 C 2.734375 -3.222656 2.898438 -3.125 3.046875 -3 Z M 2.03125 -0.75 C 2.195312 -0.75 2.347656 -0.785156 2.484375 -0.859375 C 2.628906 -0.941406 2.738281 -1.050781 2.8125 -1.1875 C 2.882812 -1.332031 2.921875 -1.492188 2.921875 -1.671875 C 2.921875 -1.835938 2.882812 -1.988281 2.8125 -2.125 C 2.738281 -2.257812 2.628906 -2.367188 2.484375 -2.453125 C 2.347656 -2.535156 2.195312 -2.578125 2.03125 -2.578125 C 1.851562 -2.578125 1.695312 -2.535156 1.5625 -2.453125 C 1.425781 -2.367188 1.316406 -2.257812 1.234375 -2.125 C 1.160156 -1.988281 1.125 -1.835938 1.125 -1.671875 C 1.125 -1.492188 1.160156 -1.335938 1.234375 -1.203125 C 1.316406 -1.066406 1.425781 -0.957031 1.5625 -0.875 C 1.695312 -0.789062 1.851562 -0.75 2.03125 -0.75 Z M 2.03125 -0.75 "/></g></g></g><g fill="#779ff7" fill-opacity="1"><g transform="translate(128.381051, 32.902981)"><g><path d="M 0.4375 -3.765625 L 0.4375 -4.59375 L 1.328125 -4.59375 L 1.328125 -3.765625 Z M 0.4375 0 L 0.4375 -3.3125 L 1.328125 -3.3125 L 1.328125 0 Z M 0.4375 0 "/></g></g></g><g fill="#779ff7" fill-opacity="1"><g transform="translate(130.13754, 32.902981)"><g><path d="M 0.4375 0 L 0.4375 -4.515625 L 1.328125 -4.515625 L 1.328125 0 Z M 0.4375 0 "/></g></g></g><g fill="#779ff7" fill-opacity="1"><g transform="translate(131.89403, 32.902981)"><g><path d="M 0.375 0 L 0.375 -0.953125 L 1.3125 -0.953125 L 1.3125 0 Z M 0.375 0 "/></g></g></g><g fill="#779ff7" fill-opacity="1"><g transform="translate(133.576822, 32.902981)"><g><path d="M 1.96875 0.09375 C 1.632812 0.09375 1.332031 0.015625 1.0625 -0.140625 C 0.800781 -0.296875 0.59375 -0.503906 0.4375 -0.765625 C 0.289062 -1.035156 0.21875 -1.335938 0.21875 -1.671875 C 0.21875 -2.003906 0.289062 -2.300781 0.4375 -2.5625 C 0.59375 -2.820312 0.800781 -3.023438 1.0625 -3.171875 C 1.332031 -3.328125 1.640625 -3.40625 1.984375 -3.40625 C 2.265625 -3.40625 2.519531 -3.347656 2.75 -3.234375 C 2.988281 -3.128906 3.1875 -2.972656 3.34375 -2.765625 C 3.507812 -2.554688 3.617188 -2.316406 3.671875 -2.046875 L 2.78125 -2.046875 C 2.707031 -2.210938 2.597656 -2.335938 2.453125 -2.421875 C 2.304688 -2.515625 2.144531 -2.5625 1.96875 -2.5625 C 1.8125 -2.5625 1.664062 -2.519531 1.53125 -2.4375 C 1.40625 -2.363281 1.304688 -2.257812 1.234375 -2.125 C 1.160156 -1.988281 1.125 -1.835938 1.125 -1.671875 C 1.125 -1.492188 1.160156 -1.335938 1.234375 -1.203125 C 1.304688 -1.066406 1.40625 -0.957031 1.53125 -0.875 C 1.664062 -0.789062 1.8125 -0.75 1.96875 -0.75 C 2.15625 -0.75 2.316406 -0.796875 2.453125 -0.890625 C 2.585938 -0.984375 2.695312 -1.125 2.78125 -1.3125 L 3.671875 -1.3125 C 3.617188 -1.03125 3.515625 -0.785156 3.359375 -0.578125 C 3.203125 -0.367188 3.003906 -0.203125 2.765625 -0.078125 C 2.523438 0.0351562 2.257812 0.09375 1.96875 0.09375 Z M 1.96875 0.09375 "/></g></g></g><g fill="#779ff7" fill-opacity="1"><g transform="translate(137.415303, 32.902981)"><g><path d="M 2.015625 0.09375 C 1.671875 0.09375 1.363281 0.015625 1.09375 -0.140625 C 0.820312 -0.296875 0.609375 -0.503906 0.453125 -0.765625 C 0.296875 -1.023438 0.21875 -1.320312 0.21875 -1.65625 C 0.21875 -1.988281 0.296875 -2.285156 0.453125 -2.546875 C 0.609375 -2.816406 0.820312 -3.023438 1.09375 -3.171875 C 1.363281 -3.328125 1.671875 -3.40625 2.015625 -3.40625 C 2.347656 -3.40625 2.648438 -3.328125 2.921875 -3.171875 C 3.191406 -3.023438 3.40625 -2.816406 3.5625 -2.546875 C 3.71875 -2.285156 3.796875 -1.988281 3.796875 -1.65625 C 3.796875 -1.320312 3.71875 -1.023438 3.5625 -0.765625 C 3.40625 -0.503906 3.191406 -0.296875 2.921875 -0.140625 C 2.648438 0.015625 2.347656 0.09375 2.015625 0.09375 Z M 2.015625 -0.75 C 2.265625 -0.75 2.472656 -0.832031 2.640625 -1 C 2.804688 -1.164062 2.890625 -1.382812 2.890625 -1.65625 C 2.890625 -1.925781 2.804688 -2.144531 2.640625 -2.3125 C 2.472656 -2.476562 2.265625 -2.5625 2.015625 -2.5625 C 1.742188 -2.5625 1.523438 -2.476562 1.359375 -2.3125 C 1.203125 -2.144531 1.125 -1.925781 1.125 -1.65625 C 1.125 -1.382812 1.203125 -1.164062 1.359375 -1 C 1.523438 -0.832031 1.742188 -0.75 2.015625 -0.75 Z M 2.015625 -0.75 "/></g></g></g><g fill="#779ff7" fill-opacity="1"><g transform="translate(141.425754, 32.902981)"><g><path d="M 4.203125 -3.390625 C 4.429688 -3.390625 4.632812 -3.332031 4.8125 -3.21875 C 4.988281 -3.113281 5.125 -2.960938 5.21875 -2.765625 C 5.320312 -2.566406 5.375 -2.335938 5.375 -2.078125 L 5.375 0 L 4.484375 0 L 4.484375 -1.9375 C 4.484375 -2.382812 4.3125 -2.609375 3.96875 -2.609375 C 3.769531 -2.609375 3.613281 -2.535156 3.5 -2.390625 C 3.394531 -2.253906 3.34375 -2.054688 3.34375 -1.796875 L 3.34375 0 L 2.46875 0 L 2.46875 -1.9375 C 2.46875 -2.382812 2.304688 -2.609375 1.984375 -2.609375 C 1.773438 -2.609375 1.613281 -2.535156 1.5 -2.390625 C 1.382812 -2.253906 1.328125 -2.054688 1.328125 -1.796875 L 1.328125 0 L 0.4375 0 L 0.4375 -3.3125 L 1.0625 -3.3125 L 1.21875 -2.90625 C 1.34375 -3.050781 1.488281 -3.164062 1.65625 -3.25 C 1.832031 -3.34375 2.019531 -3.390625 2.21875 -3.390625 C 2.425781 -3.390625 2.613281 -3.34375 2.78125 -3.25 C 2.945312 -3.15625 3.078125 -3.023438 3.171875 -2.859375 C 3.285156 -3.023438 3.429688 -3.15625 3.609375 -3.25 C 3.796875 -3.34375 3.992188 -3.390625 4.203125 -3.390625 Z M 4.203125 -3.390625 "/></g></g></g></svg>