<svg id="Layer_1" data-name="Layer 1" xmlns="http://www.w3.org/2000/svg" viewBox="0 0 50 50"><defs><style>.cls-1{fill:#779ff7;}</style></defs><path class="cls-1" d="M11.61,32c-1.59,1.66-4.06-.79-2.47-2.45S13.19,30.38,11.61,32Zm36-2.25A23.73,23.73,0,0,1,43.5,39a1.86,1.86,0,0,1-2.41,2.78,23.26,23.26,0,0,1-5.92,4.26,2.57,2.57,0,0,1-4.81,1.75,22.41,22.41,0,0,1-5.05.67,2.42,2.42,0,0,1-4.59-.38,23.37,23.37,0,0,1-6.65-2.33A2.57,2.57,0,0,1,10,43a23.78,23.78,0,0,1-6-7.79,2.44,2.44,0,0,1-1.63-4.5A23.87,23.87,0,0,1,1.7,23c-2.7-.85-2-5.1.9-4.93A23.57,23.57,0,0,1,10.18,6.48c-1.52-3,2.33-6,4.79-3.6a3.79,3.79,0,0,1,.32.38,22.7,22.7,0,0,1,12.07-2,2,2,0,0,1,3.84.76,22.33,22.33,0,0,1,3.28,1.21A1.49,1.49,0,0,1,37,4.63a21,21,0,0,1,1.78,1.24,23.42,23.42,0,0,1,3.78,3.6,1.37,1.37,0,0,1,1.57,2.09,24,24,0,0,1,2.06,3.79,1.92,1.92,0,0,1,1.2,3.56,24.17,24.17,0,0,1,.74,6A2.49,2.49,0,0,1,47.63,29.78Zm-5.8-18.46c-.92.11-1.84.28-2.75.47a3.09,3.09,0,0,1-.15,1.28,34,34,0,0,1,6,3.1l.49-.49a22.94,22.94,0,0,0-1-2.11c-.28-.51-.59-1-.91-1.5A1.36,1.36,0,0,1,41.83,11.32ZM23,21.88A33.94,33.94,0,0,1,30.74,26a1.72,1.72,0,0,1,.32-.23,33.55,33.55,0,0,0-3.78-7.55A1.57,1.57,0,0,1,25.76,18a35.42,35.42,0,0,0-3.08,2.7A1.85,1.85,0,0,1,23,21.88ZM33.16,11.36a3,3,0,0,1,.22-.63,32.89,32.89,0,0,0-8.27-3.86c-.62.85-1.2,1.73-1.74,2.62a2.27,2.27,0,0,1,.88,1.26A34.16,34.16,0,0,1,33.16,11.36Zm-.09.85a32.84,32.84,0,0,0-8.73-.61A2.32,2.32,0,0,1,24,12.73c.78.8,1.51,1.62,2.19,2.47a1.54,1.54,0,0,1,1.61.37,34.57,34.57,0,0,1,5.39-2.81A3.45,3.45,0,0,1,33.07,12.21Zm-13.29,0a33,33,0,0,0-15,7.39,2.27,2.27,0,0,1,.18.81,33.91,33.91,0,0,1,14.56.41,1.79,1.79,0,0,1,.3-.42,1.82,1.82,0,0,1,2.3-.28,34.88,34.88,0,0,1,3.12-2.75,1.61,1.61,0,0,1,.23-1.67c-.65-.81-1.34-1.59-2.07-2.35A2.37,2.37,0,0,1,19.78,12.21ZM31.86,25.47a2,2,0,0,1,.87.1,34.45,34.45,0,0,0,2.88-10.46,3.07,3.07,0,0,1-2.17-1.56,32.7,32.7,0,0,0-5.27,2.76,1.66,1.66,0,0,1-.24,1.33A34.4,34.4,0,0,1,31.86,25.47Zm1.6.53a2,2,0,0,1,.46.64,33.21,33.21,0,0,0,4.47-2.4,34.61,34.61,0,0,0-1.75-9.15l-.18,0A35.84,35.84,0,0,1,33.46,26Zm.46,2.48a34,34,0,0,1,3.6,3.71,1.29,1.29,0,0,1,.42-.1,35.2,35.2,0,0,0,.49-6.87,33.22,33.22,0,0,1-4.3,2.25A2.09,2.09,0,0,1,33.92,28.48Zm5.28-4.76a33.87,33.87,0,0,0,4-3.21,34.53,34.53,0,0,0-5.16-6.11,3.34,3.34,0,0,1-.63.43A35.59,35.59,0,0,1,39.2,23.72Zm4.63-3.81c.45-.43.88-.88,1.3-1.35A2,2,0,0,1,44.61,17a33.25,33.25,0,0,0-5.81-3.05A35.61,35.61,0,0,1,43.83,19.91ZM36.23,5.64a33.08,33.08,0,0,1,.37,3.42A3.1,3.1,0,0,1,38.88,11c.95-.2,1.9-.37,2.85-.49a1.52,1.52,0,0,1,.18-.46A22.64,22.64,0,0,0,36.6,5.37,1.41,1.41,0,0,1,36.23,5.64Zm-5.4-2.46A35,35,0,0,1,35,9.23,2.49,2.49,0,0,1,35.77,9c-.07-1.09-.19-2.17-.36-3.26A1.53,1.53,0,0,1,34.11,4,21.23,21.23,0,0,0,31,2.88,2.38,2.38,0,0,1,30.83,3.18Zm-5.17,3A34.07,34.07,0,0,1,33.85,10l.42-.39a34,34,0,0,0-4-5.89,2,2,0,0,1-2.31-.24ZM15.69,4a3.46,3.46,0,0,1,.14.53,33.82,33.82,0,0,1,9,1.34l2.61-3.06a2,2,0,0,1-.18-.69A22.1,22.1,0,0,0,15.69,4Zm-.11,2.37a34.71,34.71,0,0,1,4.88,3.2,2.28,2.28,0,0,1,2.15-.46c.51-.86,1.06-1.69,1.65-2.51A33.38,33.38,0,0,0,15.85,5.4,2.86,2.86,0,0,1,15.58,6.39ZM3.44,18.25l.87.63a34,34,0,0,1,15.34-7.51,2.46,2.46,0,0,1,.29-1.12,32.35,32.35,0,0,0-4.82-3.14,3,3,0,0,1-4.44.09A23.39,23.39,0,0,0,3.44,18.25Zm16.2,4.57a1.94,1.94,0,0,1-.36-1.18,33.2,33.2,0,0,0-14.44-.35,2.52,2.52,0,0,1-2.31,1.79,22.82,22.82,0,0,0,.62,7.35,2.44,2.44,0,0,1,1.63,4.49,22.71,22.71,0,0,0,5.59,7.31,2.57,2.57,0,0,1,1.54-1A35.2,35.2,0,0,1,19.64,22.82Zm-4.8,20.09a34.32,34.32,0,0,0,16-13.7,2.13,2.13,0,0,1-.58-2.58,33.39,33.39,0,0,0-7.55-3.94,1.84,1.84,0,0,1-2.4.68A34.36,34.36,0,0,0,12.75,41.2,2.63,2.63,0,0,1,14.84,42.91ZM32.21,29.65a2.35,2.35,0,0,1-.65-.06A35.14,35.14,0,0,1,15,43.77a2.56,2.56,0,0,1-.36,1.36,22.68,22.68,0,0,0,6,2.11,2.42,2.42,0,0,1,4.82.4A21.87,21.87,0,0,0,30.13,47a2.63,2.63,0,0,1,2.29-2.92A35,35,0,0,0,32.21,29.65Zm1.2,14.55a33.88,33.88,0,0,0,4-9.5,1.43,1.43,0,0,1-.51-2,33.42,33.42,0,0,0-3.47-3.58,2.8,2.8,0,0,1-.4.27,35.89,35.89,0,0,1,.25,14.74A.37.37,0,0,1,33.41,44.2Zm7.52-5.38a33.27,33.27,0,0,0-2.46-4l-.25.06a35.52,35.52,0,0,1-4,9.72l.65.7a22.83,22.83,0,0,0,5.68-4.1A1.92,1.92,0,0,1,40.93,38.82Zm5.84-9.19A2.52,2.52,0,0,1,46,25.48a32.21,32.21,0,0,0-2.27-4.25,34.66,34.66,0,0,1-4.43,3.47,35.89,35.89,0,0,1-.49,7.6,1.41,1.41,0,0,1,.38,2,34,34,0,0,1,2.54,4.14,1.76,1.76,0,0,1,1.11.09A23.5,23.5,0,0,0,46.77,29.63Zm.51-4.79a23.38,23.38,0,0,0-.7-5.68,1.67,1.67,0,0,1-.74-.12c-.5.56-1,1.09-1.54,1.6A33.7,33.7,0,0,1,46.66,25,2.31,2.31,0,0,1,47.28,24.84Zm-4.21,6.45a.92.92,0,0,0-.48,1.78A.92.92,0,0,0,43.07,31.29ZM25.74,30.21a1.16,1.16,0,0,0,.35-2.3A1.16,1.16,0,0,0,25.74,30.21Zm.2,9.71a1.51,1.51,0,0,0-.79,2.92A1.51,1.51,0,0,0,25.94,39.92ZM17.12,15.09a1.28,1.28,0,0,0-.67,2.47A1.28,1.28,0,0,0,17.12,15.09Z" transform="translate(0 0)"/></svg>