<svg xmlns="http://www.w3.org/2000/svg" xmlns:xlink="http://www.w3.org/1999/xlink" width="150" zoomAndPan="magnify" viewBox="0 0 112.5 37.5" height="50" preserveAspectRatio="xMidYMid meet" version="1.0"><defs><g/><clipPath id="030f249c56"><path d="M 0.492188 0 L 111.511719 0 L 111.511719 37.007812 L 0.492188 37.007812 Z M 0.492188 0 " clip-rule="nonzero"/></clipPath><clipPath id="264312714d"><path d="M 0.492188 0 L 37.5 0 L 37.5 37 L 0.492188 37 Z M 0.492188 0 " clip-rule="nonzero"/></clipPath></defs><g clip-path="url(#030f249c56)"><path fill="#ffffff" d="M 0.492188 0 L 111.511719 0 L 111.511719 37.007812 L 0.492188 37.007812 Z M 0.492188 0 " fill-opacity="1" fill-rule="nonzero"/><path fill="#ffffff" d="M 0.492188 0 L 111.511719 0 L 111.511719 37.007812 L 0.492188 37.007812 Z M 0.492188 0 " fill-opacity="1" fill-rule="nonzero"/></g><g clip-path="url(#264312714d)"><path fill="#779ff7" d="M 9.085938 23.683594 C 7.910156 24.914062 6.082031 23.097656 7.257812 21.871094 C 8.433594 20.640625 10.253906 22.484375 9.085938 23.683594 Z M 35.730469 22.019531 C 35.214844 24.523438 34.203125 26.804688 32.6875 28.863281 C 32.910156 29.125 33.019531 29.425781 33.019531 29.765625 C 33.019531 30.105469 32.90625 30.40625 32.683594 30.664062 C 32.460938 30.921875 32.179688 31.074219 31.84375 31.121094 C 31.503906 31.171875 31.191406 31.105469 30.90625 30.921875 C 29.613281 32.207031 28.152344 33.257812 26.523438 34.074219 C 26.585938 34.304688 26.601562 34.539062 26.574219 34.773438 C 26.546875 35.007812 26.480469 35.230469 26.371094 35.441406 C 26.257812 35.652344 26.117188 35.835938 25.9375 35.992188 C 25.757812 36.148438 25.558594 36.265625 25.335938 36.347656 C 25.113281 36.429688 24.882812 36.464844 24.644531 36.460938 C 24.40625 36.457031 24.179688 36.410156 23.960938 36.320312 C 23.742188 36.226562 23.546875 36.101562 23.375 35.9375 C 23.203125 35.773438 23.066406 35.585938 22.964844 35.371094 C 21.738281 35.679688 20.492188 35.84375 19.226562 35.867188 C 19.078125 36.226562 18.835938 36.503906 18.503906 36.707031 C 18.171875 36.910156 17.8125 36.996094 17.425781 36.960938 C 17.039062 36.929688 16.695312 36.789062 16.402344 36.535156 C 16.109375 36.28125 15.917969 35.964844 15.828125 35.585938 C 14.101562 35.261719 12.460938 34.6875 10.90625 33.859375 C 10.582031 34.121094 10.210938 34.261719 9.792969 34.28125 C 9.375 34.296875 8.996094 34.1875 8.648438 33.957031 C 8.304688 33.722656 8.0625 33.40625 7.921875 33.015625 C 7.78125 32.621094 7.773438 32.226562 7.894531 31.824219 C 6.007812 30.214844 4.527344 28.292969 3.453125 26.058594 C 3.246094 26.089844 3.042969 26.085938 2.835938 26.046875 C 2.632812 26.007812 2.4375 25.933594 2.257812 25.828125 C 2.082031 25.71875 1.921875 25.585938 1.789062 25.425781 C 1.65625 25.265625 1.554688 25.085938 1.484375 24.890625 C 1.414062 24.691406 1.378906 24.492188 1.375 24.28125 C 1.375 24.074219 1.410156 23.871094 1.480469 23.671875 C 1.550781 23.476562 1.648438 23.296875 1.78125 23.132812 C 1.914062 22.972656 2.070312 22.835938 2.246094 22.730469 C 1.769531 20.855469 1.605469 18.953125 1.75 17.023438 C -0.246094 16.394531 0.269531 13.25 2.417969 13.375 C 2.902344 11.695312 3.621094 10.125 4.578125 8.664062 C 5.535156 7.203125 6.683594 5.914062 8.027344 4.796875 C 6.902344 2.574219 9.753906 0.355469 11.574219 2.132812 C 11.660156 2.21875 11.738281 2.3125 11.808594 2.414062 C 14.648438 1.085938 17.628906 0.59375 20.742188 0.933594 C 20.878906 0.609375 21.105469 0.367188 21.414062 0.203125 C 21.722656 0.0390625 22.050781 -0.0078125 22.394531 0.0585938 C 22.734375 0.128906 23.019531 0.296875 23.242188 0.566406 C 23.46875 0.835938 23.582031 1.144531 23.585938 1.496094 C 24.417969 1.730469 25.226562 2.027344 26.011719 2.390625 C 26.1875 2.210938 26.398438 2.101562 26.644531 2.0625 C 26.894531 2.023438 27.125 2.066406 27.34375 2.1875 C 27.566406 2.3125 27.722656 2.488281 27.824219 2.71875 C 27.921875 2.949219 27.941406 3.183594 27.878906 3.425781 C 28.332031 3.710938 28.773438 4.015625 29.195312 4.34375 C 30.226562 5.128906 31.160156 6.015625 31.992188 7.007812 C 32.203125 6.933594 32.414062 6.929688 32.625 6.996094 C 32.835938 7.058594 33.007812 7.179688 33.140625 7.355469 C 33.273438 7.53125 33.34375 7.730469 33.34375 7.953125 C 33.347656 8.175781 33.285156 8.375 33.15625 8.554688 C 33.746094 9.445312 34.257812 10.378906 34.679688 11.359375 C 35.011719 11.320312 35.320312 11.390625 35.605469 11.570312 C 35.890625 11.75 36.085938 12 36.191406 12.320312 C 36.300781 12.636719 36.292969 12.953125 36.175781 13.269531 C 36.058594 13.582031 35.855469 13.824219 35.566406 13.996094 C 35.9375 15.453125 36.121094 16.933594 36.117188 18.4375 C 36.320312 18.496094 36.511719 18.589844 36.683594 18.71875 C 36.859375 18.847656 37.003906 19 37.125 19.175781 C 37.246094 19.355469 37.332031 19.550781 37.382812 19.757812 C 37.433594 19.96875 37.449219 20.179688 37.429688 20.394531 C 37.40625 20.605469 37.347656 20.808594 37.253906 21.003906 C 37.160156 21.199219 37.039062 21.371094 36.882812 21.519531 C 36.730469 21.671875 36.554688 21.792969 36.359375 21.878906 C 36.164062 21.96875 35.960938 22.023438 35.746094 22.042969 Z M 31.4375 8.355469 C 30.757812 8.4375 30.078125 8.5625 29.402344 8.703125 C 29.433594 9.027344 29.394531 9.34375 29.292969 9.652344 C 30.847656 10.269531 32.328125 11.03125 33.734375 11.945312 L 34.09375 11.582031 C 33.875 11.050781 33.628906 10.53125 33.355469 10.019531 C 33.148438 9.644531 32.917969 9.28125 32.683594 8.910156 C 32.4375 8.992188 32.199219 8.980469 31.964844 8.878906 C 31.730469 8.777344 31.558594 8.609375 31.453125 8.378906 Z M 17.515625 16.195312 C 19.558594 16.960938 21.46875 17.976562 23.246094 19.242188 C 23.316406 19.175781 23.394531 19.121094 23.480469 19.074219 C 22.785156 17.09375 21.851562 15.230469 20.683594 13.484375 C 20.277344 13.640625 19.902344 13.585938 19.558594 13.324219 C 18.761719 13.945312 18 14.609375 17.28125 15.320312 C 17.460938 15.585938 17.539062 15.875 17.515625 16.195312 Z M 25.035156 8.40625 C 25.074219 8.246094 25.128906 8.089844 25.199219 7.941406 C 23.292969 6.703125 21.25 5.75 19.078125 5.085938 C 18.621094 5.714844 18.191406 6.363281 17.789062 7.023438 C 18.121094 7.257812 18.335938 7.566406 18.441406 7.957031 C 20.660156 7.816406 22.859375 7.96875 25.035156 8.40625 Z M 24.96875 9.035156 C 22.835938 8.597656 20.683594 8.445312 18.507812 8.585938 C 18.496094 8.886719 18.414062 9.164062 18.257812 9.421875 C 18.832031 10.015625 19.375 10.621094 19.878906 11.25 C 20.085938 11.175781 20.296875 11.164062 20.511719 11.214844 C 20.726562 11.261719 20.914062 11.367188 21.070312 11.523438 C 22.335938 10.714844 23.667969 10.019531 25.058594 9.445312 C 25.019531 9.3125 24.988281 9.175781 24.96875 9.035156 Z M 15.132812 9.035156 C 10.953125 9.890625 7.253906 11.714844 4.03125 14.507812 C 4.113281 14.699219 4.15625 14.898438 4.164062 15.105469 C 7.777344 14.417969 11.371094 14.519531 14.941406 15.410156 C 15 15.296875 15.074219 15.191406 15.164062 15.097656 C 15.386719 14.863281 15.65625 14.726562 15.976562 14.6875 C 16.296875 14.648438 16.59375 14.71875 16.863281 14.890625 C 17.59375 14.167969 18.363281 13.488281 19.175781 12.855469 C 19.082031 12.652344 19.054688 12.4375 19.085938 12.214844 C 19.117188 11.992188 19.203125 11.792969 19.34375 11.621094 C 18.863281 11.019531 18.351562 10.441406 17.8125 9.878906 C 17.589844 10.042969 17.339844 10.144531 17.066406 10.1875 C 16.792969 10.230469 16.523438 10.210938 16.261719 10.128906 C 15.996094 10.046875 15.765625 9.910156 15.566406 9.714844 C 15.371094 9.523438 15.226562 9.296875 15.132812 9.035156 Z M 24.074219 18.851562 C 24.292969 18.828125 24.507812 18.851562 24.71875 18.925781 C 25.839844 16.457031 26.550781 13.878906 26.847656 11.183594 C 26.128906 11.058594 25.59375 10.671875 25.242188 10.027344 C 23.882812 10.589844 22.582031 11.273438 21.34375 12.070312 C 21.429688 12.425781 21.371094 12.753906 21.164062 13.054688 C 22.382812 14.863281 23.351562 16.796875 24.074219 18.851562 Z M 25.257812 19.242188 C 25.402344 19.378906 25.515625 19.535156 25.597656 19.71875 C 26.746094 19.210938 27.851562 18.617188 28.90625 17.941406 C 28.78125 15.625 28.351562 13.367188 27.613281 11.167969 L 27.480469 11.167969 C 27.167969 13.976562 26.429688 16.671875 25.257812 19.242188 Z M 25.597656 21.078125 C 26.554688 21.925781 27.445312 22.84375 28.261719 23.824219 C 28.363281 23.78125 28.464844 23.757812 28.574219 23.75 C 28.863281 22.066406 28.980469 20.371094 28.9375 18.667969 C 27.917969 19.300781 26.855469 19.855469 25.753906 20.332031 C 25.765625 20.59375 25.714844 20.84375 25.597656 21.078125 Z M 29.507812 17.554688 C 30.554688 16.839844 31.539062 16.046875 32.46875 15.179688 C 31.371094 13.523438 30.097656 12.015625 28.648438 10.65625 C 28.503906 10.78125 28.347656 10.886719 28.183594 10.976562 C 28.90625 13.113281 29.347656 15.304688 29.507812 17.554688 Z M 32.933594 14.734375 C 33.265625 14.417969 33.585938 14.085938 33.894531 13.738281 C 33.59375 13.410156 33.464844 13.023438 33.511719 12.582031 C 32.152344 11.6875 30.71875 10.933594 29.210938 10.324219 C 30.613281 11.660156 31.855469 13.128906 32.933594 14.734375 Z M 27.308594 4.175781 C 27.445312 5.011719 27.535156 5.855469 27.582031 6.707031 C 27.96875 6.785156 28.3125 6.949219 28.609375 7.207031 C 28.910156 7.460938 29.128906 7.773438 29.269531 8.140625 C 29.972656 7.992188 30.675781 7.867188 31.378906 7.777344 C 31.40625 7.65625 31.449219 7.542969 31.511719 7.4375 C 30.386719 6.078125 29.074219 4.921875 27.582031 3.972656 C 27.5 4.054688 27.410156 4.121094 27.308594 4.175781 Z M 23.3125 2.355469 C 24.496094 3.738281 25.527344 5.230469 26.398438 6.832031 C 26.578125 6.742188 26.769531 6.6875 26.96875 6.660156 C 26.917969 5.855469 26.828125 5.054688 26.703125 4.25 C 26.550781 4.226562 26.414062 4.179688 26.28125 4.101562 C 26.152344 4.023438 26.042969 3.925781 25.953125 3.804688 C 25.863281 3.683594 25.796875 3.550781 25.761719 3.402344 C 25.722656 3.257812 25.71875 3.109375 25.738281 2.960938 C 24.992188 2.625 24.226562 2.347656 23.4375 2.132812 C 23.402344 2.207031 23.359375 2.28125 23.3125 2.355469 Z M 19.484375 4.574219 C 21.632812 5.246094 23.652344 6.1875 25.546875 7.402344 L 25.859375 7.113281 C 25.023438 5.554688 24.035156 4.101562 22.898438 2.753906 C 22.621094 2.910156 22.328125 2.96875 22.015625 2.9375 C 21.699219 2.90625 21.425781 2.785156 21.1875 2.574219 Z M 12.105469 2.960938 C 12.152344 3.089844 12.1875 3.21875 12.210938 3.351562 C 14.476562 3.382812 16.695312 3.710938 18.871094 4.34375 L 20.800781 2.078125 C 20.726562 1.917969 20.683594 1.746094 20.667969 1.570312 C 17.6875 1.246094 14.832031 1.710938 12.105469 2.960938 Z M 12.023438 4.714844 C 13.296875 5.402344 14.5 6.191406 15.636719 7.082031 C 16.105469 6.675781 16.636719 6.5625 17.226562 6.742188 C 17.605469 6.105469 18.011719 5.492188 18.449219 4.886719 C 16.414062 4.324219 14.335938 4.027344 12.222656 3.996094 C 12.203125 4.253906 12.136719 4.496094 12.023438 4.730469 Z M 3.039062 13.507812 L 3.683594 13.972656 C 6.988281 11.140625 10.773438 9.285156 15.035156 8.414062 C 15.042969 8.121094 15.113281 7.84375 15.25 7.585938 C 14.132812 6.707031 12.941406 5.929688 11.683594 5.261719 C 11.480469 5.5 11.234375 5.683594 10.949219 5.816406 C 10.667969 5.945312 10.367188 6.015625 10.054688 6.023438 C 9.742188 6.027344 9.441406 5.972656 9.152344 5.851562 C 8.863281 5.730469 8.613281 5.554688 8.398438 5.328125 C 7.128906 6.40625 6.039062 7.640625 5.128906 9.03125 C 4.21875 10.421875 3.519531 11.914062 3.039062 13.507812 Z M 15.03125 16.890625 C 14.84375 16.628906 14.753906 16.335938 14.761719 16.015625 C 11.21875 15.136719 7.65625 15.050781 4.074219 15.757812 C 3.960938 16.136719 3.746094 16.449219 3.433594 16.691406 C 3.117188 16.9375 2.761719 17.066406 2.367188 17.082031 C 2.222656 18.921875 2.375 20.734375 2.824219 22.523438 C 3.246094 22.460938 3.644531 22.542969 4.007812 22.761719 C 4.375 22.980469 4.632812 23.292969 4.777344 23.695312 C 4.925781 24.09375 4.925781 24.5 4.785156 24.902344 C 4.648438 25.304688 4.394531 25.621094 4.03125 25.84375 C 5.039062 27.933594 6.417969 29.738281 8.167969 31.253906 C 8.453125 30.863281 8.835938 30.617188 9.308594 30.515625 C 9.585938 28.015625 10.210938 25.605469 11.183594 23.289062 C 12.15625 20.96875 13.4375 18.835938 15.03125 16.890625 Z M 11.476562 31.757812 C 13.933594 30.730469 16.171875 29.351562 18.195312 27.621094 C 20.21875 25.886719 21.925781 23.886719 23.320312 21.621094 C 23.035156 21.390625 22.851562 21.097656 22.773438 20.738281 C 22.691406 20.382812 22.730469 20.039062 22.890625 19.710938 C 21.152344 18.5 19.289062 17.527344 17.300781 16.792969 C 17.210938 16.9375 17.097656 17.0625 16.964844 17.167969 C 16.828125 17.269531 16.675781 17.34375 16.511719 17.390625 C 16.347656 17.4375 16.179688 17.453125 16.007812 17.4375 C 15.839844 17.421875 15.679688 17.375 15.527344 17.296875 C 13.980469 19.183594 12.730469 21.246094 11.777344 23.492188 C 10.828125 25.738281 10.210938 28.070312 9.929688 30.492188 C 10.285156 30.546875 10.601562 30.683594 10.878906 30.914062 C 11.15625 31.140625 11.355469 31.421875 11.476562 31.757812 Z M 24.332031 21.945312 C 24.171875 21.953125 24.011719 21.9375 23.851562 21.902344 C 22.417969 24.253906 20.652344 26.328125 18.558594 28.121094 C 16.464844 29.914062 14.144531 31.339844 11.59375 32.394531 C 11.601562 32.757812 11.511719 33.09375 11.328125 33.402344 C 12.734375 34.132812 14.214844 34.652344 15.769531 34.964844 C 15.796875 34.734375 15.867188 34.515625 15.980469 34.316406 C 16.089844 34.113281 16.238281 33.9375 16.417969 33.789062 C 16.597656 33.644531 16.796875 33.535156 17.019531 33.46875 C 17.238281 33.398438 17.464844 33.375 17.695312 33.394531 C 17.925781 33.414062 18.144531 33.476562 18.351562 33.578125 C 18.558594 33.683594 18.738281 33.820312 18.894531 33.996094 C 19.046875 34.171875 19.160156 34.367188 19.238281 34.585938 C 19.3125 34.804688 19.347656 35.027344 19.335938 35.261719 C 20.507812 35.226562 21.660156 35.070312 22.792969 34.785156 C 22.761719 34.53125 22.78125 34.277344 22.851562 34.03125 C 22.921875 33.785156 23.035156 33.558594 23.195312 33.355469 C 23.355469 33.152344 23.546875 32.988281 23.769531 32.863281 C 23.992188 32.734375 24.234375 32.65625 24.488281 32.625 C 25.1875 29.054688 25.136719 25.492188 24.332031 21.945312 Z M 25.222656 32.714844 C 26.570312 30.523438 27.554688 28.179688 28.183594 25.683594 C 28.054688 25.613281 27.949219 25.519531 27.863281 25.402344 C 27.773438 25.289062 27.714844 25.164062 27.675781 25.023438 C 27.640625 24.882812 27.636719 24.742188 27.65625 24.601562 C 27.679688 24.457031 27.726562 24.324219 27.804688 24.203125 C 27.015625 23.253906 26.15625 22.371094 25.234375 21.550781 C 25.144531 21.628906 25.042969 21.695312 24.941406 21.753906 C 25.765625 25.375 25.828125 29.011719 25.125 32.660156 C 25.160156 32.671875 25.191406 32.691406 25.222656 32.714844 Z M 30.785156 28.730469 C 30.25 27.703125 29.644531 26.714844 28.964844 25.769531 L 28.78125 25.816406 C 28.152344 28.363281 27.167969 30.757812 25.820312 33.011719 L 26.300781 33.527344 C 27.859375 32.734375 29.261719 31.722656 30.503906 30.492188 C 30.339844 30.203125 30.28125 29.894531 30.335938 29.5625 C 30.386719 29.234375 30.539062 28.957031 30.785156 28.730469 Z M 35.109375 21.929688 C 34.964844 21.871094 34.832031 21.792969 34.707031 21.703125 C 34.585938 21.609375 34.472656 21.5 34.375 21.378906 C 34.277344 21.261719 34.199219 21.128906 34.132812 20.988281 C 34.066406 20.847656 34.019531 20.699219 33.992188 20.546875 C 33.964844 20.394531 33.957031 20.242188 33.964844 20.085938 C 33.976562 19.933594 34.003906 19.78125 34.050781 19.632812 C 34.101562 19.488281 34.164062 19.347656 34.246094 19.214844 C 34.328125 19.085938 34.425781 18.964844 34.539062 18.859375 C 34.058594 17.769531 33.5 16.71875 32.859375 15.714844 C 31.835938 16.65625 30.742188 17.515625 29.582031 18.28125 C 29.660156 20.167969 29.539062 22.042969 29.21875 23.90625 C 29.335938 23.984375 29.4375 24.082031 29.515625 24.199219 C 29.59375 24.316406 29.648438 24.445312 29.675781 24.585938 C 29.699219 24.726562 29.699219 24.867188 29.667969 25.003906 C 29.636719 25.144531 29.582031 25.269531 29.5 25.386719 C 30.199219 26.363281 30.824219 27.382812 31.378906 28.449219 C 31.660156 28.382812 31.933594 28.402344 32.199219 28.515625 C 33.636719 26.527344 34.605469 24.332031 35.109375 21.929688 Z M 35.488281 18.386719 C 35.488281 16.960938 35.3125 15.5625 34.96875 14.179688 C 34.78125 14.195312 34.597656 14.164062 34.421875 14.09375 C 34.050781 14.507812 33.679688 14.898438 33.28125 15.277344 C 33.941406 16.308594 34.523438 17.382812 35.027344 18.503906 C 35.175781 18.441406 35.328125 18.402344 35.488281 18.386719 Z M 32.371094 23.160156 C 32.1875 23.109375 32.015625 23.132812 31.855469 23.226562 C 31.691406 23.320312 31.585938 23.457031 31.535156 23.640625 C 31.488281 23.820312 31.507812 23.996094 31.601562 24.15625 C 31.695312 24.320312 31.835938 24.425781 32.015625 24.476562 C 32.199219 24.523438 32.371094 24.503906 32.53125 24.410156 C 32.695312 24.3125 32.800781 24.175781 32.851562 23.996094 C 32.898438 23.8125 32.878906 23.640625 32.785156 23.476562 C 32.691406 23.3125 32.550781 23.207031 32.371094 23.160156 Z M 19.542969 22.359375 C 19.78125 22.394531 19.992188 22.34375 20.183594 22.203125 C 20.375 22.0625 20.488281 21.871094 20.523438 21.636719 C 20.5625 21.402344 20.507812 21.1875 20.367188 20.996094 C 20.226562 20.804688 20.039062 20.691406 19.804688 20.65625 C 19.570312 20.621094 19.355469 20.675781 19.164062 20.816406 C 18.972656 20.957031 18.859375 21.144531 18.824219 21.378906 C 18.785156 21.613281 18.839844 21.828125 18.980469 22.019531 C 19.121094 22.210938 19.308594 22.324219 19.542969 22.359375 Z M 19.691406 29.546875 C 19.550781 29.507812 19.402344 29.496094 19.257812 29.515625 C 19.109375 29.535156 18.972656 29.582031 18.84375 29.65625 C 18.714844 29.730469 18.605469 29.824219 18.511719 29.941406 C 18.421875 30.0625 18.359375 30.191406 18.320312 30.335938 C 18.28125 30.476562 18.269531 30.621094 18.289062 30.769531 C 18.308594 30.917969 18.355469 31.054688 18.429688 31.183594 C 18.503906 31.3125 18.597656 31.421875 18.714844 31.511719 C 18.835938 31.605469 18.964844 31.667969 19.109375 31.707031 C 19.25 31.746094 19.394531 31.757812 19.542969 31.738281 C 19.691406 31.71875 19.828125 31.671875 19.957031 31.597656 C 20.085938 31.523438 20.195312 31.429688 20.285156 31.308594 C 20.378906 31.191406 20.441406 31.0625 20.480469 30.917969 C 20.519531 30.777344 20.53125 30.628906 20.511719 30.484375 C 20.492188 30.335938 20.445312 30.199219 20.371094 30.070312 C 20.296875 29.941406 20.203125 29.832031 20.082031 29.738281 C 19.964844 29.648438 19.835938 29.585938 19.691406 29.546875 Z M 13.164062 11.167969 C 12.914062 11.105469 12.679688 11.140625 12.457031 11.273438 C 12.234375 11.402344 12.089844 11.59375 12.023438 11.839844 C 11.957031 12.089844 11.984375 12.324219 12.109375 12.550781 C 12.234375 12.773438 12.421875 12.921875 12.667969 12.996094 C 12.917969 13.058594 13.152344 13.023438 13.375 12.894531 C 13.597656 12.761719 13.742188 12.574219 13.808594 12.324219 C 13.875 12.078125 13.847656 11.839844 13.722656 11.617188 C 13.597656 11.390625 13.410156 11.242188 13.164062 11.167969 Z M 13.164062 11.167969 " fill-opacity="1" fill-rule="nonzero"/></g><path stroke-linecap="butt" transform="matrix(0, -0.740132, 0.740132, 0, 38.492042, 35.7923)" fill="none" stroke-linejoin="miter" d="M -0.000903419 0.501585 L 46.733821 0.501585 " stroke="#779ff7" stroke-width="1" stroke-opacity="1" stroke-miterlimit="4"/><g fill="#779ff7" fill-opacity="1"><g transform="translate(40.65428, 17.789143)"><g><path d="M 8.046875 0 L 6.71875 0 L 6.140625 -3.921875 L 4.34375 -0.015625 L 4.015625 -0.015625 L 2.234375 -3.921875 L 1.640625 0 L 0.3125 0 L 1.25 -6 L 2.5625 -6 L 4.171875 -2.328125 L 5.8125 -6 L 7.109375 -6 Z M 8.046875 0 "/></g></g></g><g fill="#779ff7" fill-opacity="1"><g transform="translate(49.025217, 17.789143)"><g><path d="M 2.25 0.125 C 1.863281 0.125 1.523438 0.0546875 1.234375 -0.078125 C 0.941406 -0.210938 0.710938 -0.40625 0.546875 -0.65625 C 0.378906 -0.90625 0.296875 -1.195312 0.296875 -1.53125 L 1.515625 -1.53125 C 1.523438 -1.320312 1.597656 -1.164062 1.734375 -1.0625 C 1.878906 -0.957031 2.066406 -0.90625 2.296875 -0.90625 C 2.472656 -0.90625 2.625 -0.941406 2.75 -1.015625 C 2.882812 -1.097656 2.953125 -1.21875 2.953125 -1.375 C 2.953125 -1.53125 2.863281 -1.640625 2.6875 -1.703125 C 2.507812 -1.773438 2.300781 -1.832031 2.0625 -1.875 C 1.875 -1.894531 1.679688 -1.929688 1.484375 -1.984375 C 1.285156 -2.035156 1.101562 -2.109375 0.9375 -2.203125 C 0.769531 -2.304688 0.632812 -2.441406 0.53125 -2.609375 C 0.425781 -2.785156 0.375 -3.007812 0.375 -3.28125 C 0.375 -3.570312 0.453125 -3.828125 0.609375 -4.046875 C 0.765625 -4.273438 0.984375 -4.453125 1.265625 -4.578125 C 1.546875 -4.703125 1.875 -4.765625 2.25 -4.765625 C 2.625 -4.765625 2.945312 -4.695312 3.21875 -4.5625 C 3.5 -4.4375 3.710938 -4.257812 3.859375 -4.03125 C 4.015625 -3.800781 4.09375 -3.53125 4.09375 -3.21875 L 2.90625 -3.21875 C 2.90625 -3.394531 2.84375 -3.53125 2.71875 -3.625 C 2.601562 -3.71875 2.4375 -3.765625 2.21875 -3.765625 C 2.019531 -3.765625 1.863281 -3.722656 1.75 -3.640625 C 1.644531 -3.554688 1.59375 -3.445312 1.59375 -3.3125 C 1.59375 -3.164062 1.675781 -3.0625 1.84375 -3 C 2.019531 -2.945312 2.226562 -2.898438 2.46875 -2.859375 C 2.65625 -2.828125 2.847656 -2.785156 3.046875 -2.734375 C 3.253906 -2.679688 3.441406 -2.609375 3.609375 -2.515625 C 3.785156 -2.421875 3.925781 -2.285156 4.03125 -2.109375 C 4.132812 -1.941406 4.1875 -1.71875 4.1875 -1.4375 C 4.1875 -1.113281 4.101562 -0.832031 3.9375 -0.59375 C 3.78125 -0.363281 3.554688 -0.1875 3.265625 -0.0625 C 2.972656 0.0625 2.632812 0.125 2.25 0.125 Z M 2.25 0.125 "/></g></g></g><g fill="#779ff7" fill-opacity="1"><g transform="translate(53.532645, 17.789143)"><g><path d="M 0.515625 0 L 0.515625 -1.34375 L 1.84375 -1.34375 L 1.84375 0 Z M 0.515625 0 "/></g></g></g><g fill="#779ff7" fill-opacity="1"><g transform="translate(55.885093, 17.789143)"><g><path d="M 5.6875 -6 L 3.578125 -2.421875 L 3.578125 0 L 2.234375 0 L 2.234375 -2.4375 L 0.140625 -6 L 1.53125 -6 L 2.921875 -3.609375 L 4.3125 -6 Z M 5.6875 -6 "/></g></g></g><g fill="#779ff7" fill-opacity="1"><g transform="translate(61.714695, 17.789143)"><g><path d="M 2.8125 0.125 C 2.320312 0.125 1.890625 0.0195312 1.515625 -0.1875 C 1.140625 -0.40625 0.84375 -0.695312 0.625 -1.0625 C 0.40625 -1.4375 0.296875 -1.851562 0.296875 -2.3125 C 0.296875 -2.78125 0.40625 -3.195312 0.625 -3.5625 C 0.84375 -3.9375 1.140625 -4.226562 1.515625 -4.4375 C 1.890625 -4.65625 2.320312 -4.765625 2.8125 -4.765625 C 3.28125 -4.765625 3.703125 -4.65625 4.078125 -4.4375 C 4.460938 -4.226562 4.757812 -3.9375 4.96875 -3.5625 C 5.1875 -3.195312 5.296875 -2.78125 5.296875 -2.3125 C 5.296875 -1.851562 5.1875 -1.4375 4.96875 -1.0625 C 4.757812 -0.695312 4.460938 -0.40625 4.078125 -0.1875 C 3.703125 0.0195312 3.28125 0.125 2.8125 0.125 Z M 2.8125 -1.046875 C 3.164062 -1.046875 3.457031 -1.160156 3.6875 -1.390625 C 3.914062 -1.628906 4.03125 -1.9375 4.03125 -2.3125 C 4.03125 -2.6875 3.914062 -2.988281 3.6875 -3.21875 C 3.457031 -3.457031 3.164062 -3.578125 2.8125 -3.578125 C 2.4375 -3.578125 2.132812 -3.457031 1.90625 -3.21875 C 1.675781 -2.988281 1.5625 -2.6875 1.5625 -2.3125 C 1.5625 -1.9375 1.675781 -1.628906 1.90625 -1.390625 C 2.132812 -1.160156 2.4375 -1.046875 2.8125 -1.046875 Z M 2.8125 -1.046875 "/></g></g></g><g fill="#779ff7" fill-opacity="1"><g transform="translate(67.321076, 17.789143)"><g><path d="M 2.8125 0.125 C 2.320312 0.125 1.890625 0.0195312 1.515625 -0.1875 C 1.140625 -0.40625 0.84375 -0.695312 0.625 -1.0625 C 0.40625 -1.4375 0.296875 -1.851562 0.296875 -2.3125 C 0.296875 -2.78125 0.40625 -3.195312 0.625 -3.5625 C 0.84375 -3.9375 1.140625 -4.226562 1.515625 -4.4375 C 1.890625 -4.65625 2.320312 -4.765625 2.8125 -4.765625 C 3.28125 -4.765625 3.703125 -4.65625 4.078125 -4.4375 C 4.460938 -4.226562 4.757812 -3.9375 4.96875 -3.5625 C 5.1875 -3.195312 5.296875 -2.78125 5.296875 -2.3125 C 5.296875 -1.851562 5.1875 -1.4375 4.96875 -1.0625 C 4.757812 -0.695312 4.460938 -0.40625 4.078125 -0.1875 C 3.703125 0.0195312 3.28125 0.125 2.8125 0.125 Z M 2.8125 -1.046875 C 3.164062 -1.046875 3.457031 -1.160156 3.6875 -1.390625 C 3.914062 -1.628906 4.03125 -1.9375 4.03125 -2.3125 C 4.03125 -2.6875 3.914062 -2.988281 3.6875 -3.21875 C 3.457031 -3.457031 3.164062 -3.578125 2.8125 -3.578125 C 2.4375 -3.578125 2.132812 -3.457031 1.90625 -3.21875 C 1.675781 -2.988281 1.5625 -2.6875 1.5625 -2.3125 C 1.5625 -1.9375 1.675781 -1.628906 1.90625 -1.390625 C 2.132812 -1.160156 2.4375 -1.046875 2.8125 -1.046875 Z M 2.8125 -1.046875 "/></g></g></g><g fill="#779ff7" fill-opacity="1"><g transform="translate(72.927457, 17.789143)"><g><path d="M 3.25 -4.75 C 3.769531 -4.75 4.179688 -4.570312 4.484375 -4.21875 C 4.796875 -3.863281 4.953125 -3.394531 4.953125 -2.8125 L 4.953125 0 L 3.703125 0 L 3.703125 -2.609375 C 3.703125 -3.296875 3.429688 -3.640625 2.890625 -3.640625 C 2.566406 -3.640625 2.3125 -3.53125 2.125 -3.3125 C 1.945312 -3.101562 1.859375 -2.8125 1.859375 -2.4375 L 1.859375 0 L 0.59375 0 L 0.59375 -4.625 L 1.453125 -4.625 L 1.703125 -4.0625 C 1.878906 -4.269531 2.097656 -4.4375 2.359375 -4.5625 C 2.628906 -4.6875 2.925781 -4.75 3.25 -4.75 Z M 3.25 -4.75 "/></g></g></g><g fill="#779ff7" fill-opacity="1"><g transform="translate(78.430803, 17.789143)"><g/></g></g><g fill="#779ff7" fill-opacity="1"><g transform="translate(80.482759, 17.789143)"><g><path d="M 8.046875 0 L 6.71875 0 L 6.140625 -3.921875 L 4.34375 -0.015625 L 4.015625 -0.015625 L 2.234375 -3.921875 L 1.640625 0 L 0.3125 0 L 1.25 -6 L 2.5625 -6 L 4.171875 -2.328125 L 5.8125 -6 L 7.109375 -6 Z M 8.046875 0 "/></g></g></g><g fill="#779ff7" fill-opacity="1"><g transform="translate(88.853696, 17.789143)"><g><path d="M 5.09375 -2.328125 C 5.09375 -2.210938 5.082031 -2.09375 5.0625 -1.96875 L 1.5625 -1.96875 C 1.613281 -1.65625 1.738281 -1.410156 1.9375 -1.234375 C 2.144531 -1.066406 2.398438 -0.984375 2.703125 -0.984375 C 2.921875 -0.984375 3.113281 -1.03125 3.28125 -1.125 C 3.457031 -1.21875 3.59375 -1.347656 3.6875 -1.515625 L 5 -1.515625 C 4.832031 -1.015625 4.539062 -0.613281 4.125 -0.3125 C 3.71875 -0.0195312 3.242188 0.125 2.703125 0.125 C 2.242188 0.125 1.832031 0.0195312 1.46875 -0.1875 C 1.101562 -0.40625 0.816406 -0.695312 0.609375 -1.0625 C 0.398438 -1.4375 0.296875 -1.851562 0.296875 -2.3125 C 0.296875 -2.78125 0.398438 -3.195312 0.609375 -3.5625 C 0.816406 -3.9375 1.101562 -4.226562 1.46875 -4.4375 C 1.832031 -4.65625 2.242188 -4.765625 2.703125 -4.765625 C 3.179688 -4.765625 3.597656 -4.648438 3.953125 -4.421875 C 4.316406 -4.203125 4.597656 -3.910156 4.796875 -3.546875 C 4.992188 -3.179688 5.09375 -2.773438 5.09375 -2.328125 Z M 2.703125 -3.703125 C 2.421875 -3.703125 2.179688 -3.625 1.984375 -3.46875 C 1.796875 -3.3125 1.671875 -3.097656 1.609375 -2.828125 L 3.84375 -2.828125 C 3.65625 -3.410156 3.273438 -3.703125 2.703125 -3.703125 Z M 2.703125 -3.703125 "/></g></g></g><g fill="#779ff7" fill-opacity="1"><g transform="translate(94.245437, 17.789143)"><g/></g></g><g fill="#779ff7" fill-opacity="1"><g transform="translate(96.297393, 17.789143)"><g><path d="M 8.046875 0 L 6.71875 0 L 6.140625 -3.921875 L 4.34375 -0.015625 L 4.015625 -0.015625 L 2.234375 -3.921875 L 1.640625 0 L 0.3125 0 L 1.25 -6 L 2.5625 -6 L 4.171875 -2.328125 L 5.8125 -6 L 7.109375 -6 Z M 8.046875 0 "/></g></g></g><g fill="#779ff7" fill-opacity="1"><g transform="translate(104.668329, 17.789143)"><g><path d="M 5.09375 -2.328125 C 5.09375 -2.210938 5.082031 -2.09375 5.0625 -1.96875 L 1.5625 -1.96875 C 1.613281 -1.65625 1.738281 -1.410156 1.9375 -1.234375 C 2.144531 -1.066406 2.398438 -0.984375 2.703125 -0.984375 C 2.921875 -0.984375 3.113281 -1.03125 3.28125 -1.125 C 3.457031 -1.21875 3.59375 -1.347656 3.6875 -1.515625 L 5 -1.515625 C 4.832031 -1.015625 4.539062 -0.613281 4.125 -0.3125 C 3.71875 -0.0195312 3.242188 0.125 2.703125 0.125 C 2.242188 0.125 1.832031 0.0195312 1.46875 -0.1875 C 1.101562 -0.40625 0.816406 -0.695312 0.609375 -1.0625 C 0.398438 -1.4375 0.296875 -1.851562 0.296875 -2.3125 C 0.296875 -2.78125 0.398438 -3.195312 0.609375 -3.5625 C 0.816406 -3.9375 1.101562 -4.226562 1.46875 -4.4375 C 1.832031 -4.65625 2.242188 -4.765625 2.703125 -4.765625 C 3.179688 -4.765625 3.597656 -4.648438 3.953125 -4.421875 C 4.316406 -4.203125 4.597656 -3.910156 4.796875 -3.546875 C 4.992188 -3.179688 5.09375 -2.773438 5.09375 -2.328125 Z M 2.703125 -3.703125 C 2.421875 -3.703125 2.179688 -3.625 1.984375 -3.46875 C 1.796875 -3.3125 1.671875 -3.097656 1.609375 -2.828125 L 3.84375 -2.828125 C 3.65625 -3.410156 3.273438 -3.703125 2.703125 -3.703125 Z M 2.703125 -3.703125 "/></g></g></g><g fill="#779ff7" fill-opacity="1"><g transform="translate(40.65428, 23.689292)"><g><path d="M 2.09375 -2.5625 L 2.828125 -2.5625 L 1.71875 -0.03125 C 1.613281 0.195312 1.507812 0.378906 1.40625 0.515625 C 1.300781 0.660156 1.179688 0.765625 1.046875 0.828125 C 0.921875 0.890625 0.757812 0.921875 0.5625 0.921875 L 0.28125 0.921875 L 0.28125 0.296875 L 0.53125 0.296875 C 0.632812 0.296875 0.71875 0.28125 0.78125 0.25 C 0.851562 0.226562 0.910156 0.179688 0.953125 0.109375 C 0.992188 0.046875 1.046875 -0.046875 1.109375 -0.171875 L 1.109375 -0.1875 L 0.03125 -2.5625 L 0.78125 -2.5625 L 1.46875 -0.984375 Z M 2.09375 -2.5625 "/></g></g></g><g fill="#779ff7" fill-opacity="1"><g transform="translate(43.505886, 23.689292)"><g><path d="M 1.546875 0.078125 C 1.285156 0.078125 1.050781 0.0195312 0.84375 -0.09375 C 0.632812 -0.21875 0.46875 -0.378906 0.34375 -0.578125 C 0.226562 -0.785156 0.171875 -1.019531 0.171875 -1.28125 C 0.171875 -1.539062 0.226562 -1.769531 0.34375 -1.96875 C 0.46875 -2.175781 0.632812 -2.335938 0.84375 -2.453125 C 1.050781 -2.566406 1.285156 -2.625 1.546875 -2.625 C 1.804688 -2.625 2.039062 -2.566406 2.25 -2.453125 C 2.457031 -2.335938 2.617188 -2.175781 2.734375 -1.96875 C 2.859375 -1.769531 2.921875 -1.539062 2.921875 -1.28125 C 2.921875 -1.019531 2.859375 -0.785156 2.734375 -0.578125 C 2.617188 -0.378906 2.457031 -0.21875 2.25 -0.09375 C 2.039062 0.0195312 1.804688 0.078125 1.546875 0.078125 Z M 1.546875 -0.578125 C 1.742188 -0.578125 1.90625 -0.640625 2.03125 -0.765625 C 2.15625 -0.898438 2.21875 -1.070312 2.21875 -1.28125 C 2.21875 -1.488281 2.15625 -1.65625 2.03125 -1.78125 C 1.90625 -1.914062 1.742188 -1.984375 1.546875 -1.984375 C 1.347656 -1.984375 1.179688 -1.914062 1.046875 -1.78125 C 0.921875 -1.65625 0.859375 -1.488281 0.859375 -1.28125 C 0.859375 -1.070312 0.921875 -0.898438 1.046875 -0.765625 C 1.179688 -0.640625 1.347656 -0.578125 1.546875 -0.578125 Z M 1.546875 -0.578125 "/></g></g></g><g fill="#779ff7" fill-opacity="1"><g transform="translate(46.599078, 23.689292)"><g><path d="M 1.546875 0.078125 C 1.285156 0.078125 1.050781 0.0195312 0.84375 -0.09375 C 0.632812 -0.21875 0.46875 -0.378906 0.34375 -0.578125 C 0.226562 -0.785156 0.171875 -1.019531 0.171875 -1.28125 C 0.171875 -1.539062 0.226562 -1.769531 0.34375 -1.96875 C 0.46875 -2.175781 0.632812 -2.335938 0.84375 -2.453125 C 1.050781 -2.566406 1.285156 -2.625 1.546875 -2.625 C 1.804688 -2.625 2.039062 -2.566406 2.25 -2.453125 C 2.457031 -2.335938 2.617188 -2.175781 2.734375 -1.96875 C 2.859375 -1.769531 2.921875 -1.539062 2.921875 -1.28125 C 2.921875 -1.019531 2.859375 -0.785156 2.734375 -0.578125 C 2.617188 -0.378906 2.457031 -0.21875 2.25 -0.09375 C 2.039062 0.0195312 1.804688 0.078125 1.546875 0.078125 Z M 1.546875 -0.578125 C 1.742188 -0.578125 1.90625 -0.640625 2.03125 -0.765625 C 2.15625 -0.898438 2.21875 -1.070312 2.21875 -1.28125 C 2.21875 -1.488281 2.15625 -1.65625 2.03125 -1.78125 C 1.90625 -1.914062 1.742188 -1.984375 1.546875 -1.984375 C 1.347656 -1.984375 1.179688 -1.914062 1.046875 -1.78125 C 0.921875 -1.65625 0.859375 -1.488281 0.859375 -1.28125 C 0.859375 -1.070312 0.921875 -0.898438 1.046875 -0.765625 C 1.179688 -0.640625 1.347656 -0.578125 1.546875 -0.578125 Z M 1.546875 -0.578125 "/></g></g></g><g fill="#779ff7" fill-opacity="1"><g transform="translate(49.692269, 23.689292)"><g><path d="M 1.796875 -2.625 C 2.078125 -2.625 2.300781 -2.523438 2.46875 -2.328125 C 2.644531 -2.128906 2.734375 -1.867188 2.734375 -1.546875 L 2.734375 0 L 2.046875 0 L 2.046875 -1.4375 C 2.046875 -1.820312 1.894531 -2.015625 1.59375 -2.015625 C 1.414062 -2.015625 1.273438 -1.953125 1.171875 -1.828125 C 1.066406 -1.710938 1.015625 -1.550781 1.015625 -1.34375 L 1.015625 0 L 0.328125 0 L 0.328125 -2.5625 L 0.8125 -2.5625 L 0.9375 -2.234375 C 1.03125 -2.359375 1.148438 -2.453125 1.296875 -2.515625 C 1.453125 -2.585938 1.617188 -2.625 1.796875 -2.625 Z M 1.796875 -2.625 "/></g></g></g><g fill="#779ff7" fill-opacity="1"><g transform="translate(52.728613, 23.689292)"><g><path d="M 3.234375 -2.625 C 3.410156 -2.625 3.566406 -2.578125 3.703125 -2.484375 C 3.835938 -2.398438 3.941406 -2.28125 4.015625 -2.125 C 4.097656 -1.976562 4.140625 -1.804688 4.140625 -1.609375 L 4.140625 0 L 3.453125 0 L 3.453125 -1.484375 C 3.453125 -1.835938 3.320312 -2.015625 3.0625 -2.015625 C 2.90625 -2.015625 2.785156 -1.957031 2.703125 -1.84375 C 2.617188 -1.738281 2.578125 -1.582031 2.578125 -1.375 L 2.578125 0 L 1.90625 0 L 1.90625 -1.484375 C 1.90625 -1.835938 1.78125 -2.015625 1.53125 -2.015625 C 1.363281 -2.015625 1.234375 -1.957031 1.140625 -1.84375 C 1.054688 -1.738281 1.015625 -1.582031 1.015625 -1.375 L 1.015625 0 L 0.328125 0 L 0.328125 -2.5625 L 0.8125 -2.5625 L 0.9375 -2.234375 C 1.03125 -2.347656 1.144531 -2.441406 1.28125 -2.515625 C 1.414062 -2.585938 1.554688 -2.625 1.703125 -2.625 C 1.867188 -2.625 2.015625 -2.585938 2.140625 -2.515625 C 2.273438 -2.441406 2.378906 -2.335938 2.453125 -2.203125 C 2.535156 -2.328125 2.644531 -2.425781 2.78125 -2.5 C 2.925781 -2.582031 3.078125 -2.625 3.234375 -2.625 Z M 3.234375 -2.625 "/></g></g></g><g fill="#779ff7" fill-opacity="1"><g transform="translate(57.171814, 23.689292)"><g><path d="M 2.8125 -1.28125 C 2.8125 -1.21875 2.804688 -1.148438 2.796875 -1.078125 L 0.859375 -1.078125 C 0.890625 -0.910156 0.957031 -0.78125 1.0625 -0.6875 C 1.175781 -0.59375 1.316406 -0.546875 1.484375 -0.546875 C 1.609375 -0.546875 1.71875 -0.570312 1.8125 -0.625 C 1.90625 -0.675781 1.976562 -0.75 2.03125 -0.84375 L 2.765625 -0.84375 C 2.671875 -0.5625 2.507812 -0.335938 2.28125 -0.171875 C 2.050781 -0.00390625 1.785156 0.078125 1.484375 0.078125 C 1.234375 0.078125 1.007812 0.0195312 0.8125 -0.09375 C 0.613281 -0.21875 0.457031 -0.378906 0.34375 -0.578125 C 0.226562 -0.785156 0.171875 -1.019531 0.171875 -1.28125 C 0.171875 -1.53125 0.226562 -1.753906 0.34375 -1.953125 C 0.457031 -2.160156 0.613281 -2.320312 0.8125 -2.4375 C 1.007812 -2.5625 1.234375 -2.625 1.484375 -2.625 C 1.753906 -2.625 1.988281 -2.5625 2.1875 -2.4375 C 2.382812 -2.320312 2.535156 -2.160156 2.640625 -1.953125 C 2.753906 -1.753906 2.8125 -1.53125 2.8125 -1.28125 Z M 1.484375 -2.046875 C 1.335938 -2.046875 1.207031 -2 1.09375 -1.90625 C 0.988281 -1.820312 0.921875 -1.707031 0.890625 -1.5625 L 2.125 -1.5625 C 2.019531 -1.882812 1.804688 -2.046875 1.484375 -2.046875 Z M 1.484375 -2.046875 "/></g></g></g><g fill="#779ff7" fill-opacity="1"><g transform="translate(60.146583, 23.689292)"><g><path d="M 3.234375 -2.625 C 3.410156 -2.625 3.566406 -2.578125 3.703125 -2.484375 C 3.835938 -2.398438 3.941406 -2.28125 4.015625 -2.125 C 4.097656 -1.976562 4.140625 -1.804688 4.140625 -1.609375 L 4.140625 0 L 3.453125 0 L 3.453125 -1.484375 C 3.453125 -1.835938 3.320312 -2.015625 3.0625 -2.015625 C 2.90625 -2.015625 2.785156 -1.957031 2.703125 -1.84375 C 2.617188 -1.738281 2.578125 -1.582031 2.578125 -1.375 L 2.578125 0 L 1.90625 0 L 1.90625 -1.484375 C 1.90625 -1.835938 1.78125 -2.015625 1.53125 -2.015625 C 1.363281 -2.015625 1.234375 -1.957031 1.140625 -1.84375 C 1.054688 -1.738281 1.015625 -1.582031 1.015625 -1.375 L 1.015625 0 L 0.328125 0 L 0.328125 -2.5625 L 0.8125 -2.5625 L 0.9375 -2.234375 C 1.03125 -2.347656 1.144531 -2.441406 1.28125 -2.515625 C 1.414062 -2.585938 1.554688 -2.625 1.703125 -2.625 C 1.867188 -2.625 2.015625 -2.585938 2.140625 -2.515625 C 2.273438 -2.441406 2.378906 -2.335938 2.453125 -2.203125 C 2.535156 -2.328125 2.644531 -2.425781 2.78125 -2.5 C 2.925781 -2.582031 3.078125 -2.625 3.234375 -2.625 Z M 3.234375 -2.625 "/></g></g></g><g fill="#779ff7" fill-opacity="1"><g transform="translate(64.589784, 23.689292)"><g><path d="M 2.8125 -1.28125 C 2.8125 -1.21875 2.804688 -1.148438 2.796875 -1.078125 L 0.859375 -1.078125 C 0.890625 -0.910156 0.957031 -0.78125 1.0625 -0.6875 C 1.175781 -0.59375 1.316406 -0.546875 1.484375 -0.546875 C 1.609375 -0.546875 1.71875 -0.570312 1.8125 -0.625 C 1.90625 -0.675781 1.976562 -0.75 2.03125 -0.84375 L 2.765625 -0.84375 C 2.671875 -0.5625 2.507812 -0.335938 2.28125 -0.171875 C 2.050781 -0.00390625 1.785156 0.078125 1.484375 0.078125 C 1.234375 0.078125 1.007812 0.0195312 0.8125 -0.09375 C 0.613281 -0.21875 0.457031 -0.378906 0.34375 -0.578125 C 0.226562 -0.785156 0.171875 -1.019531 0.171875 -1.28125 C 0.171875 -1.53125 0.226562 -1.753906 0.34375 -1.953125 C 0.457031 -2.160156 0.613281 -2.320312 0.8125 -2.4375 C 1.007812 -2.5625 1.234375 -2.625 1.484375 -2.625 C 1.753906 -2.625 1.988281 -2.5625 2.1875 -2.4375 C 2.382812 -2.320312 2.535156 -2.160156 2.640625 -1.953125 C 2.753906 -1.753906 2.8125 -1.53125 2.8125 -1.28125 Z M 1.484375 -2.046875 C 1.335938 -2.046875 1.207031 -2 1.09375 -1.90625 C 0.988281 -1.820312 0.921875 -1.707031 0.890625 -1.5625 L 2.125 -1.5625 C 2.019531 -1.882812 1.804688 -2.046875 1.484375 -2.046875 Z M 1.484375 -2.046875 "/></g></g></g><g fill="#779ff7" fill-opacity="1"><g transform="translate(67.564553, 23.689292)"><g><path d="M 0.28125 0 L 0.28125 -0.734375 L 1.015625 -0.734375 L 1.015625 0 Z M 0.28125 0 "/></g></g></g><g fill="#779ff7" fill-opacity="1"><g transform="translate(68.862462, 23.689292)"><g><path d="M 2.8125 -1.28125 C 2.8125 -1.21875 2.804688 -1.148438 2.796875 -1.078125 L 0.859375 -1.078125 C 0.890625 -0.910156 0.957031 -0.78125 1.0625 -0.6875 C 1.175781 -0.59375 1.316406 -0.546875 1.484375 -0.546875 C 1.609375 -0.546875 1.71875 -0.570312 1.8125 -0.625 C 1.90625 -0.675781 1.976562 -0.75 2.03125 -0.84375 L 2.765625 -0.84375 C 2.671875 -0.5625 2.507812 -0.335938 2.28125 -0.171875 C 2.050781 -0.00390625 1.785156 0.078125 1.484375 0.078125 C 1.234375 0.078125 1.007812 0.0195312 0.8125 -0.09375 C 0.613281 -0.21875 0.457031 -0.378906 0.34375 -0.578125 C 0.226562 -0.785156 0.171875 -1.019531 0.171875 -1.28125 C 0.171875 -1.53125 0.226562 -1.753906 0.34375 -1.953125 C 0.457031 -2.160156 0.613281 -2.320312 0.8125 -2.4375 C 1.007812 -2.5625 1.234375 -2.625 1.484375 -2.625 C 1.753906 -2.625 1.988281 -2.5625 2.1875 -2.4375 C 2.382812 -2.320312 2.535156 -2.160156 2.640625 -1.953125 C 2.753906 -1.753906 2.8125 -1.53125 2.8125 -1.28125 Z M 1.484375 -2.046875 C 1.335938 -2.046875 1.207031 -2 1.09375 -1.90625 C 0.988281 -1.820312 0.921875 -1.707031 0.890625 -1.5625 L 2.125 -1.5625 C 2.019531 -1.882812 1.804688 -2.046875 1.484375 -2.046875 Z M 1.484375 -2.046875 "/></g></g></g><g fill="#779ff7" fill-opacity="1"><g transform="translate(71.83723, 23.689292)"><g><path d="M 1.796875 -2.625 C 2.078125 -2.625 2.300781 -2.523438 2.46875 -2.328125 C 2.644531 -2.128906 2.734375 -1.867188 2.734375 -1.546875 L 2.734375 0 L 2.046875 0 L 2.046875 -1.4375 C 2.046875 -1.820312 1.894531 -2.015625 1.59375 -2.015625 C 1.414062 -2.015625 1.273438 -1.953125 1.171875 -1.828125 C 1.066406 -1.710938 1.015625 -1.550781 1.015625 -1.34375 L 1.015625 0 L 0.328125 0 L 0.328125 -2.5625 L 0.8125 -2.5625 L 0.9375 -2.234375 C 1.03125 -2.359375 1.148438 -2.453125 1.296875 -2.515625 C 1.453125 -2.585938 1.617188 -2.625 1.796875 -2.625 Z M 1.796875 -2.625 "/></g></g></g><g fill="#779ff7" fill-opacity="1"><g transform="translate(74.873574, 23.689292)"><g><path d="M 2.390625 -2.5625 L 2.84375 -2.5625 L 2.84375 -0.296875 C 2.84375 -0.0234375 2.789062 0.203125 2.6875 0.390625 C 2.582031 0.585938 2.429688 0.738281 2.234375 0.84375 C 2.035156 0.945312 1.800781 1 1.53125 1 C 1.1875 1 0.898438 0.914062 0.671875 0.75 C 0.441406 0.582031 0.296875 0.351562 0.234375 0.0625 L 0.921875 0.0625 C 0.960938 0.175781 1.039062 0.257812 1.15625 0.3125 C 1.269531 0.375 1.394531 0.40625 1.53125 0.40625 C 1.707031 0.40625 1.851562 0.347656 1.96875 0.234375 C 2.09375 0.128906 2.15625 -0.015625 2.15625 -0.203125 L 2.15625 -0.296875 C 2.0625 -0.222656 1.953125 -0.164062 1.828125 -0.125 C 1.703125 -0.0820312 1.570312 -0.0625 1.4375 -0.0625 C 1.195312 -0.0625 0.976562 -0.117188 0.78125 -0.234375 C 0.59375 -0.347656 0.441406 -0.5 0.328125 -0.6875 C 0.222656 -0.882812 0.171875 -1.101562 0.171875 -1.34375 C 0.171875 -1.582031 0.222656 -1.796875 0.328125 -1.984375 C 0.441406 -2.179688 0.59375 -2.335938 0.78125 -2.453125 C 0.976562 -2.566406 1.195312 -2.625 1.4375 -2.625 C 1.601562 -2.625 1.757812 -2.59375 1.90625 -2.53125 C 2.050781 -2.476562 2.175781 -2.398438 2.28125 -2.296875 Z M 1.515625 -0.6875 C 1.703125 -0.6875 1.859375 -0.75 1.984375 -0.875 C 2.109375 -1 2.171875 -1.15625 2.171875 -1.34375 C 2.171875 -1.53125 2.109375 -1.6875 1.984375 -1.8125 C 1.859375 -1.9375 1.703125 -2 1.515625 -2 C 1.328125 -2 1.171875 -1.9375 1.046875 -1.8125 C 0.921875 -1.6875 0.859375 -1.53125 0.859375 -1.34375 C 0.859375 -1.15625 0.921875 -1 1.046875 -0.875 C 1.171875 -0.75 1.328125 -0.6875 1.515625 -0.6875 Z M 1.515625 -0.6875 "/></g></g></g><g fill="#779ff7" fill-opacity="1"><g transform="translate(78.052031, 23.689292)"><g><path d="M 1.640625 -2.578125 L 1.859375 -2.578125 L 1.859375 -1.921875 L 1.5625 -1.921875 C 1.375 -1.921875 1.234375 -1.875 1.140625 -1.78125 C 1.054688 -1.6875 1.015625 -1.535156 1.015625 -1.328125 L 1.015625 0 L 0.328125 0 L 0.328125 -2.5625 L 0.78125 -2.5625 L 0.90625 -2.25 C 1.070312 -2.46875 1.316406 -2.578125 1.640625 -2.578125 Z M 1.640625 -2.578125 "/></g></g></g><g fill="#779ff7" fill-opacity="1"><g transform="translate(79.979945, 23.689292)"><g><path d="M 2.359375 -3.109375 C 2.640625 -3.109375 2.910156 -3.0625 3.171875 -2.96875 C 3.429688 -2.882812 3.660156 -2.757812 3.859375 -2.59375 C 4.066406 -2.425781 4.226562 -2.21875 4.34375 -1.96875 C 4.46875 -1.726562 4.53125 -1.445312 4.53125 -1.125 C 4.53125 -0.875 4.484375 -0.664062 4.390625 -0.5 C 4.296875 -0.34375 4.175781 -0.222656 4.03125 -0.140625 C 3.894531 -0.0664062 3.75 -0.03125 3.59375 -0.03125 C 3.3125 -0.03125 3.109375 -0.125 2.984375 -0.3125 C 2.890625 -0.207031 2.78125 -0.128906 2.65625 -0.078125 C 2.53125 -0.0234375 2.394531 0 2.25 0 C 2.050781 0 1.867188 -0.046875 1.703125 -0.140625 C 1.546875 -0.234375 1.421875 -0.359375 1.328125 -0.515625 C 1.234375 -0.671875 1.1875 -0.851562 1.1875 -1.0625 C 1.1875 -1.269531 1.234375 -1.453125 1.328125 -1.609375 C 1.421875 -1.765625 1.546875 -1.890625 1.703125 -1.984375 C 1.867188 -2.078125 2.050781 -2.125 2.25 -2.125 C 2.382812 -2.125 2.507812 -2.097656 2.625 -2.046875 C 2.75 -2.003906 2.851562 -1.941406 2.9375 -1.859375 L 3.015625 -2 L 3.328125 -2 L 3.328125 -0.859375 C 3.328125 -0.753906 3.351562 -0.675781 3.40625 -0.625 C 3.46875 -0.570312 3.535156 -0.546875 3.609375 -0.546875 C 3.703125 -0.546875 3.785156 -0.59375 3.859375 -0.6875 C 3.941406 -0.78125 3.984375 -0.925781 3.984375 -1.125 C 3.984375 -1.40625 3.914062 -1.65625 3.78125 -1.875 C 3.644531 -2.09375 3.453125 -2.265625 3.203125 -2.390625 C 2.960938 -2.515625 2.6875 -2.578125 2.375 -2.578125 C 2.0625 -2.578125 1.78125 -2.507812 1.53125 -2.375 C 1.28125 -2.25 1.082031 -2.070312 0.9375 -1.84375 C 0.800781 -1.613281 0.734375 -1.351562 0.734375 -1.0625 C 0.734375 -0.78125 0.796875 -0.53125 0.921875 -0.3125 C 1.054688 -0.09375 1.234375 0.0703125 1.453125 0.1875 C 1.679688 0.3125 1.945312 0.375 2.25 0.375 C 2.53125 0.375 2.785156 0.328125 3.015625 0.234375 L 3.015625 0.75 C 2.722656 0.851562 2.445312 0.90625 2.1875 0.90625 C 1.894531 0.90625 1.625 0.851562 1.375 0.75 C 1.132812 0.65625 0.925781 0.519531 0.75 0.34375 C 0.570312 0.164062 0.429688 -0.0390625 0.328125 -0.28125 C 0.234375 -0.519531 0.1875 -0.78125 0.1875 -1.0625 C 0.1875 -1.40625 0.242188 -1.703125 0.359375 -1.953125 C 0.484375 -2.203125 0.644531 -2.410156 0.84375 -2.578125 C 1.050781 -2.753906 1.285156 -2.882812 1.546875 -2.96875 C 1.804688 -3.0625 2.078125 -3.109375 2.359375 -3.109375 Z M 2.296875 -0.578125 C 2.441406 -0.578125 2.5625 -0.625 2.65625 -0.71875 C 2.75 -0.8125 2.796875 -0.925781 2.796875 -1.0625 C 2.796875 -1.207031 2.75 -1.328125 2.65625 -1.421875 C 2.5625 -1.515625 2.441406 -1.5625 2.296875 -1.5625 C 2.160156 -1.5625 2.046875 -1.515625 1.953125 -1.421875 C 1.859375 -1.328125 1.8125 -1.207031 1.8125 -1.0625 C 1.8125 -0.925781 1.859375 -0.8125 1.953125 -0.71875 C 2.046875 -0.625 2.160156 -0.578125 2.296875 -0.578125 Z M 2.296875 -0.578125 "/></g></g></g><g fill="#779ff7" fill-opacity="1"><g transform="translate(84.707364, 23.689292)"><g><path d="M 2.390625 -2.5625 L 2.84375 -2.5625 L 2.84375 -0.296875 C 2.84375 -0.0234375 2.789062 0.203125 2.6875 0.390625 C 2.582031 0.585938 2.429688 0.738281 2.234375 0.84375 C 2.035156 0.945312 1.800781 1 1.53125 1 C 1.1875 1 0.898438 0.914062 0.671875 0.75 C 0.441406 0.582031 0.296875 0.351562 0.234375 0.0625 L 0.921875 0.0625 C 0.960938 0.175781 1.039062 0.257812 1.15625 0.3125 C 1.269531 0.375 1.394531 0.40625 1.53125 0.40625 C 1.707031 0.40625 1.851562 0.347656 1.96875 0.234375 C 2.09375 0.128906 2.15625 -0.015625 2.15625 -0.203125 L 2.15625 -0.296875 C 2.0625 -0.222656 1.953125 -0.164062 1.828125 -0.125 C 1.703125 -0.0820312 1.570312 -0.0625 1.4375 -0.0625 C 1.195312 -0.0625 0.976562 -0.117188 0.78125 -0.234375 C 0.59375 -0.347656 0.441406 -0.5 0.328125 -0.6875 C 0.222656 -0.882812 0.171875 -1.101562 0.171875 -1.34375 C 0.171875 -1.582031 0.222656 -1.796875 0.328125 -1.984375 C 0.441406 -2.179688 0.59375 -2.335938 0.78125 -2.453125 C 0.976562 -2.566406 1.195312 -2.625 1.4375 -2.625 C 1.601562 -2.625 1.757812 -2.59375 1.90625 -2.53125 C 2.050781 -2.476562 2.175781 -2.398438 2.28125 -2.296875 Z M 1.515625 -0.6875 C 1.703125 -0.6875 1.859375 -0.75 1.984375 -0.875 C 2.109375 -1 2.171875 -1.15625 2.171875 -1.34375 C 2.171875 -1.53125 2.109375 -1.6875 1.984375 -1.8125 C 1.859375 -1.9375 1.703125 -2 1.515625 -2 C 1.328125 -2 1.171875 -1.9375 1.046875 -1.8125 C 0.921875 -1.6875 0.859375 -1.53125 0.859375 -1.34375 C 0.859375 -1.15625 0.921875 -1 1.046875 -0.875 C 1.171875 -0.75 1.328125 -0.6875 1.515625 -0.6875 Z M 1.515625 -0.6875 "/></g></g></g><g fill="#779ff7" fill-opacity="1"><g transform="translate(87.88582, 23.689292)"><g><path d="M 3.234375 -2.625 C 3.410156 -2.625 3.566406 -2.578125 3.703125 -2.484375 C 3.835938 -2.398438 3.941406 -2.28125 4.015625 -2.125 C 4.097656 -1.976562 4.140625 -1.804688 4.140625 -1.609375 L 4.140625 0 L 3.453125 0 L 3.453125 -1.484375 C 3.453125 -1.835938 3.320312 -2.015625 3.0625 -2.015625 C 2.90625 -2.015625 2.785156 -1.957031 2.703125 -1.84375 C 2.617188 -1.738281 2.578125 -1.582031 2.578125 -1.375 L 2.578125 0 L 1.90625 0 L 1.90625 -1.484375 C 1.90625 -1.835938 1.78125 -2.015625 1.53125 -2.015625 C 1.363281 -2.015625 1.234375 -1.957031 1.140625 -1.84375 C 1.054688 -1.738281 1.015625 -1.582031 1.015625 -1.375 L 1.015625 0 L 0.328125 0 L 0.328125 -2.5625 L 0.8125 -2.5625 L 0.9375 -2.234375 C 1.03125 -2.347656 1.144531 -2.441406 1.28125 -2.515625 C 1.414062 -2.585938 1.554688 -2.625 1.703125 -2.625 C 1.867188 -2.625 2.015625 -2.585938 2.140625 -2.515625 C 2.273438 -2.441406 2.378906 -2.335938 2.453125 -2.203125 C 2.535156 -2.328125 2.644531 -2.425781 2.78125 -2.5 C 2.925781 -2.582031 3.078125 -2.625 3.234375 -2.625 Z M 3.234375 -2.625 "/></g></g></g><g fill="#779ff7" fill-opacity="1"><g transform="translate(92.329021, 23.689292)"><g><path d="M 2.421875 -2.5625 L 2.9375 -2.5625 L 2.9375 0 L 2.390625 0 L 2.328125 -0.234375 C 2.222656 -0.140625 2.097656 -0.0625 1.953125 0 C 1.816406 0.0507812 1.664062 0.078125 1.5 0.078125 C 1.25 0.078125 1.019531 0.0195312 0.8125 -0.09375 C 0.613281 -0.21875 0.457031 -0.378906 0.34375 -0.578125 C 0.226562 -0.785156 0.171875 -1.019531 0.171875 -1.28125 C 0.171875 -1.539062 0.226562 -1.769531 0.34375 -1.96875 C 0.457031 -2.175781 0.613281 -2.335938 0.8125 -2.453125 C 1.019531 -2.566406 1.25 -2.625 1.5 -2.625 C 1.664062 -2.625 1.816406 -2.597656 1.953125 -2.546875 C 2.097656 -2.492188 2.226562 -2.414062 2.34375 -2.3125 Z M 1.5625 -0.578125 C 1.695312 -0.578125 1.816406 -0.609375 1.921875 -0.671875 C 2.023438 -0.734375 2.109375 -0.816406 2.171875 -0.921875 C 2.234375 -1.023438 2.265625 -1.144531 2.265625 -1.28125 C 2.265625 -1.414062 2.234375 -1.535156 2.171875 -1.640625 C 2.109375 -1.742188 2.023438 -1.828125 1.921875 -1.890625 C 1.816406 -1.953125 1.695312 -1.984375 1.5625 -1.984375 C 1.425781 -1.984375 1.304688 -1.953125 1.203125 -1.890625 C 1.097656 -1.828125 1.015625 -1.742188 0.953125 -1.640625 C 0.890625 -1.535156 0.859375 -1.414062 0.859375 -1.28125 C 0.859375 -1.144531 0.890625 -1.023438 0.953125 -0.921875 C 1.015625 -0.816406 1.097656 -0.734375 1.203125 -0.671875 C 1.304688 -0.609375 1.425781 -0.578125 1.5625 -0.578125 Z M 1.5625 -0.578125 "/></g></g></g><g fill="#779ff7" fill-opacity="1"><g transform="translate(95.597476, 23.689292)"><g><path d="M 0.328125 -2.890625 L 0.328125 -3.546875 L 1.015625 -3.546875 L 1.015625 -2.890625 Z M 0.328125 0 L 0.328125 -2.5625 L 1.015625 -2.5625 L 1.015625 0 Z M 0.328125 0 "/></g></g></g><g fill="#779ff7" fill-opacity="1"><g transform="translate(96.952226, 23.689292)"><g><path d="M 0.328125 0 L 0.328125 -3.484375 L 1.015625 -3.484375 L 1.015625 0 Z M 0.328125 0 "/></g></g></g><g fill="#779ff7" fill-opacity="1"><g transform="translate(98.306976, 23.689292)"><g><path d="M 0.28125 0 L 0.28125 -0.734375 L 1.015625 -0.734375 L 1.015625 0 Z M 0.28125 0 "/></g></g></g><g fill="#779ff7" fill-opacity="1"><g transform="translate(99.604885, 23.689292)"><g><path d="M 1.515625 0.078125 C 1.265625 0.078125 1.035156 0.0195312 0.828125 -0.09375 C 0.617188 -0.21875 0.457031 -0.382812 0.34375 -0.59375 C 0.226562 -0.800781 0.171875 -1.03125 0.171875 -1.28125 C 0.171875 -1.539062 0.226562 -1.769531 0.34375 -1.96875 C 0.457031 -2.175781 0.617188 -2.335938 0.828125 -2.453125 C 1.035156 -2.566406 1.269531 -2.625 1.53125 -2.625 C 1.75 -2.625 1.945312 -2.578125 2.125 -2.484375 C 2.3125 -2.398438 2.460938 -2.28125 2.578125 -2.125 C 2.703125 -1.96875 2.785156 -1.785156 2.828125 -1.578125 L 2.140625 -1.578125 C 2.078125 -1.703125 1.992188 -1.800781 1.890625 -1.875 C 1.785156 -1.945312 1.660156 -1.984375 1.515625 -1.984375 C 1.390625 -1.984375 1.273438 -1.953125 1.171875 -1.890625 C 1.078125 -1.828125 1 -1.742188 0.9375 -1.640625 C 0.882812 -1.535156 0.859375 -1.414062 0.859375 -1.28125 C 0.859375 -1.144531 0.882812 -1.023438 0.9375 -0.921875 C 1 -0.816406 1.078125 -0.734375 1.171875 -0.671875 C 1.273438 -0.609375 1.390625 -0.578125 1.515625 -0.578125 C 1.660156 -0.578125 1.785156 -0.613281 1.890625 -0.6875 C 1.992188 -0.757812 2.078125 -0.867188 2.140625 -1.015625 L 2.828125 -1.015625 C 2.796875 -0.796875 2.71875 -0.601562 2.59375 -0.4375 C 2.46875 -0.28125 2.3125 -0.15625 2.125 -0.0625 C 1.945312 0.03125 1.742188 0.078125 1.515625 0.078125 Z M 1.515625 0.078125 "/></g></g></g><g fill="#779ff7" fill-opacity="1"><g transform="translate(102.565439, 23.689292)"><g><path d="M 1.546875 0.078125 C 1.285156 0.078125 1.050781 0.0195312 0.84375 -0.09375 C 0.632812 -0.21875 0.46875 -0.378906 0.34375 -0.578125 C 0.226562 -0.785156 0.171875 -1.019531 0.171875 -1.28125 C 0.171875 -1.539062 0.226562 -1.769531 0.34375 -1.96875 C 0.46875 -2.175781 0.632812 -2.335938 0.84375 -2.453125 C 1.050781 -2.566406 1.285156 -2.625 1.546875 -2.625 C 1.804688 -2.625 2.039062 -2.566406 2.25 -2.453125 C 2.457031 -2.335938 2.617188 -2.175781 2.734375 -1.96875 C 2.859375 -1.769531 2.921875 -1.539062 2.921875 -1.28125 C 2.921875 -1.019531 2.859375 -0.785156 2.734375 -0.578125 C 2.617188 -0.378906 2.457031 -0.21875 2.25 -0.09375 C 2.039062 0.0195312 1.804688 0.078125 1.546875 0.078125 Z M 1.546875 -0.578125 C 1.742188 -0.578125 1.90625 -0.640625 2.03125 -0.765625 C 2.15625 -0.898438 2.21875 -1.070312 2.21875 -1.28125 C 2.21875 -1.488281 2.15625 -1.65625 2.03125 -1.78125 C 1.90625 -1.914062 1.742188 -1.984375 1.546875 -1.984375 C 1.347656 -1.984375 1.179688 -1.914062 1.046875 -1.78125 C 0.921875 -1.65625 0.859375 -1.488281 0.859375 -1.28125 C 0.859375 -1.070312 0.921875 -0.898438 1.046875 -0.765625 C 1.179688 -0.640625 1.347656 -0.578125 1.546875 -0.578125 Z M 1.546875 -0.578125 "/></g></g></g><g fill="#779ff7" fill-opacity="1"><g transform="translate(105.65863, 23.689292)"><g><path d="M 3.234375 -2.625 C 3.410156 -2.625 3.566406 -2.578125 3.703125 -2.484375 C 3.835938 -2.398438 3.941406 -2.28125 4.015625 -2.125 C 4.097656 -1.976562 4.140625 -1.804688 4.140625 -1.609375 L 4.140625 0 L 3.453125 0 L 3.453125 -1.484375 C 3.453125 -1.835938 3.320312 -2.015625 3.0625 -2.015625 C 2.90625 -2.015625 2.785156 -1.957031 2.703125 -1.84375 C 2.617188 -1.738281 2.578125 -1.582031 2.578125 -1.375 L 2.578125 0 L 1.90625 0 L 1.90625 -1.484375 C 1.90625 -1.835938 1.78125 -2.015625 1.53125 -2.015625 C 1.363281 -2.015625 1.234375 -1.957031 1.140625 -1.84375 C 1.054688 -1.738281 1.015625 -1.582031 1.015625 -1.375 L 1.015625 0 L 0.328125 0 L 0.328125 -2.5625 L 0.8125 -2.5625 L 0.9375 -2.234375 C 1.03125 -2.347656 1.144531 -2.441406 1.28125 -2.515625 C 1.414062 -2.585938 1.554688 -2.625 1.703125 -2.625 C 1.867188 -2.625 2.015625 -2.585938 2.140625 -2.515625 C 2.273438 -2.441406 2.378906 -2.335938 2.453125 -2.203125 C 2.535156 -2.328125 2.644531 -2.425781 2.78125 -2.5 C 2.925781 -2.582031 3.078125 -2.625 3.234375 -2.625 Z M 3.234375 -2.625 "/></g></g></g></svg>