<?xml version="1.0" standalone="no"?>
<!DOCTYPE svg PUBLIC "-//W3C//DTD SVG 1.1//EN" "http://www.w3.org/Graphics/SVG/1.1/DTD/svg11.dtd">
<svg xmlns="http://www.w3.org/2000/svg" xmlns:xlink="http://www.w3.org/1999/xlink" id="Layer_1" data-name="Layer 1" viewBox="0 0 49.71 49.61" width="49.709999084472656" height="49.61000061035156"><defs><style>.cls-1{fill:none;}.cls-2{clip-path:url(#clip-path);}.cls-3{fill:#fff;}</style><clipPath id="clip-path" transform="translate(-0.05 -0.3)"><rect class="cls-1" x="-0.25" y="-0.5" width="50.5" height="51"/></clipPath></defs><g class="cls-2"><path class="cls-3" d="M11.59,32.08a1.73,1.73,0,0,1-2.45-2.43C10.71,28,13.17,30.44,11.59,32.08Zm35.82-2.23A23.5,23.5,0,0,1,43.3,39a1.85,1.85,0,0,1-2.4,2.76A23,23,0,0,1,35,46a2.55,2.55,0,0,1-4.77,1.73,22.23,22.23,0,0,1-5,.67A2.41,2.41,0,0,1,20.65,48,23.54,23.54,0,0,1,14,45.74,2.55,2.55,0,0,1,10,43a23.4,23.4,0,0,1-6-7.72,2.43,2.43,0,0,1-1.63-4.47,24.06,24.06,0,0,1-.66-7.69,2.52,2.52,0,0,1,.91-4.89A23.33,23.33,0,0,1,10.18,6.73c-1.52-3,2.31-6,4.75-3.57a2.72,2.72,0,0,1,.31.38,22.71,22.71,0,0,1,12-2,2,2,0,0,1,3.82.75,22.83,22.83,0,0,1,3.26,1.21,1.48,1.48,0,0,1,2.52,1.35q.9.57,1.77,1.23A23.59,23.59,0,0,1,42.38,9.7a1.36,1.36,0,0,1,1.56,2.07,23.63,23.63,0,0,1,2,3.76,1.91,1.91,0,0,1,1.2,3.54A23.7,23.7,0,0,1,47.91,25,2.47,2.47,0,0,1,47.41,29.85ZM41.64,11.53c-.92.12-1.83.28-2.74.47a2.87,2.87,0,0,1-.15,1.27,32.94,32.94,0,0,1,6,3.08l.49-.49c-.31-.72-.66-1.42-1-2.09-.29-.51-.59-1-.91-1.49A1.37,1.37,0,0,1,41.64,11.53ZM22.87,22a34.52,34.52,0,0,1,7.75,4,3.55,3.55,0,0,1,.31-.23,33.62,33.62,0,0,0-3.76-7.48,1.55,1.55,0,0,1-1.51-.16,33.42,33.42,0,0,0-3.05,2.68A2,2,0,0,1,22.87,22ZM33,11.57a2.9,2.9,0,0,1,.23-.62A33,33,0,0,0,25,7.11c-.63.85-1.2,1.72-1.74,2.61A2.3,2.3,0,0,1,24.16,11,34.14,34.14,0,0,1,33,11.57Zm-.08.84a32.92,32.92,0,0,0-8.69-.6,2.33,2.33,0,0,1-.37,1.13c.76.79,1.49,1.6,2.17,2.45a1.54,1.54,0,0,1,1.6.36A35,35,0,0,1,33,13,3.31,3.31,0,0,1,32.93,12.41Zm-13.22,0A33,33,0,0,0,4.78,19.75a2.27,2.27,0,0,1,.18.8A33.66,33.66,0,0,1,19.43,21a1.75,1.75,0,0,1,.31-.42A1.81,1.81,0,0,1,22,20.26a36.16,36.16,0,0,1,3.11-2.73,1.56,1.56,0,0,1,.23-1.65c-.65-.81-1.34-1.58-2.07-2.33A2.36,2.36,0,0,1,19.71,12.41Zm12,13.16a2.17,2.17,0,0,1,.87.1A34.52,34.52,0,0,0,35.46,15.3a3.07,3.07,0,0,1-2.16-1.55,31.53,31.53,0,0,0-5.24,2.74,1.62,1.62,0,0,1-.24,1.31A35,35,0,0,1,31.73,25.57Zm1.59.53a2.43,2.43,0,0,1,.46.62,32.67,32.67,0,0,0,4.44-2.37,34.42,34.42,0,0,0-1.74-9.07l-.18,0A35.69,35.69,0,0,1,33.32,26.1Zm.46,2.45a34.44,34.44,0,0,1,3.57,3.69,1.28,1.28,0,0,1,.43-.1,34.69,34.69,0,0,0,.48-6.82A32.91,32.91,0,0,1,34,27.56,2,2,0,0,1,33.78,28.55ZM39,23.84a34.41,34.41,0,0,0,4-3.2,34.76,34.76,0,0,0-5.13-6.06,2.87,2.87,0,0,1-.62.43A36.1,36.1,0,0,1,39,23.84Zm4.61-3.78c.44-.43.87-.88,1.3-1.34a1.92,1.92,0,0,1-.53-1.58,34.14,34.14,0,0,0-5.77-3A36.12,36.12,0,0,1,43.63,20.06ZM36.07,5.89a33,33,0,0,1,.37,3.4,3.11,3.11,0,0,1,2.27,1.89c.94-.2,1.88-.37,2.83-.49a1.92,1.92,0,0,1,.18-.45,22.34,22.34,0,0,0-5.28-4.61A1.18,1.18,0,0,1,36.07,5.89ZM30.71,3.46a33.9,33.9,0,0,1,4.13,6,2.63,2.63,0,0,1,.77-.19c-.07-1.09-.18-2.16-.35-3.23A1.51,1.51,0,0,1,34,4.3a24.23,24.23,0,0,0-3.09-1.15A3.07,3.07,0,0,1,30.71,3.46ZM25.56,6.4a34.26,34.26,0,0,1,8.15,3.85l.41-.38A33.7,33.7,0,0,0,30.1,4a2,2,0,0,1-2.28-.24ZM15.65,4.3a4.42,4.42,0,0,1,.14.52A33.37,33.37,0,0,1,24.7,6.15l2.6-3a2,2,0,0,1-.18-.69A22,22,0,0,0,15.65,4.3Zm-.11,2.35A34,34,0,0,1,20.4,9.82a2.27,2.27,0,0,1,2.13-.46c.51-.85,1-1.68,1.64-2.49a32.61,32.61,0,0,0-8.36-1.21A2.92,2.92,0,0,1,15.54,6.65ZM3.47,18.41l.86.62a33.79,33.79,0,0,1,15.25-7.45,2.39,2.39,0,0,1,.3-1.1,31.77,31.77,0,0,0-4.8-3.12,3,3,0,0,1-4.41.08A23.25,23.25,0,0,0,3.47,18.41ZM19.58,23a1.94,1.94,0,0,1-.36-1.18,33,33,0,0,0-14.36-.34,2.49,2.49,0,0,1-2.3,1.77,22.74,22.74,0,0,0,.62,7.29A2.42,2.42,0,0,1,4.8,34.94a22.71,22.71,0,0,0,5.56,7.27,2.55,2.55,0,0,1,1.53-1A34.84,34.84,0,0,1,19.58,23ZM14.81,42.88a34.14,34.14,0,0,0,15.87-13.6,2.13,2.13,0,0,1-.58-2.56,33.12,33.12,0,0,0-7.5-3.91,1.83,1.83,0,0,1-2.39.68,34,34,0,0,0-7.48,17.69A2.63,2.63,0,0,1,14.81,42.88ZM32.07,29.72a2,2,0,0,1-.64-.07A34.87,34.87,0,0,1,15,43.73a2.46,2.46,0,0,1-.36,1.35,22.79,22.79,0,0,0,6,2.09,2.41,2.41,0,0,1,4.79.4A22.15,22.15,0,0,0,30,47a2.61,2.61,0,0,1,2.28-2.89A34.65,34.65,0,0,0,32.07,29.72Zm1.2,14.44a34.26,34.26,0,0,0,4-9.43,1.42,1.42,0,0,1-.51-1.95,33.94,33.94,0,0,0-3.45-3.55,2.55,2.55,0,0,1-.4.27,35.48,35.48,0,0,1,.25,14.62A.37.37,0,0,1,33.27,44.16Zm7.48-5.34a34.27,34.27,0,0,0-2.45-4l-.25.06a35.22,35.22,0,0,1-4,9.65l.65.7a22.56,22.56,0,0,0,5.65-4.07A1.86,1.86,0,0,1,40.75,38.82Zm5.8-9.12a2.5,2.5,0,0,1-.81-4.12,33.69,33.69,0,0,0-2.26-4.22,33.45,33.45,0,0,1-4.41,3.45,35.24,35.24,0,0,1-.49,7.53,1.42,1.42,0,0,1,.39,2,34.82,34.82,0,0,1,2.52,4.11,1.83,1.83,0,0,1,1.11.08A23.09,23.09,0,0,0,46.55,29.7ZM47.06,25a23,23,0,0,0-.7-5.64,1.6,1.6,0,0,1-.73-.11c-.5.54-1,1.07-1.53,1.58a35.11,35.11,0,0,1,2.35,4.34A2.13,2.13,0,0,1,47.06,25Zm-4.19,6.39a.92.92,0,0,0-.48,1.77A.92.92,0,0,0,42.87,31.34ZM25.64,30.27A1.15,1.15,0,0,0,26,28,1.15,1.15,0,0,0,25.64,30.27Zm.2,9.63a1.5,1.5,0,0,0-.79,2.9A1.5,1.5,0,0,0,25.84,39.9ZM17.07,15.28a1.26,1.26,0,0,0-.66,2.44A1.26,1.26,0,0,0,17.07,15.28Z" transform="translate(-0.05 -0.3)"/></g></svg>