<svg xmlns="http://www.w3.org/2000/svg" xmlns:xlink="http://www.w3.org/1999/xlink" width="150" zoomAndPan="magnify" viewBox="0 0 112.5 37.5" height="50" preserveAspectRatio="xMidYMid meet" version="1.0"><defs><g/><clipPath id="42929c328f"><path d="M 1 0.335938 L 37.5 0.335938 L 37.5 36.601562 L 1 36.601562 Z M 1 0.335938 " clip-rule="nonzero"/></clipPath></defs><g clip-path="url(#42929c328f)"><path fill="#ffffff" d="M 9.558594 23.503906 C 8.417969 24.671875 6.644531 22.941406 7.785156 21.773438 C 8.921875 20.605469 10.699219 22.335938 9.558594 23.503906 Z M 35.445312 21.914062 C 34.953125 24.234375 33.964844 26.464844 32.476562 28.445312 C 33.472656 29.597656 32 31.246094 30.742188 30.410156 C 29.457031 31.660156 28.019531 32.660156 26.488281 33.414062 C 27.007812 35.550781 23.984375 36.601562 23.035156 34.648438 C 21.859375 34.9375 20.640625 35.101562 19.40625 35.121094 C 18.769531 36.671875 16.476562 36.46875 16.105469 34.855469 C 14.453125 34.550781 12.785156 33.976562 11.324219 33.214844 C 9.902344 34.390625 7.824219 33.011719 8.390625 31.25 C 6.574219 29.730469 5.117188 27.859375 4.085938 25.753906 C 2.21875 26.097656 1.253906 23.539062 2.910156 22.578125 C 2.457031 20.824219 2.285156 18.980469 2.433594 17.113281 C 0.496094 16.515625 0.984375 13.515625 3.085938 13.636719 C 4.078125 10.3125 6.023438 7.519531 8.535156 5.476562 C 7.441406 3.34375 10.210938 1.222656 11.972656 2.941406 C 12.058594 3.023438 12.128906 3.113281 12.199219 3.207031 C 14.859375 2 17.84375 1.484375 20.875 1.816406 C 21.441406 0.335938 23.667969 0.769531 23.636719 2.351562 C 24.4375 2.574219 25.226562 2.863281 25.992188 3.210938 C 26.75 2.402344 28.058594 3.136719 27.8125 4.171875 C 28.246094 4.4375 28.675781 4.730469 29.09375 5.042969 C 30.085938 5.785156 31.007812 6.648438 31.808594 7.585938 C 32.675781 7.253906 33.5 8.296875 32.9375 9.0625 C 33.515625 9.914062 34.007812 10.808594 34.414062 11.734375 C 35.863281 11.519531 36.574219 13.515625 35.28125 14.25 C 35.636719 15.628906 35.8125 17.046875 35.808594 18.460938 C 37.796875 18.917969 37.484375 21.886719 35.445312 21.914062 Z M 31.273438 8.890625 C 30.613281 8.972656 29.953125 9.089844 29.296875 9.226562 C 29.328125 9.527344 29.292969 9.839844 29.191406 10.128906 C 30.675781 10.707031 32.117188 11.4375 33.492188 12.316406 L 33.839844 11.96875 C 33.617188 11.460938 33.367188 10.960938 33.097656 10.480469 C 32.890625 10.121094 32.671875 9.765625 32.4375 9.421875 C 31.992188 9.554688 31.472656 9.332031 31.273438 8.890625 Z M 17.710938 16.34375 C 19.65625 17.046875 21.539062 18.003906 23.308594 19.21875 C 23.378906 19.15625 23.460938 19.101562 23.539062 19.054688 C 22.867188 17.199219 21.960938 15.40625 20.816406 13.730469 C 20.464844 13.882812 20.050781 13.847656 19.726562 13.621094 C 18.960938 14.203125 18.222656 14.839844 17.519531 15.527344 C 17.671875 15.773438 17.734375 16.0625 17.710938 16.34375 Z M 25.042969 8.917969 C 25.078125 8.769531 25.132812 8.621094 25.203125 8.480469 C 23.328125 7.285156 21.328125 6.375 19.261719 5.75 C 18.8125 6.351562 18.394531 6.972656 18.007812 7.601562 C 18.304688 7.808594 18.535156 8.113281 18.644531 8.488281 C 20.785156 8.359375 22.9375 8.5 25.042969 8.917969 Z M 24.984375 9.519531 C 22.914062 9.101562 20.804688 8.957031 18.703125 9.089844 C 18.683594 9.371094 18.589844 9.644531 18.429688 9.890625 C 18.984375 10.453125 19.507812 11.03125 20 11.632812 C 20.390625 11.5 20.851562 11.582031 21.160156 11.894531 C 22.402344 11.113281 23.699219 10.449219 25.035156 9.90625 C 25.003906 9.78125 24.988281 9.648438 24.984375 9.519531 Z M 15.429688 9.519531 C 11.546875 10.296875 7.820312 12.039062 4.636719 14.734375 C 4.714844 14.917969 4.757812 15.109375 4.765625 15.304688 C 8.226562 14.660156 11.785156 14.75 15.226562 15.597656 C 15.285156 15.488281 15.355469 15.386719 15.445312 15.296875 C 15.890625 14.84375 16.582031 14.777344 17.097656 15.101562 C 17.816406 14.402344 18.566406 13.753906 19.34375 13.160156 C 19.171875 12.777344 19.222656 12.316406 19.507812 11.980469 C 19.039062 11.410156 18.542969 10.859375 18.015625 10.328125 C 17.121094 10.976562 15.792969 10.554688 15.429688 9.519531 Z M 24.113281 18.875 C 24.324219 18.851562 24.535156 18.878906 24.742188 18.945312 C 25.828125 16.589844 26.519531 14.097656 26.808594 11.570312 C 26.171875 11.46875 25.5625 11.046875 25.246094 10.46875 C 23.941406 10.996094 22.675781 11.644531 21.460938 12.414062 C 21.542969 12.730469 21.484375 13.070312 21.289062 13.347656 C 22.476562 15.089844 23.417969 16.945312 24.113281 18.875 Z M 25.261719 19.25 C 25.402344 19.382812 25.515625 19.535156 25.59375 19.695312 C 26.699219 19.21875 27.773438 18.65625 28.804688 18.007812 C 28.683594 15.820312 28.265625 13.648438 27.546875 11.554688 C 27.503906 11.566406 27.460938 11.570312 27.414062 11.578125 C 27.117188 14.210938 26.398438 16.804688 25.261719 19.25 Z M 25.59375 20.996094 C 26.535156 21.816406 27.394531 22.695312 28.179688 23.617188 C 28.277344 23.574219 28.378906 23.550781 28.484375 23.546875 C 28.765625 21.941406 28.878906 20.316406 28.835938 18.699219 C 27.835938 19.304688 26.804688 19.835938 25.742188 20.289062 C 25.753906 20.53125 25.703125 20.773438 25.59375 20.996094 Z M 29.382812 17.640625 C 30.390625 16.964844 31.359375 16.210938 32.273438 15.371094 C 31.222656 13.820312 29.972656 12.355469 28.566406 11.0625 C 28.425781 11.183594 28.277344 11.289062 28.117188 11.367188 C 28.808594 13.402344 29.234375 15.511719 29.382812 17.640625 Z M 32.714844 14.953125 C 33.035156 14.648438 33.347656 14.332031 33.652344 14.003906 C 33.375 13.714844 33.214844 13.308594 33.273438 12.882812 C 31.941406 12.023438 30.542969 11.304688 29.101562 10.734375 C 30.46875 12.015625 31.683594 13.441406 32.714844 14.953125 Z M 27.253906 4.882812 C 27.382812 5.6875 27.472656 6.492188 27.519531 7.300781 C 28.234375 7.425781 28.890625 7.957031 29.15625 8.640625 C 29.835938 8.5 30.519531 8.378906 31.207031 8.292969 C 31.230469 8.183594 31.273438 8.070312 31.335938 7.972656 C 30.25 6.6875 28.953125 5.582031 27.515625 4.695312 C 27.4375 4.773438 27.351562 4.835938 27.253906 4.882812 Z M 23.375 3.148438 C 24.539062 4.484375 25.535156 5.917969 26.363281 7.417969 C 26.542969 7.347656 26.730469 7.300781 26.921875 7.28125 C 26.871094 6.511719 26.785156 5.75 26.664062 4.988281 C 26.066406 4.921875 25.628906 4.335938 25.730469 3.75 C 25.019531 3.425781 24.273438 3.15625 23.5 2.933594 C 23.464844 3.007812 23.421875 3.082031 23.375 3.148438 Z M 19.65625 5.242188 C 21.703125 5.882812 23.683594 6.796875 25.542969 7.980469 L 25.84375 7.707031 C 25.035156 6.246094 24.066406 4.851562 22.9375 3.554688 C 22.386719 3.875 21.722656 3.761719 21.285156 3.386719 Z M 12.492188 3.746094 C 12.535156 3.867188 12.566406 3.992188 12.589844 4.121094 C 14.761719 4.148438 16.929688 4.460938 19.035156 5.0625 L 20.910156 2.902344 C 20.839844 2.753906 20.796875 2.589844 20.785156 2.414062 C 17.960938 2.121094 15.109375 2.566406 12.492188 3.746094 Z M 12.414062 5.417969 C 13.628906 6.0625 14.804688 6.8125 15.921875 7.675781 C 16.367188 7.292969 16.949219 7.203125 17.464844 7.347656 C 17.832031 6.742188 18.222656 6.152344 18.648438 5.574219 C 16.671875 5.03125 14.640625 4.746094 12.609375 4.71875 C 12.585938 4.957031 12.519531 5.195312 12.414062 5.417969 Z M 3.691406 13.78125 L 4.3125 14.222656 C 7.570312 11.484375 11.375 9.71875 15.335938 8.925781 C 15.339844 8.65625 15.410156 8.382812 15.546875 8.140625 C 14.445312 7.292969 13.285156 6.550781 12.082031 5.921875 C 11.246094 6.871094 9.769531 6.898438 8.894531 5.984375 C 6.433594 8.007812 4.570312 10.855469 3.691406 13.78125 Z M 15.332031 17.007812 C 15.148438 16.761719 15.0625 16.46875 15.070312 16.171875 C 11.65625 15.335938 8.121094 15.265625 4.695312 15.929688 C 4.46875 16.691406 3.761719 17.160156 3.03125 17.1875 C 2.894531 18.960938 3.054688 20.707031 3.476562 22.375 C 5.324219 22.054688 6.277344 24.570312 4.648438 25.539062 C 5.621094 27.511719 6.984375 29.265625 8.671875 30.703125 C 8.925781 30.355469 9.304688 30.09375 9.773438 29.996094 C 10.304688 25.347656 12.15625 20.8125 15.332031 17.007812 Z M 11.882812 31.179688 C 16.519531 29.308594 20.667969 25.839844 23.355469 21.511719 C 22.796875 21.074219 22.636719 20.304688 22.9375 19.695312 C 21.222656 18.519531 19.402344 17.59375 17.515625 16.914062 C 17.152344 17.5 16.382812 17.699219 15.789062 17.394531 C 12.710938 21.085938 10.910156 25.472656 10.378906 29.972656 C 11.046875 30.058594 11.65625 30.542969 11.882812 31.179688 Z M 24.359375 21.824219 C 24.203125 21.832031 24.046875 21.820312 23.898438 21.777344 C 21.121094 26.273438 16.8125 29.867188 11.988281 31.785156 C 11.992188 32.144531 11.898438 32.46875 11.726562 32.746094 C 13.058594 33.425781 14.570312 33.949219 16.070312 34.234375 C 16.347656 32.066406 19.609375 32.332031 19.53125 34.519531 C 20.664062 34.488281 21.78125 34.335938 22.867188 34.074219 C 22.761719 33.113281 23.4375 32.128906 24.511719 32.019531 C 25.1875 28.648438 25.132812 25.171875 24.359375 21.824219 Z M 25.230469 32.089844 C 26.535156 29.984375 27.488281 27.722656 28.089844 25.386719 C 27.597656 25.121094 27.429688 24.472656 27.722656 24.003906 C 26.960938 23.113281 26.132812 22.265625 25.226562 21.476562 C 25.136719 21.550781 25.039062 21.617188 24.9375 21.667969 C 25.730469 25.082031 25.792969 28.628906 25.121094 32.066406 C 25.15625 32.066406 25.195312 32.078125 25.230469 32.089844 Z M 30.632812 28.292969 C 30.113281 27.316406 29.519531 26.363281 28.859375 25.453125 C 28.800781 25.472656 28.738281 25.488281 28.679688 25.496094 C 28.070312 27.882812 27.101562 30.199219 25.769531 32.359375 L 26.238281 32.851562 C 27.738281 32.105469 29.117188 31.132812 30.324219 29.960938 C 30.015625 29.417969 30.128906 28.703125 30.632812 28.292969 Z M 34.828125 21.8125 C 33.636719 21.386719 33.273438 19.765625 34.238281 18.878906 C 33.777344 17.859375 33.230469 16.855469 32.609375 15.882812 C 31.601562 16.796875 30.535156 17.613281 29.421875 18.335938 C 29.5 20.121094 29.378906 21.917969 29.066406 23.691406 C 29.550781 23.988281 29.675781 24.652344 29.34375 25.105469 C 30.027344 26.042969 30.636719 27.019531 31.167969 28.027344 C 31.433594 27.964844 31.714844 27.984375 31.96875 28.085938 C 33.3125 26.296875 34.335938 24.09375 34.828125 21.8125 Z M 35.191406 18.433594 C 35.191406 17.0625 35.019531 15.71875 34.6875 14.425781 C 34.503906 14.433594 34.320312 14.40625 34.160156 14.34375 C 33.800781 14.730469 33.429688 15.105469 33.054688 15.464844 C 33.699219 16.464844 34.265625 17.5 34.75 18.554688 C 34.890625 18.492188 35.042969 18.453125 35.191406 18.433594 Z M 32.167969 22.976562 C 31.339844 22.75 30.992188 24.007812 31.820312 24.238281 C 32.640625 24.46875 32.992188 23.207031 32.167969 22.976562 Z M 19.710938 22.21875 C 20.777344 22.386719 21.035156 20.761719 19.96875 20.59375 C 18.902344 20.425781 18.644531 22.050781 19.710938 22.21875 Z M 19.855469 29.066406 C 18.507812 28.695312 17.9375 30.753906 19.289062 31.125 C 20.640625 31.5 21.207031 29.441406 19.855469 29.066406 Z M 13.519531 11.554688 C 12.382812 11.238281 11.902344 12.976562 13.039062 13.292969 C 14.175781 13.605469 14.65625 11.867188 13.519531 11.554688 Z M 13.519531 11.554688 " fill-opacity="1" fill-rule="nonzero"/></g><path stroke-linecap="butt" transform="matrix(0, -0.740132, 0.740132, 0, 38.492042, 35.7923)" fill="none" stroke-linejoin="miter" d="M -0.000903419 0.501585 L 46.733821 0.501585 " stroke="#ffffff" stroke-width="1" stroke-opacity="1" stroke-miterlimit="4"/><g fill="#ffffff" fill-opacity="1"><g transform="translate(41.690465, 17.789143)"><g><path d="M 8.046875 0 L 6.71875 0 L 6.140625 -3.921875 L 4.34375 -0.015625 L 4.015625 -0.015625 L 2.234375 -3.921875 L 1.640625 0 L 0.3125 0 L 1.25 -6 L 2.5625 -6 L 4.171875 -2.328125 L 5.8125 -6 L 7.109375 -6 Z M 8.046875 0 "/></g></g></g><g fill="#ffffff" fill-opacity="1"><g transform="translate(50.061401, 17.789143)"><g><path d="M 2.25 0.125 C 1.863281 0.125 1.523438 0.0546875 1.234375 -0.078125 C 0.941406 -0.210938 0.710938 -0.40625 0.546875 -0.65625 C 0.378906 -0.90625 0.296875 -1.195312 0.296875 -1.53125 L 1.515625 -1.53125 C 1.523438 -1.320312 1.597656 -1.164062 1.734375 -1.0625 C 1.878906 -0.957031 2.066406 -0.90625 2.296875 -0.90625 C 2.472656 -0.90625 2.625 -0.941406 2.75 -1.015625 C 2.882812 -1.097656 2.953125 -1.21875 2.953125 -1.375 C 2.953125 -1.53125 2.863281 -1.640625 2.6875 -1.703125 C 2.507812 -1.773438 2.300781 -1.832031 2.0625 -1.875 C 1.875 -1.894531 1.679688 -1.929688 1.484375 -1.984375 C 1.285156 -2.035156 1.101562 -2.109375 0.9375 -2.203125 C 0.769531 -2.304688 0.632812 -2.441406 0.53125 -2.609375 C 0.425781 -2.785156 0.375 -3.007812 0.375 -3.28125 C 0.375 -3.570312 0.453125 -3.828125 0.609375 -4.046875 C 0.765625 -4.273438 0.984375 -4.453125 1.265625 -4.578125 C 1.546875 -4.703125 1.875 -4.765625 2.25 -4.765625 C 2.625 -4.765625 2.945312 -4.695312 3.21875 -4.5625 C 3.5 -4.4375 3.710938 -4.257812 3.859375 -4.03125 C 4.015625 -3.800781 4.09375 -3.53125 4.09375 -3.21875 L 2.90625 -3.21875 C 2.90625 -3.394531 2.84375 -3.53125 2.71875 -3.625 C 2.601562 -3.71875 2.4375 -3.765625 2.21875 -3.765625 C 2.019531 -3.765625 1.863281 -3.722656 1.75 -3.640625 C 1.644531 -3.554688 1.59375 -3.445312 1.59375 -3.3125 C 1.59375 -3.164062 1.675781 -3.0625 1.84375 -3 C 2.019531 -2.945312 2.226562 -2.898438 2.46875 -2.859375 C 2.65625 -2.828125 2.847656 -2.785156 3.046875 -2.734375 C 3.253906 -2.679688 3.441406 -2.609375 3.609375 -2.515625 C 3.785156 -2.421875 3.925781 -2.285156 4.03125 -2.109375 C 4.132812 -1.941406 4.1875 -1.71875 4.1875 -1.4375 C 4.1875 -1.113281 4.101562 -0.832031 3.9375 -0.59375 C 3.78125 -0.363281 3.554688 -0.1875 3.265625 -0.0625 C 2.972656 0.0625 2.632812 0.125 2.25 0.125 Z M 2.25 0.125 "/></g></g></g><g fill="#ffffff" fill-opacity="1"><g transform="translate(54.568829, 17.789143)"><g><path d="M 0.515625 0 L 0.515625 -1.34375 L 1.84375 -1.34375 L 1.84375 0 Z M 0.515625 0 "/></g></g></g><g fill="#ffffff" fill-opacity="1"><g transform="translate(56.921277, 17.789143)"><g><path d="M 5.6875 -6 L 3.578125 -2.421875 L 3.578125 0 L 2.234375 0 L 2.234375 -2.4375 L 0.140625 -6 L 1.53125 -6 L 2.921875 -3.609375 L 4.3125 -6 Z M 5.6875 -6 "/></g></g></g><g fill="#ffffff" fill-opacity="1"><g transform="translate(62.750879, 17.789143)"><g><path d="M 2.8125 0.125 C 2.320312 0.125 1.890625 0.0195312 1.515625 -0.1875 C 1.140625 -0.40625 0.84375 -0.695312 0.625 -1.0625 C 0.40625 -1.4375 0.296875 -1.851562 0.296875 -2.3125 C 0.296875 -2.78125 0.40625 -3.195312 0.625 -3.5625 C 0.84375 -3.9375 1.140625 -4.226562 1.515625 -4.4375 C 1.890625 -4.65625 2.320312 -4.765625 2.8125 -4.765625 C 3.28125 -4.765625 3.703125 -4.65625 4.078125 -4.4375 C 4.460938 -4.226562 4.757812 -3.9375 4.96875 -3.5625 C 5.1875 -3.195312 5.296875 -2.78125 5.296875 -2.3125 C 5.296875 -1.851562 5.1875 -1.4375 4.96875 -1.0625 C 4.757812 -0.695312 4.460938 -0.40625 4.078125 -0.1875 C 3.703125 0.0195312 3.28125 0.125 2.8125 0.125 Z M 2.8125 -1.046875 C 3.164062 -1.046875 3.457031 -1.160156 3.6875 -1.390625 C 3.914062 -1.628906 4.03125 -1.9375 4.03125 -2.3125 C 4.03125 -2.6875 3.914062 -2.988281 3.6875 -3.21875 C 3.457031 -3.457031 3.164062 -3.578125 2.8125 -3.578125 C 2.4375 -3.578125 2.132812 -3.457031 1.90625 -3.21875 C 1.675781 -2.988281 1.5625 -2.6875 1.5625 -2.3125 C 1.5625 -1.9375 1.675781 -1.628906 1.90625 -1.390625 C 2.132812 -1.160156 2.4375 -1.046875 2.8125 -1.046875 Z M 2.8125 -1.046875 "/></g></g></g><g fill="#ffffff" fill-opacity="1"><g transform="translate(68.35726, 17.789143)"><g><path d="M 2.8125 0.125 C 2.320312 0.125 1.890625 0.0195312 1.515625 -0.1875 C 1.140625 -0.40625 0.84375 -0.695312 0.625 -1.0625 C 0.40625 -1.4375 0.296875 -1.851562 0.296875 -2.3125 C 0.296875 -2.78125 0.40625 -3.195312 0.625 -3.5625 C 0.84375 -3.9375 1.140625 -4.226562 1.515625 -4.4375 C 1.890625 -4.65625 2.320312 -4.765625 2.8125 -4.765625 C 3.28125 -4.765625 3.703125 -4.65625 4.078125 -4.4375 C 4.460938 -4.226562 4.757812 -3.9375 4.96875 -3.5625 C 5.1875 -3.195312 5.296875 -2.78125 5.296875 -2.3125 C 5.296875 -1.851562 5.1875 -1.4375 4.96875 -1.0625 C 4.757812 -0.695312 4.460938 -0.40625 4.078125 -0.1875 C 3.703125 0.0195312 3.28125 0.125 2.8125 0.125 Z M 2.8125 -1.046875 C 3.164062 -1.046875 3.457031 -1.160156 3.6875 -1.390625 C 3.914062 -1.628906 4.03125 -1.9375 4.03125 -2.3125 C 4.03125 -2.6875 3.914062 -2.988281 3.6875 -3.21875 C 3.457031 -3.457031 3.164062 -3.578125 2.8125 -3.578125 C 2.4375 -3.578125 2.132812 -3.457031 1.90625 -3.21875 C 1.675781 -2.988281 1.5625 -2.6875 1.5625 -2.3125 C 1.5625 -1.9375 1.675781 -1.628906 1.90625 -1.390625 C 2.132812 -1.160156 2.4375 -1.046875 2.8125 -1.046875 Z M 2.8125 -1.046875 "/></g></g></g><g fill="#ffffff" fill-opacity="1"><g transform="translate(73.963641, 17.789143)"><g><path d="M 3.25 -4.75 C 3.769531 -4.75 4.179688 -4.570312 4.484375 -4.21875 C 4.796875 -3.863281 4.953125 -3.394531 4.953125 -2.8125 L 4.953125 0 L 3.703125 0 L 3.703125 -2.609375 C 3.703125 -3.296875 3.429688 -3.640625 2.890625 -3.640625 C 2.566406 -3.640625 2.3125 -3.53125 2.125 -3.3125 C 1.945312 -3.101562 1.859375 -2.8125 1.859375 -2.4375 L 1.859375 0 L 0.59375 0 L 0.59375 -4.625 L 1.453125 -4.625 L 1.703125 -4.0625 C 1.878906 -4.269531 2.097656 -4.4375 2.359375 -4.5625 C 2.628906 -4.6875 2.925781 -4.75 3.25 -4.75 Z M 3.25 -4.75 "/></g></g></g><g fill="#ffffff" fill-opacity="1"><g transform="translate(79.466987, 17.789143)"><g/></g></g><g fill="#ffffff" fill-opacity="1"><g transform="translate(81.518943, 17.789143)"><g><path d="M 8.046875 0 L 6.71875 0 L 6.140625 -3.921875 L 4.34375 -0.015625 L 4.015625 -0.015625 L 2.234375 -3.921875 L 1.640625 0 L 0.3125 0 L 1.25 -6 L 2.5625 -6 L 4.171875 -2.328125 L 5.8125 -6 L 7.109375 -6 Z M 8.046875 0 "/></g></g></g><g fill="#ffffff" fill-opacity="1"><g transform="translate(89.88988, 17.789143)"><g><path d="M 5.09375 -2.328125 C 5.09375 -2.210938 5.082031 -2.09375 5.0625 -1.96875 L 1.5625 -1.96875 C 1.613281 -1.65625 1.738281 -1.410156 1.9375 -1.234375 C 2.144531 -1.066406 2.398438 -0.984375 2.703125 -0.984375 C 2.921875 -0.984375 3.113281 -1.03125 3.28125 -1.125 C 3.457031 -1.21875 3.59375 -1.347656 3.6875 -1.515625 L 5 -1.515625 C 4.832031 -1.015625 4.539062 -0.613281 4.125 -0.3125 C 3.71875 -0.0195312 3.242188 0.125 2.703125 0.125 C 2.242188 0.125 1.832031 0.0195312 1.46875 -0.1875 C 1.101562 -0.40625 0.816406 -0.695312 0.609375 -1.0625 C 0.398438 -1.4375 0.296875 -1.851562 0.296875 -2.3125 C 0.296875 -2.78125 0.398438 -3.195312 0.609375 -3.5625 C 0.816406 -3.9375 1.101562 -4.226562 1.46875 -4.4375 C 1.832031 -4.65625 2.242188 -4.765625 2.703125 -4.765625 C 3.179688 -4.765625 3.597656 -4.648438 3.953125 -4.421875 C 4.316406 -4.203125 4.597656 -3.910156 4.796875 -3.546875 C 4.992188 -3.179688 5.09375 -2.773438 5.09375 -2.328125 Z M 2.703125 -3.703125 C 2.421875 -3.703125 2.179688 -3.625 1.984375 -3.46875 C 1.796875 -3.3125 1.671875 -3.097656 1.609375 -2.828125 L 3.84375 -2.828125 C 3.65625 -3.410156 3.273438 -3.703125 2.703125 -3.703125 Z M 2.703125 -3.703125 "/></g></g></g><g fill="#ffffff" fill-opacity="1"><g transform="translate(95.281621, 17.789143)"><g/></g></g><g fill="#ffffff" fill-opacity="1"><g transform="translate(97.333577, 17.789143)"><g><path d="M 8.046875 0 L 6.71875 0 L 6.140625 -3.921875 L 4.34375 -0.015625 L 4.015625 -0.015625 L 2.234375 -3.921875 L 1.640625 0 L 0.3125 0 L 1.25 -6 L 2.5625 -6 L 4.171875 -2.328125 L 5.8125 -6 L 7.109375 -6 Z M 8.046875 0 "/></g></g></g><g fill="#ffffff" fill-opacity="1"><g transform="translate(105.704513, 17.789143)"><g><path d="M 5.09375 -2.328125 C 5.09375 -2.210938 5.082031 -2.09375 5.0625 -1.96875 L 1.5625 -1.96875 C 1.613281 -1.65625 1.738281 -1.410156 1.9375 -1.234375 C 2.144531 -1.066406 2.398438 -0.984375 2.703125 -0.984375 C 2.921875 -0.984375 3.113281 -1.03125 3.28125 -1.125 C 3.457031 -1.21875 3.59375 -1.347656 3.6875 -1.515625 L 5 -1.515625 C 4.832031 -1.015625 4.539062 -0.613281 4.125 -0.3125 C 3.71875 -0.0195312 3.242188 0.125 2.703125 0.125 C 2.242188 0.125 1.832031 0.0195312 1.46875 -0.1875 C 1.101562 -0.40625 0.816406 -0.695312 0.609375 -1.0625 C 0.398438 -1.4375 0.296875 -1.851562 0.296875 -2.3125 C 0.296875 -2.78125 0.398438 -3.195312 0.609375 -3.5625 C 0.816406 -3.9375 1.101562 -4.226562 1.46875 -4.4375 C 1.832031 -4.65625 2.242188 -4.765625 2.703125 -4.765625 C 3.179688 -4.765625 3.597656 -4.648438 3.953125 -4.421875 C 4.316406 -4.203125 4.597656 -3.910156 4.796875 -3.546875 C 4.992188 -3.179688 5.09375 -2.773438 5.09375 -2.328125 Z M 2.703125 -3.703125 C 2.421875 -3.703125 2.179688 -3.625 1.984375 -3.46875 C 1.796875 -3.3125 1.671875 -3.097656 1.609375 -2.828125 L 3.84375 -2.828125 C 3.65625 -3.410156 3.273438 -3.703125 2.703125 -3.703125 Z M 2.703125 -3.703125 "/></g></g></g><g fill="#ffffff" fill-opacity="1"><g transform="translate(41.690465, 23.689292)"><g><path d="M 2.09375 -2.5625 L 2.828125 -2.5625 L 1.71875 -0.03125 C 1.613281 0.195312 1.507812 0.378906 1.40625 0.515625 C 1.300781 0.660156 1.179688 0.765625 1.046875 0.828125 C 0.921875 0.890625 0.757812 0.921875 0.5625 0.921875 L 0.28125 0.921875 L 0.28125 0.296875 L 0.53125 0.296875 C 0.632812 0.296875 0.71875 0.28125 0.78125 0.25 C 0.851562 0.226562 0.910156 0.179688 0.953125 0.109375 C 0.992188 0.046875 1.046875 -0.046875 1.109375 -0.171875 L 1.109375 -0.1875 L 0.03125 -2.5625 L 0.78125 -2.5625 L 1.46875 -0.984375 Z M 2.09375 -2.5625 "/></g></g></g><g fill="#ffffff" fill-opacity="1"><g transform="translate(44.54207, 23.689292)"><g><path d="M 1.546875 0.078125 C 1.285156 0.078125 1.050781 0.0195312 0.84375 -0.09375 C 0.632812 -0.21875 0.46875 -0.378906 0.34375 -0.578125 C 0.226562 -0.785156 0.171875 -1.019531 0.171875 -1.28125 C 0.171875 -1.539062 0.226562 -1.769531 0.34375 -1.96875 C 0.46875 -2.175781 0.632812 -2.335938 0.84375 -2.453125 C 1.050781 -2.566406 1.285156 -2.625 1.546875 -2.625 C 1.804688 -2.625 2.039062 -2.566406 2.25 -2.453125 C 2.457031 -2.335938 2.617188 -2.175781 2.734375 -1.96875 C 2.859375 -1.769531 2.921875 -1.539062 2.921875 -1.28125 C 2.921875 -1.019531 2.859375 -0.785156 2.734375 -0.578125 C 2.617188 -0.378906 2.457031 -0.21875 2.25 -0.09375 C 2.039062 0.0195312 1.804688 0.078125 1.546875 0.078125 Z M 1.546875 -0.578125 C 1.742188 -0.578125 1.90625 -0.640625 2.03125 -0.765625 C 2.15625 -0.898438 2.21875 -1.070312 2.21875 -1.28125 C 2.21875 -1.488281 2.15625 -1.65625 2.03125 -1.78125 C 1.90625 -1.914062 1.742188 -1.984375 1.546875 -1.984375 C 1.347656 -1.984375 1.179688 -1.914062 1.046875 -1.78125 C 0.921875 -1.65625 0.859375 -1.488281 0.859375 -1.28125 C 0.859375 -1.070312 0.921875 -0.898438 1.046875 -0.765625 C 1.179688 -0.640625 1.347656 -0.578125 1.546875 -0.578125 Z M 1.546875 -0.578125 "/></g></g></g><g fill="#ffffff" fill-opacity="1"><g transform="translate(47.635262, 23.689292)"><g><path d="M 1.546875 0.078125 C 1.285156 0.078125 1.050781 0.0195312 0.84375 -0.09375 C 0.632812 -0.21875 0.46875 -0.378906 0.34375 -0.578125 C 0.226562 -0.785156 0.171875 -1.019531 0.171875 -1.28125 C 0.171875 -1.539062 0.226562 -1.769531 0.34375 -1.96875 C 0.46875 -2.175781 0.632812 -2.335938 0.84375 -2.453125 C 1.050781 -2.566406 1.285156 -2.625 1.546875 -2.625 C 1.804688 -2.625 2.039062 -2.566406 2.25 -2.453125 C 2.457031 -2.335938 2.617188 -2.175781 2.734375 -1.96875 C 2.859375 -1.769531 2.921875 -1.539062 2.921875 -1.28125 C 2.921875 -1.019531 2.859375 -0.785156 2.734375 -0.578125 C 2.617188 -0.378906 2.457031 -0.21875 2.25 -0.09375 C 2.039062 0.0195312 1.804688 0.078125 1.546875 0.078125 Z M 1.546875 -0.578125 C 1.742188 -0.578125 1.90625 -0.640625 2.03125 -0.765625 C 2.15625 -0.898438 2.21875 -1.070312 2.21875 -1.28125 C 2.21875 -1.488281 2.15625 -1.65625 2.03125 -1.78125 C 1.90625 -1.914062 1.742188 -1.984375 1.546875 -1.984375 C 1.347656 -1.984375 1.179688 -1.914062 1.046875 -1.78125 C 0.921875 -1.65625 0.859375 -1.488281 0.859375 -1.28125 C 0.859375 -1.070312 0.921875 -0.898438 1.046875 -0.765625 C 1.179688 -0.640625 1.347656 -0.578125 1.546875 -0.578125 Z M 1.546875 -0.578125 "/></g></g></g><g fill="#ffffff" fill-opacity="1"><g transform="translate(50.728453, 23.689292)"><g><path d="M 1.796875 -2.625 C 2.078125 -2.625 2.300781 -2.523438 2.46875 -2.328125 C 2.644531 -2.128906 2.734375 -1.867188 2.734375 -1.546875 L 2.734375 0 L 2.046875 0 L 2.046875 -1.4375 C 2.046875 -1.820312 1.894531 -2.015625 1.59375 -2.015625 C 1.414062 -2.015625 1.273438 -1.953125 1.171875 -1.828125 C 1.066406 -1.710938 1.015625 -1.550781 1.015625 -1.34375 L 1.015625 0 L 0.328125 0 L 0.328125 -2.5625 L 0.8125 -2.5625 L 0.9375 -2.234375 C 1.03125 -2.359375 1.148438 -2.453125 1.296875 -2.515625 C 1.453125 -2.585938 1.617188 -2.625 1.796875 -2.625 Z M 1.796875 -2.625 "/></g></g></g><g fill="#ffffff" fill-opacity="1"><g transform="translate(53.764797, 23.689292)"><g><path d="M 3.234375 -2.625 C 3.410156 -2.625 3.566406 -2.578125 3.703125 -2.484375 C 3.835938 -2.398438 3.941406 -2.28125 4.015625 -2.125 C 4.097656 -1.976562 4.140625 -1.804688 4.140625 -1.609375 L 4.140625 0 L 3.453125 0 L 3.453125 -1.484375 C 3.453125 -1.835938 3.320312 -2.015625 3.0625 -2.015625 C 2.90625 -2.015625 2.785156 -1.957031 2.703125 -1.84375 C 2.617188 -1.738281 2.578125 -1.582031 2.578125 -1.375 L 2.578125 0 L 1.90625 0 L 1.90625 -1.484375 C 1.90625 -1.835938 1.78125 -2.015625 1.53125 -2.015625 C 1.363281 -2.015625 1.234375 -1.957031 1.140625 -1.84375 C 1.054688 -1.738281 1.015625 -1.582031 1.015625 -1.375 L 1.015625 0 L 0.328125 0 L 0.328125 -2.5625 L 0.8125 -2.5625 L 0.9375 -2.234375 C 1.03125 -2.347656 1.144531 -2.441406 1.28125 -2.515625 C 1.414062 -2.585938 1.554688 -2.625 1.703125 -2.625 C 1.867188 -2.625 2.015625 -2.585938 2.140625 -2.515625 C 2.273438 -2.441406 2.378906 -2.335938 2.453125 -2.203125 C 2.535156 -2.328125 2.644531 -2.425781 2.78125 -2.5 C 2.925781 -2.582031 3.078125 -2.625 3.234375 -2.625 Z M 3.234375 -2.625 "/></g></g></g><g fill="#ffffff" fill-opacity="1"><g transform="translate(58.207998, 23.689292)"><g><path d="M 2.8125 -1.28125 C 2.8125 -1.21875 2.804688 -1.148438 2.796875 -1.078125 L 0.859375 -1.078125 C 0.890625 -0.910156 0.957031 -0.78125 1.0625 -0.6875 C 1.175781 -0.59375 1.316406 -0.546875 1.484375 -0.546875 C 1.609375 -0.546875 1.71875 -0.570312 1.8125 -0.625 C 1.90625 -0.675781 1.976562 -0.75 2.03125 -0.84375 L 2.765625 -0.84375 C 2.671875 -0.5625 2.507812 -0.335938 2.28125 -0.171875 C 2.050781 -0.00390625 1.785156 0.078125 1.484375 0.078125 C 1.234375 0.078125 1.007812 0.0195312 0.8125 -0.09375 C 0.613281 -0.21875 0.457031 -0.378906 0.34375 -0.578125 C 0.226562 -0.785156 0.171875 -1.019531 0.171875 -1.28125 C 0.171875 -1.53125 0.226562 -1.753906 0.34375 -1.953125 C 0.457031 -2.160156 0.613281 -2.320312 0.8125 -2.4375 C 1.007812 -2.5625 1.234375 -2.625 1.484375 -2.625 C 1.753906 -2.625 1.988281 -2.5625 2.1875 -2.4375 C 2.382812 -2.320312 2.535156 -2.160156 2.640625 -1.953125 C 2.753906 -1.753906 2.8125 -1.53125 2.8125 -1.28125 Z M 1.484375 -2.046875 C 1.335938 -2.046875 1.207031 -2 1.09375 -1.90625 C 0.988281 -1.820312 0.921875 -1.707031 0.890625 -1.5625 L 2.125 -1.5625 C 2.019531 -1.882812 1.804688 -2.046875 1.484375 -2.046875 Z M 1.484375 -2.046875 "/></g></g></g><g fill="#ffffff" fill-opacity="1"><g transform="translate(61.182767, 23.689292)"><g><path d="M 3.234375 -2.625 C 3.410156 -2.625 3.566406 -2.578125 3.703125 -2.484375 C 3.835938 -2.398438 3.941406 -2.28125 4.015625 -2.125 C 4.097656 -1.976562 4.140625 -1.804688 4.140625 -1.609375 L 4.140625 0 L 3.453125 0 L 3.453125 -1.484375 C 3.453125 -1.835938 3.320312 -2.015625 3.0625 -2.015625 C 2.90625 -2.015625 2.785156 -1.957031 2.703125 -1.84375 C 2.617188 -1.738281 2.578125 -1.582031 2.578125 -1.375 L 2.578125 0 L 1.90625 0 L 1.90625 -1.484375 C 1.90625 -1.835938 1.78125 -2.015625 1.53125 -2.015625 C 1.363281 -2.015625 1.234375 -1.957031 1.140625 -1.84375 C 1.054688 -1.738281 1.015625 -1.582031 1.015625 -1.375 L 1.015625 0 L 0.328125 0 L 0.328125 -2.5625 L 0.8125 -2.5625 L 0.9375 -2.234375 C 1.03125 -2.347656 1.144531 -2.441406 1.28125 -2.515625 C 1.414062 -2.585938 1.554688 -2.625 1.703125 -2.625 C 1.867188 -2.625 2.015625 -2.585938 2.140625 -2.515625 C 2.273438 -2.441406 2.378906 -2.335938 2.453125 -2.203125 C 2.535156 -2.328125 2.644531 -2.425781 2.78125 -2.5 C 2.925781 -2.582031 3.078125 -2.625 3.234375 -2.625 Z M 3.234375 -2.625 "/></g></g></g><g fill="#ffffff" fill-opacity="1"><g transform="translate(65.625968, 23.689292)"><g><path d="M 2.8125 -1.28125 C 2.8125 -1.21875 2.804688 -1.148438 2.796875 -1.078125 L 0.859375 -1.078125 C 0.890625 -0.910156 0.957031 -0.78125 1.0625 -0.6875 C 1.175781 -0.59375 1.316406 -0.546875 1.484375 -0.546875 C 1.609375 -0.546875 1.71875 -0.570312 1.8125 -0.625 C 1.90625 -0.675781 1.976562 -0.75 2.03125 -0.84375 L 2.765625 -0.84375 C 2.671875 -0.5625 2.507812 -0.335938 2.28125 -0.171875 C 2.050781 -0.00390625 1.785156 0.078125 1.484375 0.078125 C 1.234375 0.078125 1.007812 0.0195312 0.8125 -0.09375 C 0.613281 -0.21875 0.457031 -0.378906 0.34375 -0.578125 C 0.226562 -0.785156 0.171875 -1.019531 0.171875 -1.28125 C 0.171875 -1.53125 0.226562 -1.753906 0.34375 -1.953125 C 0.457031 -2.160156 0.613281 -2.320312 0.8125 -2.4375 C 1.007812 -2.5625 1.234375 -2.625 1.484375 -2.625 C 1.753906 -2.625 1.988281 -2.5625 2.1875 -2.4375 C 2.382812 -2.320312 2.535156 -2.160156 2.640625 -1.953125 C 2.753906 -1.753906 2.8125 -1.53125 2.8125 -1.28125 Z M 1.484375 -2.046875 C 1.335938 -2.046875 1.207031 -2 1.09375 -1.90625 C 0.988281 -1.820312 0.921875 -1.707031 0.890625 -1.5625 L 2.125 -1.5625 C 2.019531 -1.882812 1.804688 -2.046875 1.484375 -2.046875 Z M 1.484375 -2.046875 "/></g></g></g><g fill="#ffffff" fill-opacity="1"><g transform="translate(68.600737, 23.689292)"><g><path d="M 0.28125 0 L 0.28125 -0.734375 L 1.015625 -0.734375 L 1.015625 0 Z M 0.28125 0 "/></g></g></g><g fill="#ffffff" fill-opacity="1"><g transform="translate(69.898646, 23.689292)"><g><path d="M 2.8125 -1.28125 C 2.8125 -1.21875 2.804688 -1.148438 2.796875 -1.078125 L 0.859375 -1.078125 C 0.890625 -0.910156 0.957031 -0.78125 1.0625 -0.6875 C 1.175781 -0.59375 1.316406 -0.546875 1.484375 -0.546875 C 1.609375 -0.546875 1.71875 -0.570312 1.8125 -0.625 C 1.90625 -0.675781 1.976562 -0.75 2.03125 -0.84375 L 2.765625 -0.84375 C 2.671875 -0.5625 2.507812 -0.335938 2.28125 -0.171875 C 2.050781 -0.00390625 1.785156 0.078125 1.484375 0.078125 C 1.234375 0.078125 1.007812 0.0195312 0.8125 -0.09375 C 0.613281 -0.21875 0.457031 -0.378906 0.34375 -0.578125 C 0.226562 -0.785156 0.171875 -1.019531 0.171875 -1.28125 C 0.171875 -1.53125 0.226562 -1.753906 0.34375 -1.953125 C 0.457031 -2.160156 0.613281 -2.320312 0.8125 -2.4375 C 1.007812 -2.5625 1.234375 -2.625 1.484375 -2.625 C 1.753906 -2.625 1.988281 -2.5625 2.1875 -2.4375 C 2.382812 -2.320312 2.535156 -2.160156 2.640625 -1.953125 C 2.753906 -1.753906 2.8125 -1.53125 2.8125 -1.28125 Z M 1.484375 -2.046875 C 1.335938 -2.046875 1.207031 -2 1.09375 -1.90625 C 0.988281 -1.820312 0.921875 -1.707031 0.890625 -1.5625 L 2.125 -1.5625 C 2.019531 -1.882812 1.804688 -2.046875 1.484375 -2.046875 Z M 1.484375 -2.046875 "/></g></g></g><g fill="#ffffff" fill-opacity="1"><g transform="translate(72.873414, 23.689292)"><g><path d="M 1.796875 -2.625 C 2.078125 -2.625 2.300781 -2.523438 2.46875 -2.328125 C 2.644531 -2.128906 2.734375 -1.867188 2.734375 -1.546875 L 2.734375 0 L 2.046875 0 L 2.046875 -1.4375 C 2.046875 -1.820312 1.894531 -2.015625 1.59375 -2.015625 C 1.414062 -2.015625 1.273438 -1.953125 1.171875 -1.828125 C 1.066406 -1.710938 1.015625 -1.550781 1.015625 -1.34375 L 1.015625 0 L 0.328125 0 L 0.328125 -2.5625 L 0.8125 -2.5625 L 0.9375 -2.234375 C 1.03125 -2.359375 1.148438 -2.453125 1.296875 -2.515625 C 1.453125 -2.585938 1.617188 -2.625 1.796875 -2.625 Z M 1.796875 -2.625 "/></g></g></g><g fill="#ffffff" fill-opacity="1"><g transform="translate(75.909759, 23.689292)"><g><path d="M 2.390625 -2.5625 L 2.84375 -2.5625 L 2.84375 -0.296875 C 2.84375 -0.0234375 2.789062 0.203125 2.6875 0.390625 C 2.582031 0.585938 2.429688 0.738281 2.234375 0.84375 C 2.035156 0.945312 1.800781 1 1.53125 1 C 1.1875 1 0.898438 0.914062 0.671875 0.75 C 0.441406 0.582031 0.296875 0.351562 0.234375 0.0625 L 0.921875 0.0625 C 0.960938 0.175781 1.039062 0.257812 1.15625 0.3125 C 1.269531 0.375 1.394531 0.40625 1.53125 0.40625 C 1.707031 0.40625 1.851562 0.347656 1.96875 0.234375 C 2.09375 0.128906 2.15625 -0.015625 2.15625 -0.203125 L 2.15625 -0.296875 C 2.0625 -0.222656 1.953125 -0.164062 1.828125 -0.125 C 1.703125 -0.0820312 1.570312 -0.0625 1.4375 -0.0625 C 1.195312 -0.0625 0.976562 -0.117188 0.78125 -0.234375 C 0.59375 -0.347656 0.441406 -0.5 0.328125 -0.6875 C 0.222656 -0.882812 0.171875 -1.101562 0.171875 -1.34375 C 0.171875 -1.582031 0.222656 -1.796875 0.328125 -1.984375 C 0.441406 -2.179688 0.59375 -2.335938 0.78125 -2.453125 C 0.976562 -2.566406 1.195312 -2.625 1.4375 -2.625 C 1.601562 -2.625 1.757812 -2.59375 1.90625 -2.53125 C 2.050781 -2.476562 2.175781 -2.398438 2.28125 -2.296875 Z M 1.515625 -0.6875 C 1.703125 -0.6875 1.859375 -0.75 1.984375 -0.875 C 2.109375 -1 2.171875 -1.15625 2.171875 -1.34375 C 2.171875 -1.53125 2.109375 -1.6875 1.984375 -1.8125 C 1.859375 -1.9375 1.703125 -2 1.515625 -2 C 1.328125 -2 1.171875 -1.9375 1.046875 -1.8125 C 0.921875 -1.6875 0.859375 -1.53125 0.859375 -1.34375 C 0.859375 -1.15625 0.921875 -1 1.046875 -0.875 C 1.171875 -0.75 1.328125 -0.6875 1.515625 -0.6875 Z M 1.515625 -0.6875 "/></g></g></g><g fill="#ffffff" fill-opacity="1"><g transform="translate(79.088215, 23.689292)"><g><path d="M 1.640625 -2.578125 L 1.859375 -2.578125 L 1.859375 -1.921875 L 1.5625 -1.921875 C 1.375 -1.921875 1.234375 -1.875 1.140625 -1.78125 C 1.054688 -1.6875 1.015625 -1.535156 1.015625 -1.328125 L 1.015625 0 L 0.328125 0 L 0.328125 -2.5625 L 0.78125 -2.5625 L 0.90625 -2.25 C 1.070312 -2.46875 1.316406 -2.578125 1.640625 -2.578125 Z M 1.640625 -2.578125 "/></g></g></g><g fill="#ffffff" fill-opacity="1"><g transform="translate(81.016129, 23.689292)"><g><path d="M 2.359375 -3.109375 C 2.640625 -3.109375 2.910156 -3.0625 3.171875 -2.96875 C 3.429688 -2.882812 3.660156 -2.757812 3.859375 -2.59375 C 4.066406 -2.425781 4.226562 -2.21875 4.34375 -1.96875 C 4.46875 -1.726562 4.53125 -1.445312 4.53125 -1.125 C 4.53125 -0.875 4.484375 -0.664062 4.390625 -0.5 C 4.296875 -0.34375 4.175781 -0.222656 4.03125 -0.140625 C 3.894531 -0.0664062 3.75 -0.03125 3.59375 -0.03125 C 3.3125 -0.03125 3.109375 -0.125 2.984375 -0.3125 C 2.890625 -0.207031 2.78125 -0.128906 2.65625 -0.078125 C 2.53125 -0.0234375 2.394531 0 2.25 0 C 2.050781 0 1.867188 -0.046875 1.703125 -0.140625 C 1.546875 -0.234375 1.421875 -0.359375 1.328125 -0.515625 C 1.234375 -0.671875 1.1875 -0.851562 1.1875 -1.0625 C 1.1875 -1.269531 1.234375 -1.453125 1.328125 -1.609375 C 1.421875 -1.765625 1.546875 -1.890625 1.703125 -1.984375 C 1.867188 -2.078125 2.050781 -2.125 2.25 -2.125 C 2.382812 -2.125 2.507812 -2.097656 2.625 -2.046875 C 2.75 -2.003906 2.851562 -1.941406 2.9375 -1.859375 L 3.015625 -2 L 3.328125 -2 L 3.328125 -0.859375 C 3.328125 -0.753906 3.351562 -0.675781 3.40625 -0.625 C 3.46875 -0.570312 3.535156 -0.546875 3.609375 -0.546875 C 3.703125 -0.546875 3.785156 -0.59375 3.859375 -0.6875 C 3.941406 -0.78125 3.984375 -0.925781 3.984375 -1.125 C 3.984375 -1.40625 3.914062 -1.65625 3.78125 -1.875 C 3.644531 -2.09375 3.453125 -2.265625 3.203125 -2.390625 C 2.960938 -2.515625 2.6875 -2.578125 2.375 -2.578125 C 2.0625 -2.578125 1.78125 -2.507812 1.53125 -2.375 C 1.28125 -2.25 1.082031 -2.070312 0.9375 -1.84375 C 0.800781 -1.613281 0.734375 -1.351562 0.734375 -1.0625 C 0.734375 -0.78125 0.796875 -0.53125 0.921875 -0.3125 C 1.054688 -0.09375 1.234375 0.0703125 1.453125 0.1875 C 1.679688 0.3125 1.945312 0.375 2.25 0.375 C 2.53125 0.375 2.785156 0.328125 3.015625 0.234375 L 3.015625 0.75 C 2.722656 0.851562 2.445312 0.90625 2.1875 0.90625 C 1.894531 0.90625 1.625 0.851562 1.375 0.75 C 1.132812 0.65625 0.925781 0.519531 0.75 0.34375 C 0.570312 0.164062 0.429688 -0.0390625 0.328125 -0.28125 C 0.234375 -0.519531 0.1875 -0.78125 0.1875 -1.0625 C 0.1875 -1.40625 0.242188 -1.703125 0.359375 -1.953125 C 0.484375 -2.203125 0.644531 -2.410156 0.84375 -2.578125 C 1.050781 -2.753906 1.285156 -2.882812 1.546875 -2.96875 C 1.804688 -3.0625 2.078125 -3.109375 2.359375 -3.109375 Z M 2.296875 -0.578125 C 2.441406 -0.578125 2.5625 -0.625 2.65625 -0.71875 C 2.75 -0.8125 2.796875 -0.925781 2.796875 -1.0625 C 2.796875 -1.207031 2.75 -1.328125 2.65625 -1.421875 C 2.5625 -1.515625 2.441406 -1.5625 2.296875 -1.5625 C 2.160156 -1.5625 2.046875 -1.515625 1.953125 -1.421875 C 1.859375 -1.328125 1.8125 -1.207031 1.8125 -1.0625 C 1.8125 -0.925781 1.859375 -0.8125 1.953125 -0.71875 C 2.046875 -0.625 2.160156 -0.578125 2.296875 -0.578125 Z M 2.296875 -0.578125 "/></g></g></g><g fill="#ffffff" fill-opacity="1"><g transform="translate(85.743548, 23.689292)"><g><path d="M 2.390625 -2.5625 L 2.84375 -2.5625 L 2.84375 -0.296875 C 2.84375 -0.0234375 2.789062 0.203125 2.6875 0.390625 C 2.582031 0.585938 2.429688 0.738281 2.234375 0.84375 C 2.035156 0.945312 1.800781 1 1.53125 1 C 1.1875 1 0.898438 0.914062 0.671875 0.75 C 0.441406 0.582031 0.296875 0.351562 0.234375 0.0625 L 0.921875 0.0625 C 0.960938 0.175781 1.039062 0.257812 1.15625 0.3125 C 1.269531 0.375 1.394531 0.40625 1.53125 0.40625 C 1.707031 0.40625 1.851562 0.347656 1.96875 0.234375 C 2.09375 0.128906 2.15625 -0.015625 2.15625 -0.203125 L 2.15625 -0.296875 C 2.0625 -0.222656 1.953125 -0.164062 1.828125 -0.125 C 1.703125 -0.0820312 1.570312 -0.0625 1.4375 -0.0625 C 1.195312 -0.0625 0.976562 -0.117188 0.78125 -0.234375 C 0.59375 -0.347656 0.441406 -0.5 0.328125 -0.6875 C 0.222656 -0.882812 0.171875 -1.101562 0.171875 -1.34375 C 0.171875 -1.582031 0.222656 -1.796875 0.328125 -1.984375 C 0.441406 -2.179688 0.59375 -2.335938 0.78125 -2.453125 C 0.976562 -2.566406 1.195312 -2.625 1.4375 -2.625 C 1.601562 -2.625 1.757812 -2.59375 1.90625 -2.53125 C 2.050781 -2.476562 2.175781 -2.398438 2.28125 -2.296875 Z M 1.515625 -0.6875 C 1.703125 -0.6875 1.859375 -0.75 1.984375 -0.875 C 2.109375 -1 2.171875 -1.15625 2.171875 -1.34375 C 2.171875 -1.53125 2.109375 -1.6875 1.984375 -1.8125 C 1.859375 -1.9375 1.703125 -2 1.515625 -2 C 1.328125 -2 1.171875 -1.9375 1.046875 -1.8125 C 0.921875 -1.6875 0.859375 -1.53125 0.859375 -1.34375 C 0.859375 -1.15625 0.921875 -1 1.046875 -0.875 C 1.171875 -0.75 1.328125 -0.6875 1.515625 -0.6875 Z M 1.515625 -0.6875 "/></g></g></g><g fill="#ffffff" fill-opacity="1"><g transform="translate(88.922004, 23.689292)"><g><path d="M 3.234375 -2.625 C 3.410156 -2.625 3.566406 -2.578125 3.703125 -2.484375 C 3.835938 -2.398438 3.941406 -2.28125 4.015625 -2.125 C 4.097656 -1.976562 4.140625 -1.804688 4.140625 -1.609375 L 4.140625 0 L 3.453125 0 L 3.453125 -1.484375 C 3.453125 -1.835938 3.320312 -2.015625 3.0625 -2.015625 C 2.90625 -2.015625 2.785156 -1.957031 2.703125 -1.84375 C 2.617188 -1.738281 2.578125 -1.582031 2.578125 -1.375 L 2.578125 0 L 1.90625 0 L 1.90625 -1.484375 C 1.90625 -1.835938 1.78125 -2.015625 1.53125 -2.015625 C 1.363281 -2.015625 1.234375 -1.957031 1.140625 -1.84375 C 1.054688 -1.738281 1.015625 -1.582031 1.015625 -1.375 L 1.015625 0 L 0.328125 0 L 0.328125 -2.5625 L 0.8125 -2.5625 L 0.9375 -2.234375 C 1.03125 -2.347656 1.144531 -2.441406 1.28125 -2.515625 C 1.414062 -2.585938 1.554688 -2.625 1.703125 -2.625 C 1.867188 -2.625 2.015625 -2.585938 2.140625 -2.515625 C 2.273438 -2.441406 2.378906 -2.335938 2.453125 -2.203125 C 2.535156 -2.328125 2.644531 -2.425781 2.78125 -2.5 C 2.925781 -2.582031 3.078125 -2.625 3.234375 -2.625 Z M 3.234375 -2.625 "/></g></g></g><g fill="#ffffff" fill-opacity="1"><g transform="translate(93.365205, 23.689292)"><g><path d="M 2.421875 -2.5625 L 2.9375 -2.5625 L 2.9375 0 L 2.390625 0 L 2.328125 -0.234375 C 2.222656 -0.140625 2.097656 -0.0625 1.953125 0 C 1.816406 0.0507812 1.664062 0.078125 1.5 0.078125 C 1.25 0.078125 1.019531 0.0195312 0.8125 -0.09375 C 0.613281 -0.21875 0.457031 -0.378906 0.34375 -0.578125 C 0.226562 -0.785156 0.171875 -1.019531 0.171875 -1.28125 C 0.171875 -1.539062 0.226562 -1.769531 0.34375 -1.96875 C 0.457031 -2.175781 0.613281 -2.335938 0.8125 -2.453125 C 1.019531 -2.566406 1.25 -2.625 1.5 -2.625 C 1.664062 -2.625 1.816406 -2.597656 1.953125 -2.546875 C 2.097656 -2.492188 2.226562 -2.414062 2.34375 -2.3125 Z M 1.5625 -0.578125 C 1.695312 -0.578125 1.816406 -0.609375 1.921875 -0.671875 C 2.023438 -0.734375 2.109375 -0.816406 2.171875 -0.921875 C 2.234375 -1.023438 2.265625 -1.144531 2.265625 -1.28125 C 2.265625 -1.414062 2.234375 -1.535156 2.171875 -1.640625 C 2.109375 -1.742188 2.023438 -1.828125 1.921875 -1.890625 C 1.816406 -1.953125 1.695312 -1.984375 1.5625 -1.984375 C 1.425781 -1.984375 1.304688 -1.953125 1.203125 -1.890625 C 1.097656 -1.828125 1.015625 -1.742188 0.953125 -1.640625 C 0.890625 -1.535156 0.859375 -1.414062 0.859375 -1.28125 C 0.859375 -1.144531 0.890625 -1.023438 0.953125 -0.921875 C 1.015625 -0.816406 1.097656 -0.734375 1.203125 -0.671875 C 1.304688 -0.609375 1.425781 -0.578125 1.5625 -0.578125 Z M 1.5625 -0.578125 "/></g></g></g><g fill="#ffffff" fill-opacity="1"><g transform="translate(96.63366, 23.689292)"><g><path d="M 0.328125 -2.890625 L 0.328125 -3.546875 L 1.015625 -3.546875 L 1.015625 -2.890625 Z M 0.328125 0 L 0.328125 -2.5625 L 1.015625 -2.5625 L 1.015625 0 Z M 0.328125 0 "/></g></g></g><g fill="#ffffff" fill-opacity="1"><g transform="translate(97.98841, 23.689292)"><g><path d="M 0.328125 0 L 0.328125 -3.484375 L 1.015625 -3.484375 L 1.015625 0 Z M 0.328125 0 "/></g></g></g><g fill="#ffffff" fill-opacity="1"><g transform="translate(99.34316, 23.689292)"><g><path d="M 0.28125 0 L 0.28125 -0.734375 L 1.015625 -0.734375 L 1.015625 0 Z M 0.28125 0 "/></g></g></g><g fill="#ffffff" fill-opacity="1"><g transform="translate(100.641069, 23.689292)"><g><path d="M 1.515625 0.078125 C 1.265625 0.078125 1.035156 0.0195312 0.828125 -0.09375 C 0.617188 -0.21875 0.457031 -0.382812 0.34375 -0.59375 C 0.226562 -0.800781 0.171875 -1.03125 0.171875 -1.28125 C 0.171875 -1.539062 0.226562 -1.769531 0.34375 -1.96875 C 0.457031 -2.175781 0.617188 -2.335938 0.828125 -2.453125 C 1.035156 -2.566406 1.269531 -2.625 1.53125 -2.625 C 1.75 -2.625 1.945312 -2.578125 2.125 -2.484375 C 2.3125 -2.398438 2.460938 -2.28125 2.578125 -2.125 C 2.703125 -1.96875 2.785156 -1.785156 2.828125 -1.578125 L 2.140625 -1.578125 C 2.078125 -1.703125 1.992188 -1.800781 1.890625 -1.875 C 1.785156 -1.945312 1.660156 -1.984375 1.515625 -1.984375 C 1.390625 -1.984375 1.273438 -1.953125 1.171875 -1.890625 C 1.078125 -1.828125 1 -1.742188 0.9375 -1.640625 C 0.882812 -1.535156 0.859375 -1.414062 0.859375 -1.28125 C 0.859375 -1.144531 0.882812 -1.023438 0.9375 -0.921875 C 1 -0.816406 1.078125 -0.734375 1.171875 -0.671875 C 1.273438 -0.609375 1.390625 -0.578125 1.515625 -0.578125 C 1.660156 -0.578125 1.785156 -0.613281 1.890625 -0.6875 C 1.992188 -0.757812 2.078125 -0.867188 2.140625 -1.015625 L 2.828125 -1.015625 C 2.796875 -0.796875 2.71875 -0.601562 2.59375 -0.4375 C 2.46875 -0.28125 2.3125 -0.15625 2.125 -0.0625 C 1.945312 0.03125 1.742188 0.078125 1.515625 0.078125 Z M 1.515625 0.078125 "/></g></g></g><g fill="#ffffff" fill-opacity="1"><g transform="translate(103.601623, 23.689292)"><g><path d="M 1.546875 0.078125 C 1.285156 0.078125 1.050781 0.0195312 0.84375 -0.09375 C 0.632812 -0.21875 0.46875 -0.378906 0.34375 -0.578125 C 0.226562 -0.785156 0.171875 -1.019531 0.171875 -1.28125 C 0.171875 -1.539062 0.226562 -1.769531 0.34375 -1.96875 C 0.46875 -2.175781 0.632812 -2.335938 0.84375 -2.453125 C 1.050781 -2.566406 1.285156 -2.625 1.546875 -2.625 C 1.804688 -2.625 2.039062 -2.566406 2.25 -2.453125 C 2.457031 -2.335938 2.617188 -2.175781 2.734375 -1.96875 C 2.859375 -1.769531 2.921875 -1.539062 2.921875 -1.28125 C 2.921875 -1.019531 2.859375 -0.785156 2.734375 -0.578125 C 2.617188 -0.378906 2.457031 -0.21875 2.25 -0.09375 C 2.039062 0.0195312 1.804688 0.078125 1.546875 0.078125 Z M 1.546875 -0.578125 C 1.742188 -0.578125 1.90625 -0.640625 2.03125 -0.765625 C 2.15625 -0.898438 2.21875 -1.070312 2.21875 -1.28125 C 2.21875 -1.488281 2.15625 -1.65625 2.03125 -1.78125 C 1.90625 -1.914062 1.742188 -1.984375 1.546875 -1.984375 C 1.347656 -1.984375 1.179688 -1.914062 1.046875 -1.78125 C 0.921875 -1.65625 0.859375 -1.488281 0.859375 -1.28125 C 0.859375 -1.070312 0.921875 -0.898438 1.046875 -0.765625 C 1.179688 -0.640625 1.347656 -0.578125 1.546875 -0.578125 Z M 1.546875 -0.578125 "/></g></g></g><g fill="#ffffff" fill-opacity="1"><g transform="translate(106.694814, 23.689292)"><g><path d="M 3.234375 -2.625 C 3.410156 -2.625 3.566406 -2.578125 3.703125 -2.484375 C 3.835938 -2.398438 3.941406 -2.28125 4.015625 -2.125 C 4.097656 -1.976562 4.140625 -1.804688 4.140625 -1.609375 L 4.140625 0 L 3.453125 0 L 3.453125 -1.484375 C 3.453125 -1.835938 3.320312 -2.015625 3.0625 -2.015625 C 2.90625 -2.015625 2.785156 -1.957031 2.703125 -1.84375 C 2.617188 -1.738281 2.578125 -1.582031 2.578125 -1.375 L 2.578125 0 L 1.90625 0 L 1.90625 -1.484375 C 1.90625 -1.835938 1.78125 -2.015625 1.53125 -2.015625 C 1.363281 -2.015625 1.234375 -1.957031 1.140625 -1.84375 C 1.054688 -1.738281 1.015625 -1.582031 1.015625 -1.375 L 1.015625 0 L 0.328125 0 L 0.328125 -2.5625 L 0.8125 -2.5625 L 0.9375 -2.234375 C 1.03125 -2.347656 1.144531 -2.441406 1.28125 -2.515625 C 1.414062 -2.585938 1.554688 -2.625 1.703125 -2.625 C 1.867188 -2.625 2.015625 -2.585938 2.140625 -2.515625 C 2.273438 -2.441406 2.378906 -2.335938 2.453125 -2.203125 C 2.535156 -2.328125 2.644531 -2.425781 2.78125 -2.5 C 2.925781 -2.582031 3.078125 -2.625 3.234375 -2.625 Z M 3.234375 -2.625 "/></g></g></g></svg>