<?xml version="1.0" standalone="no"?>
<!DOCTYPE svg PUBLIC "-//W3C//DTD SVG 1.1//EN" "http://www.w3.org/Graphics/SVG/1.1/DTD/svg11.dtd">
<svg xmlns="http://www.w3.org/2000/svg" xmlns:xlink="http://www.w3.org/1999/xlink" id="Layer_1" data-name="Layer 1" viewBox="0 0 783.6 625.82" width="70" height="70"><defs><style>.cls-1{fill:url(#Sky);}.cls-2{fill:url(#Sky-2);}.cls-3{fill:url(#Sky-3);}.cls-4{fill:url(#linear-gradient);}.cls-5{font-size:67.73px;stroke-width:0.5px;letter-spacing:0.01em;}.cls-5,.cls-6{fill:#5a88f8;font-family:MonotypeCorsiva, Monotype Corsiva;}.cls-5,.cls-6,.cls-7{stroke:#000;stroke-miterlimit:10;}.cls-6{font-size:40.4px;stroke-width:0.25px;letter-spacing:0.01em;}.cls-7{font-size:313.01px;fill:#3f92f5;font-family:Vivaldii, Vivaldi;letter-spacing:0.01em;}</style><linearGradient id="Sky" x1="208.33" y1="579.83" x2="823.55" y2="579.83" gradientUnits="userSpaceOnUse"><stop offset="0" stop-color="#cce0f4"/><stop offset="0.06" stop-color="#c3dcf2"/><stop offset="0.17" stop-color="#a9d2ee"/><stop offset="0.31" stop-color="#80c2e7"/><stop offset="0.46" stop-color="#47acde"/><stop offset="0.57" stop-color="#1e9cd7"/><stop offset="0.87" stop-color="#0075be"/><stop offset="0.99" stop-color="#005b97"/></linearGradient><linearGradient id="Sky-2" x1="261.64" y1="617.77" x2="815.46" y2="617.77" xlink:href="#Sky"/><linearGradient id="Sky-3" x1="315.14" y1="657.23" x2="742.77" y2="657.23" xlink:href="#Sky"/><linearGradient id="linear-gradient" x1="599.28" y1="432.4" x2="599.28" y2="430.58" xlink:href="#Sky"/></defs><path class="cls-1" d="M364.3,872.57a285.19,285.19,0,0,1-58.76-42,302,302,0,0,1-47.41-55.92c-27.2-41.17-44-89.75-48.58-139.76l-.72-9.39-.42-9.41c-.07-3.14,0-6.29-.07-9.43s-.07-6.3,0-9.44l.48-9.44c.17-3.15.3-6.3.69-9.43.72-6.26,1.18-12.57,2.31-18.79a315.85,315.85,0,0,1,20.28-73l3.83-8.71c1.28-2.9,2.52-5.82,4-8.62,2.9-5.64,5.64-11.38,8.9-16.82l4.74-8.26,5.11-8c3.32-5.42,7.09-10.53,10.75-15.72,1.79-2.62,3.77-5.1,5.75-7.58l5.93-7.46c2.05-2.42,4.17-4.79,6.25-7.18l3.14-3.58,1.58-1.79L293.8,391l6.61-6.85c1.11-1.14,2.18-2.31,3.33-3.41l3.46-3.26,6.94-6.54c2.35-2.13,4.8-4.15,7.2-6.23a327.94,327.94,0,0,1,63.24-42.12,336.81,336.81,0,0,1,71.15-26.35c3.07-.78,6.19-1.34,9.27-2s6.19-1.34,9.29-1.9l9.37-1.49c3.12-.48,6.22-1.06,9.37-1.34l9.42-1c1.56-.16,3.13-.36,4.7-.48l4.73-.25,9.44-.49,2.36-.12h7.08a319.23,319.23,0,0,1,74.77,8c6.13,1.31,12.18,2.95,18.2,4.63l9,2.76c3,.92,5.92,2,8.88,3A312,312,0,0,1,765,385.58a311.43,311.43,0,0,1,23.41,28.14c1.76,2.49,3.6,4.9,5.3,7.42l5,7.57,4.77,7.74c1.61,2.56,3,5.23,4.53,7.85a276.81,276.81,0,0,1,15.46,32.58c-6.49-10.07-13.32-19.83-20.65-29.13a317.68,317.68,0,0,0-23.24-26.62A343.32,343.32,0,0,0,754,397.31a321.25,321.25,0,0,0-27.91-20.76A298,298,0,0,0,696.32,359a332.57,332.57,0,0,0-31.25-14.26,318.4,318.4,0,0,0-65.71-17.83,292,292,0,0,0-33.72-3.53c-2.82-.19-5.64-.24-8.46-.32s-5.64-.19-8.46-.12-5.64,0-8.45.08l-8.45.43a313.68,313.68,0,0,0-66.35,10.67,309.89,309.89,0,0,0-62.19,24.65c-1.24.65-2.49,1.25-3.72,1.92l-3.63,2.07-7.27,4.14c-2.42,1.39-4.72,3-7.09,4.44s-4.75,2.93-7,4.53A304.08,304.08,0,0,0,348,396.12a291.55,291.55,0,0,0-45.89,48.44c-3.29,4.49-6.72,8.9-9.71,13.6l-4.65,7-4.29,7.17c-3,4.72-5.47,9.72-8.14,14.62-1.37,2.43-2.5,5-3.73,7.49l-3.64,7.54a303.06,303.06,0,0,0-20.39,63.79c-1.28,5.47-1.92,11-2.84,16.59-.5,2.77-.73,5.57-1,8.37l-.9,8.4c-.28,2.8-.35,5.61-.54,8.43s-.36,5.63-.47,8.45l-.13,8.47.13,8.47a305.15,305.15,0,0,0,33.76,131.54,324.27,324.27,0,0,0,38.31,58.23A356,356,0,0,0,364.3,872.57Z" transform="translate(-208.33 -287.09)"/><path class="cls-2" d="M434.61,894.44a255.78,255.78,0,0,1-59.2-32.32A277.25,277.25,0,0,1,325.54,815a283.05,283.05,0,0,1-37.09-58.84,278.12,278.12,0,0,1-12.87-32.7,263.35,263.35,0,0,1-8.79-34.19,309,309,0,0,1-4.58-35.14c-.35-5.9-.63-11.82-.55-17.74v-8.89l.43-8.89a282,282,0,0,1,4-35.44c.48-2.94,1.18-5.83,1.77-8.76s1.17-5.85,1.93-8.73l2.28-8.65,1.15-4.33,1.34-4.27,2.72-8.54c.89-2.85,2-5.61,3.08-8.41s2.06-5.62,3.25-8.36l3.58-8.22,1.81-4.11,2-4,4-8c1.37-2.66,2.9-5.23,4.34-7.85l2.21-3.91c.72-1.32,1.47-2.61,2.29-3.86a303.82,303.82,0,0,1,44.26-56.37,305.52,305.52,0,0,1,56.53-44.07,297,297,0,0,1,65.44-29c2.83-1,5.73-1.66,8.61-2.44l8.66-2.27,8.75-1.87c2.92-.58,5.82-1.3,8.77-1.71l8.83-1.41c1.47-.21,2.93-.5,4.41-.65l4.44-.45,8.88-.89c3-.25,5.93-.33,8.89-.5s5.93-.36,8.9-.36h13.33c1.48,0,3,.11,4.44.16,3,.15,5.91.2,8.86.47A297.49,297.49,0,0,1,611,346.46a266.39,266.39,0,0,1,34.17,8.93,280.32,280.32,0,0,1,91.34,50.39,276.49,276.49,0,0,1,46.92,50.08,255,255,0,0,1,32,59.36A329.36,329.36,0,0,0,773.85,464a308.91,308.91,0,0,0-24.24-21.62,280,280,0,0,0-26.18-18.73,285,285,0,0,0-27.85-15.57,269.73,269.73,0,0,0-29.18-12.33,301.69,301.69,0,0,0-30.17-8.91,279.86,279.86,0,0,0-92.9-5.77c-2.56.3-5.14.5-7.69.86L528,383.13c-5.1.7-10.12,1.88-15.17,2.85-2.53.44-5,1.18-7.5,1.78l-7.46,1.9-7.36,2.27c-2.45.76-4.92,1.45-7.31,2.38a278.3,278.3,0,0,0-55.34,26.33,283.13,283.13,0,0,0-47.95,38c-1.8,1.81-3.54,3.69-5.31,5.52s-3.6,3.64-5.23,5.61c-3.33,3.87-6.78,7.64-9.88,11.72l-4.77,6-4.48,6.22L348,496.83c-.76,1-1.41,2.13-2.12,3.19l-4.2,6.42a273.78,273.78,0,0,0-26.59,55.22,267,267,0,0,0-13.53,60.07l-.82,7.71-.42,7.75c-.11,2.59-.37,5.17-.34,7.76l-.13,7.78a278.42,278.42,0,0,0,28.07,121.4,287.56,287.56,0,0,0,15.46,27.93,301.13,301.13,0,0,0,40.16,50.58A328.7,328.7,0,0,0,434.61,894.44Z" transform="translate(-208.33 -287.09)"/><path class="cls-3" d="M742.77,840.08C715.06,870,678,892.17,637.25,903.67c-2.55.71-5.1,1.44-7.67,2.08l-7.77,1.73c-2.58.62-5.2,1-7.82,1.51s-5.24,1-7.88,1.32c-5.27.69-10.57,1.44-15.9,1.74-2.66.17-5.33.47-8,.53l-8,.23-4,.1-4-.09c-2.68-.06-5.37-.12-8.06-.22s-5.36-.4-8-.59l-4-.34c-1.35-.1-2.69-.21-4-.41l-8-1.07c-1.33-.19-2.68-.32-4-.57l-4-.73-8-1.49-7.9-1.92c-5.3-1.18-10.45-2.88-15.67-4.41-1.31-.37-2.59-.8-3.87-1.27l-3.85-1.35c-2.55-.93-5.16-1.75-7.67-2.79s-5-2.06-7.55-3.12-5-2.2-7.45-3.37l-7.38-3.54-7.21-3.88c-19.28-10.32-36.93-23.6-53-38.55-2.06-1.82-4-3.8-5.9-5.74s-3.88-3.88-5.75-5.89l-5.49-6.16-2.74-3.08L374,819.12l-5.19-6.42L363.91,806c-3.32-4.39-6.19-9.1-9.25-13.69A265.63,265.63,0,0,1,327,732.42c-.82-2.63-1.52-5.3-2.28-7.95s-1.56-5.3-2.12-8c-1.22-5.38-2.55-10.74-3.4-16.19-.46-2.72-1-5.43-1.37-8.16l-1-8.21-.49-4.1c-.14-1.37-.21-2.75-.32-4.12l-.56-8.24a260.2,260.2,0,0,1,5.13-65.6,252.53,252.53,0,0,1,21.47-62l1.81-3.67,2-3.59,3.94-7.18,4.26-7c1.43-2.32,2.82-4.66,4.42-6.87l4.66-6.7c1.54-2.24,3.27-4.34,4.9-6.51l2.48-3.23,1.25-1.61,1.31-1.55,5.26-6.21c1.71-2.1,3.62-4,5.45-6s3.67-4,5.6-5.87l5.85-5.61c1-.92,1.93-1.88,2.94-2.78l3.05-2.66,6.1-5.3,6.33-5,3.16-2.49c1.07-.82,2.19-1.56,3.29-2.35l6.58-4.62a252.45,252.45,0,0,1,57-28.58A244.48,244.48,0,0,1,545.25,402l7.79-.3c2.59-.11,5.17-.25,7.77-.14,5.18.12,10.33.1,15.47.59l7.68.62c2.55.27,5.09.56,7.63.94,5.07.71,10.1,1.63,15.07,2.73A269.12,269.12,0,0,0,576.48,409a284.68,284.68,0,0,0-29.34,5.45,265.51,265.51,0,0,0-54.86,20.43,247.9,247.9,0,0,0-24.89,14.65l-3,2-1.5,1-1.45,1.05-5.79,4.23c-2,1.36-3.78,2.92-5.65,4.4s-3.73,2.95-5.54,4.51a249.71,249.71,0,0,0-38.64,41.35l-4.11,5.71-1,1.43-.95,1.47-1.92,3c-1.25,2-2.6,3.89-3.77,5.92l-3.52,6.06c-1.22,2-2.3,4.06-3.38,6.13l-3.27,6.17-3,6.32-1.49,3.15-1.34,3.23c-7.11,17.15-12.67,34.92-15.51,53.18l-1.05,6.84c-.34,2.28-.52,4.59-.79,6.87l-.38,3.44c-.14,1.14-.26,2.29-.3,3.44l-.41,6.91c-.06,1.15-.16,2.29-.18,3.45l0,3.45-.1,6.92c0,2.3.16,4.6.23,6.9l.13,3.46c0,1.15.07,2.3.2,3.44l.59,6.88c.1,1.14.16,2.29.3,3.43l.46,3.42.92,6.83c.36,2.27.83,4.51,1.24,6.77.7,4.54,1.86,9,2.88,13.46.47,2.25,1.18,4.44,1.8,6.65s1.24,4.41,1.9,6.61l2.2,6.52,1.09,3.27,1.25,3.2,2.51,6.41c.87,2.12,1.87,4.19,2.78,6.3,1.76,4.24,3.94,8.29,6,12.41l.77,1.54.85,1.5,1.7,3c1.16,2,2.2,4,3.42,6C395,773,397.28,777,400,780.68l3.94,5.67,4.18,5.5,2.09,2.76,2.22,2.65,4.43,5.31c1.53,1.73,3.12,3.4,4.66,5.12s3.07,3.46,4.74,5a237.55,237.55,0,0,0,93.65,58.84l6.7,2.21,6.78,1.92,3.4,1c1.14.33,2.29.54,3.44.82l6.9,1.6c1.15.3,2.31.51,3.47.7l3.49.63c2.34.39,4.66.89,7,1.2s4.7.61,7.06.93l3.53.49,3.56.3,7.13.61c2.38.21,4.76.2,7.15.32,4.79.28,9.56.1,14.37.15a244.89,244.89,0,0,0,28.8-2.3l3.61-.46,3.58-.61,7.18-1.26c4.73-1.07,9.53-2,14.24-3.29a250.17,250.17,0,0,0,28.09-9l6.91-2.73,6.82-3c1.13-.51,2.3-1,3.42-1.52l3.35-1.64c2.23-1.12,4.52-2.16,6.72-3.34C725.54,850.77,734.16,845.54,742.77,840.08Z" transform="translate(-208.33 -287.09)"/><path class="cls-4" d="M721.09,444.36c32.5,17.87,60.26,45.7,79.4,79.11,1.19,2.09,2.39,4.18,3.52,6.31l3.24,6.48c1.12,2.14,2.08,4.36,3.06,6.57s2,4.41,2.91,6.66c1.76,4.5,3.59,9,5,13.65.74,2.31,1.59,4.6,2.24,6.94l2,7,1,3.52.81,3.57c.54,2.38,1.08,4.77,1.59,7.16s.82,4.82,1.24,7.23l.6,3.63c.21,1.21.4,2.42.52,3.64l.83,7.32c.12,1.22.3,2.44.38,3.67l.23,3.68.45,7.37,0,7.4c.12,4.93-.25,9.86-.44,14.8,0,1.24-.14,2.47-.27,3.7l-.34,3.69c-.26,2.46-.41,4.94-.77,7.39s-.71,4.9-1.09,7.35-.84,4.88-1.34,7.31l-1.49,7.3-1.83,7.22a232,232,0,0,1-22.34,55.26c-1.15,2.22-2.48,4.33-3.77,6.48s-2.57,4.28-3.93,6.38l-4.22,6.2-2.12,3.09-2.26,3-4.52,6-4.81,5.77c-3.14,3.9-6.66,7.47-10,11.18A240.76,240.76,0,0,1,717.76,835c-2.14,1.31-4.34,2.52-6.52,3.78s-4.33,2.53-6.59,3.63c-4.48,2.26-8.92,4.62-13.54,6.57-2.3,1-4.58,2.05-6.9,3l-7,2.69-3.52,1.34c-1.17.43-2.37.79-3.56,1.18L663,859.56a236.68,236.68,0,0,1-59,9.93,229.2,229.2,0,0,1-59.43-5.28l-3.64-.78-3.6-.94-7.2-1.9-7.1-2.22c-2.37-.74-4.74-1.46-7-2.39L509,853.35c-2.32-.87-4.56-1.93-6.83-2.89l-3.4-1.48-1.69-.74-1.66-.82-6.64-3.27c-2.23-1-4.35-2.31-6.52-3.48s-4.31-2.36-6.41-3.65l-6.24-3.93c-1-.66-2.09-1.28-3.1-2l-3-2.11-6-4.21-5.82-4.48-2.9-2.24c-1-.77-1.86-1.59-2.79-2.38l-5.54-4.8a229.32,229.32,0,0,1-37.79-44,222.19,222.19,0,0,1-24.56-51.59l-2-6.81c-.66-2.26-1.36-4.51-1.83-6.82-1-4.6-2.19-9.14-2.89-13.79L370.19,681c-.33-2.31-.63-4.63-.85-7q-.73-6.94-.92-13.9a245.43,245.43,0,0,0,8.89,26.08,259,259,0,0,0,11.27,24.69,241.29,241.29,0,0,0,30.14,43.91,221.66,221.66,0,0,0,18.41,18.74l2.42,2.2,1.21,1.1,1.25,1,5,4.18c1.63,1.43,3.41,2.7,5.13,4s3.43,2.64,5.19,3.89a227.19,227.19,0,0,0,45,25l5.95,2.37,1.48.6,1.52.52,3,1c2,.67,4,1.44,6.06,2l6.12,1.77c2,.63,4.09,1.13,6.16,1.63l6.17,1.53,6.23,1.23,3.11.62,3.14.46a210.94,210.94,0,0,0,50.36,2l6.27-.57c2.08-.21,4.16-.56,6.24-.82l3.11-.42c1-.13,2.08-.28,3.11-.5l6.18-1.16c1-.2,2.06-.36,3.09-.6l3.06-.73,6.12-1.44c2-.51,4-1.15,6-1.72l3-.87c1-.29,2-.58,3-.94l5.94-2c1-.34,2-.65,3-1l2.91-1.16,5.83-2.32c1.92-.82,3.8-1.73,5.71-2.58,3.85-1.63,7.52-3.63,11.24-5.52,1.88-.9,3.65-2,5.47-3s3.62-2.07,5.41-3.14l5.27-3.37,2.65-1.69,2.55-1.81,5.1-3.62c1.68-1.24,3.29-2.58,4.95-3.85,3.36-2.49,6.45-5.3,9.63-8l1.19-1,1.14-1.08,2.27-2.16c1.5-1.46,3.08-2.83,4.53-4.34,2.87-3,5.9-5.94,8.59-9.16l4.13-4.72,3.94-4.91,2-2.44,1.85-2.55,3.71-5.08c1.19-1.73,2.31-3.5,3.49-5.24s2.37-3.47,3.41-5.3A216.08,216.08,0,0,0,798,634.11l.47-6.39.2-6.41.11-3.22c0-1.07,0-2.14,0-3.21l-.11-6.44c0-1.08-.07-2.15-.15-3.22l-.22-3.22c-.17-2.15-.24-4.31-.48-6.45s-.5-4.28-.73-6.44l-.36-3.22-.51-3.21-1-6.42c-.33-2.15-.87-4.26-1.29-6.39-.81-4.29-2-8.46-3-12.72a222.73,222.73,0,0,0-8.38-24.9l-1.2-3.09-1.33-3-2.69-6.06c-2-3.94-3.86-8-6-11.84a225.59,225.59,0,0,0-14.09-22.82l-3.93-5.5L749,474.56c-.7-.89-1.36-1.81-2.09-2.68l-2.19-2.6c-1.47-1.72-2.9-3.51-4.43-5.19C734.33,457.21,727.81,450.76,721.09,444.36Z" transform="translate(-208.33 -287.09)"/><text class="cls-5" transform="translate(365.01 426)">Ms.Yoon Me Me</text><text class="cls-6" transform="translate(369.4 485.09)">yoonmeme.engr@gmail.com</text><text class="cls-7" transform="translate(92.76 427.68) scale(1.1 1)">Y</text></svg>