<?xml version="1.0" standalone="no"?>
<!DOCTYPE svg PUBLIC "-//W3C//DTD SVG 1.1//EN" "http://www.w3.org/Graphics/SVG/1.1/DTD/svg11.dtd">
<svg xmlns="http://www.w3.org/2000/svg" xmlns:xlink="http://www.w3.org/1999/xlink" id="Layer_1" data-name="Layer 1" viewBox="0 0 607.97 486.28" width="70" height="70"><defs><style>.cls-1{fill:url(#Sky);}.cls-2{fill:url(#Sky-2);}.cls-3{fill:url(#Sky-3);}.cls-4{fill:url(#linear-gradient);}.cls-5{font-size:243.22px;fill:#3f92f5;letter-spacing:0.01em;}.cls-5,.cls-6{stroke:#000;stroke-miterlimit:10;font-family:Vivaldii, Vivaldi;}.cls-6{font-size:43.43px;fill:#0071bc;stroke-width:0.75px;letter-spacing:0.01em;}</style><linearGradient id="Sky" x1="441.41" y1="368.33" x2="919.46" y2="368.33" gradientUnits="userSpaceOnUse"><stop offset="0" stop-color="#cce0f4"/><stop offset="0.06" stop-color="#c3dcf2"/><stop offset="0.17" stop-color="#a9d2ee"/><stop offset="0.31" stop-color="#80c2e7"/><stop offset="0.46" stop-color="#47acde"/><stop offset="0.57" stop-color="#1e9cd7"/><stop offset="0.87" stop-color="#0075be"/><stop offset="0.99" stop-color="#005b97"/></linearGradient><linearGradient id="Sky-2" x1="482.84" y1="397.81" x2="913.18" y2="397.81" xlink:href="#Sky"/><linearGradient id="Sky-3" x1="524.41" y1="428.47" x2="856.69" y2="428.47" xlink:href="#Sky"/><linearGradient id="linear-gradient" x1="745.2" y1="253.77" x2="745.2" y2="252.36" xlink:href="#Sky"/></defs><path class="cls-1" d="M562.61,595.79A221.42,221.42,0,0,1,517,563.13a234.32,234.32,0,0,1-36.84-43.45,237,237,0,0,1-37.75-108.6l-.56-7.3-.33-7.31c-.05-2.44,0-4.88-.05-7.33s-.06-4.89,0-7.33l.38-7.34c.14-2.44.23-4.89.54-7.32.56-4.87.91-9.77,1.79-14.6a245.28,245.28,0,0,1,15.76-56.75l3-6.77c1-2.25,2-4.53,3.12-6.7,2.25-4.38,4.38-8.84,6.92-13.07l3.68-6.42,4-6.24c2.58-4.21,5.51-8.18,8.35-12.21,1.4-2,2.93-4,4.47-5.9L498,232.7c1.59-1.89,3.24-3.73,4.86-5.59l2.44-2.78,1.22-1.39,1.28-1.33,5.14-5.33c.87-.88,1.7-1.79,2.59-2.64l2.69-2.54,5.39-5.08c1.82-1.65,3.73-3.22,5.59-4.84a254.85,254.85,0,0,1,49.15-32.73A261.12,261.12,0,0,1,633.65,148c2.38-.62,4.81-1,7.21-1.58s4.8-1,7.22-1.47l7.27-1.16c2.43-.37,4.84-.82,7.29-1l7.31-.79c1.22-.13,2.44-.28,3.66-.38l3.67-.19,7.33-.38,1.84-.1H692a248,248,0,0,1,58.1,6.19c4.76,1,9.47,2.28,14.15,3.59l7,2.15c2.32.71,4.6,1.56,6.9,2.34a243.2,243.2,0,0,1,75.08,42.63A248,248,0,0,1,874,217.38a241.08,241.08,0,0,1,18.19,21.88c1.37,1.92,2.8,3.8,4.12,5.76l3.92,5.88,3.71,6c1.25,2,2.35,4.07,3.52,6.11a215.76,215.76,0,0,1,12,25.31c-5.05-7.83-10.35-15.41-16.05-22.64a247.42,247.42,0,0,0-18-20.68,266,266,0,0,0-20-18.51,250,250,0,0,0-21.68-16.13A232.11,232.11,0,0,0,820.6,196.7a261,261,0,0,0-24.28-11.08,248.37,248.37,0,0,0-51.07-13.86,226.1,226.1,0,0,0-26.2-2.73c-2.18-.15-4.38-.19-6.57-.25s-4.38-.15-6.57-.1-4.38,0-6.57.07l-6.56.33a239.66,239.66,0,0,0-99.89,27.44c-1,.51-1.93,1-2.88,1.49l-2.83,1.62-5.65,3.21c-1.87,1.08-3.67,2.31-5.51,3.45s-3.68,2.28-5.46,3.52a237.28,237.28,0,0,0-20.64,15.76,226.61,226.61,0,0,0-35.66,37.65c-2.56,3.49-5.22,6.91-7.55,10.57l-3.61,5.4-3.34,5.58c-2.32,3.66-4.24,7.55-6.32,11.36-1.06,1.89-1.94,3.87-2.89,5.81l-2.83,5.86a235.35,235.35,0,0,0-15.85,49.57c-1,4.25-1.49,8.59-2.21,12.9-.38,2.15-.56,4.32-.79,6.5l-.7,6.52c-.21,2.18-.27,4.37-.42,6.55s-.27,4.38-.36,6.57l-.1,6.58.1,6.58a237.07,237.07,0,0,0,26.23,102.21A251.93,251.93,0,0,0,523.39,557,276.49,276.49,0,0,0,562.61,595.79Z" transform="translate(-441.41 -140.86)"/><path class="cls-2" d="M617.24,612.79a198.65,198.65,0,0,1-46-25.11,215.5,215.5,0,0,1-38.75-36.63,219.9,219.9,0,0,1-28.82-45.72,215.45,215.45,0,0,1-10-25.41,205.06,205.06,0,0,1-6.84-26.57,242.64,242.64,0,0,1-3.55-27.3c-.27-4.59-.49-9.19-.43-13.79v-6.91l.33-6.91a222.2,222.2,0,0,1,3.13-27.53c.37-2.28.92-4.54,1.38-6.81s.91-4.54,1.49-6.78l1.77-6.73.9-3.36,1-3.32,2.11-6.63c.7-2.22,1.59-4.36,2.4-6.54s1.6-4.36,2.52-6.49l2.79-6.39,1.4-3.19,1.55-3.13,3.12-6.23c1.06-2.07,2.25-4.07,3.38-6.1l1.71-3c.56-1,1.14-2,1.78-3A236,236,0,0,1,550,249.37,237.43,237.43,0,0,1,594,215.12a231.05,231.05,0,0,1,50.84-22.55c2.2-.74,4.46-1.28,6.7-1.89l6.73-1.77,6.8-1.44c2.27-.46,4.52-1,6.81-1.33l6.86-1.1c1.14-.16,2.28-.39,3.43-.51l3.45-.35,6.9-.69c2.3-.19,4.61-.25,6.91-.38s4.6-.28,6.91-.29h10.36c1.15,0,2.3.09,3.45.13,2.3.12,4.6.15,6.89.36A231.43,231.43,0,0,1,754.3,187a205.13,205.13,0,0,1,26.55,6.94,217.84,217.84,0,0,1,71,39.15A214.47,214.47,0,0,1,888.28,272a198.08,198.08,0,0,1,24.9,46.12,256.16,256.16,0,0,0-32.33-39.8A238.7,238.7,0,0,0,862,261.52,217.8,217.8,0,0,0,841.67,247,222.2,222.2,0,0,0,820,234.86a211,211,0,0,0-22.67-9.58,237.12,237.12,0,0,0-23.44-6.92,217.33,217.33,0,0,0-72.19-4.48c-2,.23-4,.38-6,.67l-5.93.94c-4,.53-7.87,1.46-11.79,2.21-2,.34-3.89.91-5.82,1.38l-5.81,1.48-5.71,1.76c-1.91.59-3.83,1.13-5.68,1.85a215.72,215.72,0,0,0-43,20.46,218.94,218.94,0,0,0-37.26,29.54c-1.4,1.4-2.75,2.86-4.13,4.29s-2.8,2.82-4.06,4.35c-2.59,3-5.28,5.94-7.68,9.11l-3.7,4.66-3.49,4.84-1.74,2.41c-.59.8-1.09,1.66-1.64,2.48l-3.27,5a212.72,212.72,0,0,0-20.66,42.9,207.9,207.9,0,0,0-10.52,46.69l-.63,6-.33,6c-.08,2-.29,4-.27,6l-.09,6.05a212.34,212.34,0,0,0,1.41,24.16,215.41,215.41,0,0,0,20.4,70.17,221.19,221.19,0,0,0,12,21.7,234.15,234.15,0,0,0,31.2,39.3A255.09,255.09,0,0,0,617.24,612.79Z" transform="translate(-441.41 -140.86)"/><path class="cls-3" d="M856.69,570.55c-21.53,23.23-50.34,40.47-82,49.42-2,.55-4,1.11-6,1.61l-6,1.34c-2,.48-4,.82-6.07,1.18s-4.08.75-6.13,1c-4.1.53-8.21,1.11-12.35,1.34-2.07.14-4.14.37-6.22.42l-6.24.17-3.12.08-3.13-.07c-2.08,0-4.17-.09-6.26-.17s-4.16-.31-6.25-.46l-3.13-.26c-1-.08-2.09-.17-3.12-.32l-6.24-.83c-1-.15-2.09-.25-3.12-.44l-3.09-.57L682,622.86l-6.13-1.49c-4.12-.92-8.13-2.24-12.18-3.42-1-.29-2-.63-3-1l-3-1.05c-2-.73-4-1.36-6-2.17s-3.92-1.6-5.87-2.42-3.87-1.71-5.79-2.63l-5.73-2.75-5.6-3A198.16,198.16,0,0,1,587.58,573c-1.6-1.42-3.07-3-4.58-4.47s-3-3-4.48-4.57l-4.26-4.78-2.12-2.4-2-2.49-4-5-3.78-5.18c-2.59-3.41-4.82-7.07-7.19-10.63a206.31,206.31,0,0,1-21.5-46.57c-.63-2-1.18-4.12-1.77-6.18s-1.21-4.12-1.65-6.22c-1-4.18-2-8.34-2.64-12.58-.36-2.11-.75-4.22-1.06-6.34l-.78-6.38-.38-3.19c-.11-1.06-.16-2.13-.25-3.2l-.44-6.4a202.73,202.73,0,0,1,4-51,196.07,196.07,0,0,1,16.68-48.16l1.41-2.86,1.53-2.79,3.06-5.57,3.31-5.43c1.1-1.8,2.19-3.62,3.43-5.33l3.62-5.21c1.2-1.74,2.54-3.37,3.81-5.06l1.93-2.51,1-1.25,1-1.21,4.08-4.82c1.33-1.63,2.82-3.13,4.24-4.68s2.85-3.09,4.35-4.56l4.54-4.36c.77-.72,1.5-1.46,2.29-2.16l2.37-2.06L596,273.3l4.92-3.9,2.46-1.93c.83-.64,1.7-1.22,2.55-1.82l5.11-3.6a195.56,195.56,0,0,1,44.31-22.2,189.68,189.68,0,0,1,47.84-9.68l6-.24c2-.08,4-.19,6-.1,4,.09,8,.08,12,.46l6,.48c2,.21,4,.44,5.93.73,3.94.55,7.85,1.27,11.71,2.12a206.73,206.73,0,0,0-23.45,2,220.75,220.75,0,0,0-22.8,4.23,206,206,0,0,0-42.63,15.88,192.18,192.18,0,0,0-19.34,11.38l-2.32,1.55-1.16.77-1.13.82-4.51,3.28c-1.52,1.06-2.93,2.27-4.38,3.42s-2.9,2.3-4.31,3.5a194.09,194.09,0,0,0-30,32.14l-3.2,4.44-.79,1.1-.75,1.15-1.48,2.29c-1,1.54-2,3-2.93,4.6L583,330.85c-.94,1.55-1.78,3.16-2.62,4.76l-2.54,4.8-2.31,4.91-1.16,2.45-1,2.5a181.36,181.36,0,0,0-12,41.33l-.81,5.32c-.27,1.77-.41,3.56-.62,5.34l-.3,2.67c-.1.88-.2,1.77-.23,2.67L559,413c0,.9-.13,1.79-.15,2.69l0,2.68-.07,5.37c0,1.79.12,3.58.18,5.37l.09,2.68c0,.9.06,1.79.16,2.68l.46,5.34c.08.89.12,1.79.23,2.67l.36,2.66.71,5.3c.29,1.77.65,3.51,1,5.27.55,3.53,1.45,7,2.24,10.46.36,1.75.91,3.44,1.39,5.16s1,3.43,1.49,5.14l1.7,5.07.85,2.53,1,2.49,2,5c.68,1.64,1.45,3.25,2.16,4.89,1.37,3.3,3.06,6.44,4.65,9.64l.6,1.2.65,1.16,1.33,2.33c.9,1.54,1.7,3.14,2.65,4.66,1.93,3,3.7,6.12,5.81,9l3.06,4.4,3.25,4.28,1.62,2.14,1.72,2.06,3.45,4.13c1.19,1.34,2.43,2.64,3.62,4s2.39,2.68,3.69,3.92A184.45,184.45,0,0,0,683.52,595l5.2,1.71,5.27,1.49,2.64.76c.88.26,1.78.42,2.67.64l5.36,1.25c.89.22,1.8.38,2.7.54l2.72.48c1.81.31,3.61.7,5.44.94s3.65.47,5.48.72l2.75.38,2.76.23,5.54.48c1.85.16,3.71.16,5.56.25,3.72.21,7.43.08,11.17.11a187.46,187.46,0,0,0,22.38-1.79l2.8-.35,2.78-.48,5.58-1c3.68-.83,7.41-1.54,11.07-2.55a193.24,193.24,0,0,0,21.82-7l5.37-2.11,5.3-2.33c.88-.4,1.79-.76,2.66-1.18l2.61-1.28c1.73-.86,3.51-1.67,5.22-2.59C843.3,578.86,850,574.79,856.69,570.55Z" transform="translate(-441.41 -140.86)"/><path class="cls-4" d="M839.85,263.07c25.25,13.87,46.82,35.51,61.69,61.46.92,1.63,1.86,3.25,2.74,4.91l2.52,5c.86,1.67,1.61,3.39,2.37,5.11s1.57,3.42,2.26,5.17c1.37,3.5,2.8,7,3.92,10.61.57,1.79,1.23,3.57,1.73,5.39l1.53,5.47.76,2.74.63,2.77q.63,2.77,1.23,5.57c.39,1.86.64,3.74,1,5.62l.46,2.82c.16.93.31,1.88.41,2.82l.64,5.69c.1.95.24,1.9.3,2.85l.18,2.86.34,5.73,0,5.74c.1,3.84-.19,7.67-.34,11.51,0,1-.11,1.91-.2,2.87l-.27,2.87c-.21,1.91-.32,3.84-.6,5.74s-.55,3.81-.85,5.71-.65,3.8-1,5.69l-1.16,5.66-1.42,5.62A180.53,180.53,0,0,1,901.33,500c-.89,1.72-1.93,3.36-2.93,5s-2,3.33-3,5l-3.28,4.81-1.65,2.41-1.75,2.33-3.51,4.65-3.74,4.48c-2.44,3-5.18,5.81-7.8,8.69a187.41,187.41,0,0,1-36.36,29.24c-1.67,1-3.38,2-5.06,2.93s-3.37,2-5.13,2.82c-3.48,1.76-6.93,3.59-10.52,5.11-1.79.78-3.56,1.59-5.36,2.34l-5.46,2.09L803,583c-.91.33-1.85.61-2.77.92l-5.55,1.8a184.22,184.22,0,0,1-45.87,7.72,178.4,178.4,0,0,1-46.18-4.1l-2.83-.62L697,588l-5.59-1.47-5.52-1.73c-1.84-.58-3.68-1.13-5.47-1.85l-5.39-2c-1.8-.68-3.54-1.51-5.31-2.25l-2.64-1.15-1.32-.58-1.29-.63-5.15-2.54c-1.74-.82-3.39-1.8-5.07-2.71s-3.35-1.84-5-2.84l-4.85-3c-.8-.51-1.62-1-2.41-1.54L639.66,562,635,558.67l-4.52-3.48-2.25-1.74c-.74-.6-1.45-1.24-2.17-1.85l-4.3-3.73a178.15,178.15,0,0,1-29.36-34.2,172.32,172.32,0,0,1-19.09-40.09l-1.55-5.29c-.51-1.76-1-3.51-1.42-5.31-.81-3.57-1.7-7.1-2.25-10.71l-.89-5.37c-.25-1.8-.48-3.59-.66-5.4-.38-3.59-.61-7.2-.71-10.8A190.32,190.32,0,0,0,572.72,451a198.18,198.18,0,0,0,8.76,19.18,187.71,187.71,0,0,0,23.41,34.12,175.81,175.81,0,0,0,14.31,14.57l1.88,1.7.94.86,1,.81,3.89,3.25c1.27,1.11,2.65,2.09,4,3.12s2.66,2.06,4,3a176.46,176.46,0,0,0,35,19.41l4.63,1.84,1.15.46,1.18.41,2.35.8c1.57.52,3.11,1.12,4.7,1.57l4.76,1.38c1.58.49,3.18.88,4.78,1.27l4.8,1.19,4.84.95,2.42.48,2.44.37a165,165,0,0,0,39.13,1.52l4.87-.45c1.62-.16,3.23-.43,4.85-.64l2.42-.32c.81-.1,1.61-.22,2.41-.39l4.81-.9c.79-.16,1.6-.28,2.39-.47l2.38-.56,4.76-1.12c1.58-.4,3.13-.9,4.7-1.34l2.34-.68c.79-.22,1.57-.45,2.33-.73l4.61-1.58c.77-.27,1.55-.5,2.31-.79l2.26-.91,4.53-1.8c1.49-.64,3-1.34,4.43-2,3-1.26,5.85-2.82,8.74-4.28,1.46-.71,2.84-1.57,4.25-2.37s2.81-1.61,4.2-2.44l4.1-2.62,2-1.31,2-1.41,4-2.82c1.3-1,2.55-2,3.84-3,2.61-1.94,5-4.13,7.48-6.23l.93-.79.88-.84,1.77-1.68c1.16-1.13,2.39-2.2,3.51-3.37,2.23-2.37,4.59-4.62,6.68-7.12l3.21-3.67,3.06-3.81,1.53-1.9,1.44-2L870,493c.93-1.34,1.8-2.72,2.71-4.07s1.85-2.7,2.65-4.12a167.77,167.77,0,0,0,24.31-74.3l.37-5,.15-5,.08-2.5c0-.83,0-1.67,0-2.5l-.08-5c0-.84-.06-1.67-.12-2.51l-.17-2.5c-.13-1.66-.18-3.34-.37-5s-.4-3.33-.57-5l-.28-2.51-.4-2.49-.81-5c-.25-1.67-.67-3.3-1-5-.63-3.33-1.57-6.58-2.36-9.88a173.32,173.32,0,0,0-6.51-19.36l-.93-2.39-1-2.35-2.09-4.71c-1.55-3.06-3-6.2-4.7-9.2A174,174,0,0,0,867.84,295l-3.05-4.28-3.22-4.16c-.55-.69-1.07-1.41-1.63-2.08l-1.7-2c-1.15-1.34-2.25-2.73-3.44-4C850.13,273.05,845.07,268,839.85,263.07Z" transform="translate(-441.41 -140.86)"/><text class="cls-5" transform="translate(83.08 332.32) scale(1.1 1)">Y</text><text class="cls-6" transform="translate(256.71 373.63)">Ms.Yoon Me Me</text></svg>